G75*
G70*
%OFA0B0*%
%FSLAX24Y24*%
%IPPOS*%
%LPD*%
%AMOC8*
5,1,8,0,0,1.08239X$1,22.5*
%
%ADD10C,0.0554*%
%ADD11C,0.0515*%
%ADD12C,0.0594*%
%ADD13C,0.0600*%
%ADD14C,0.0560*%
%ADD15C,0.0200*%
%ADD16C,0.0180*%
%ADD17C,0.0395*%
%ADD18C,0.0100*%
D10*
X006381Y009123D03*
X006381Y011091D03*
D11*
X005318Y011485D03*
X005318Y008729D03*
D12*
X008311Y006590D03*
X008311Y005650D03*
X008301Y004630D03*
X005531Y001300D03*
X023501Y004590D03*
X013941Y014280D03*
X013951Y015300D03*
X013961Y016310D03*
X005831Y019050D03*
X037031Y016000D03*
X039981Y001300D03*
D13*
X035931Y001550D03*
X034931Y001550D03*
X033931Y001550D03*
X032931Y001550D03*
X031931Y001550D03*
X030931Y001550D03*
X029931Y001550D03*
X028931Y001550D03*
X027931Y001550D03*
X026931Y001550D03*
X026931Y002550D03*
X027931Y002550D03*
X028931Y002550D03*
X029931Y002550D03*
X030931Y002550D03*
X031931Y002550D03*
X032931Y002550D03*
X033931Y002550D03*
X034931Y002550D03*
X035931Y002550D03*
X023881Y007950D03*
X022881Y007950D03*
X022881Y008950D03*
X023881Y008950D03*
X023881Y009950D03*
X022881Y009950D03*
X022881Y010950D03*
X023881Y010950D03*
X023881Y011950D03*
X022881Y011950D03*
X022881Y012950D03*
X023881Y012950D03*
X023881Y013950D03*
X022881Y013950D03*
X022619Y018552D03*
X021619Y018552D03*
X020619Y018552D03*
X019619Y018552D03*
X018619Y018552D03*
X017619Y018552D03*
X016619Y018552D03*
X015619Y018552D03*
X014619Y018552D03*
X013619Y018552D03*
X012619Y018552D03*
X011619Y018552D03*
X010619Y018552D03*
X009619Y018552D03*
X008619Y018552D03*
X008619Y019552D03*
X009619Y019552D03*
X010619Y019552D03*
X011619Y019552D03*
X012619Y019552D03*
X013619Y019552D03*
X014619Y019552D03*
X015619Y019552D03*
X016619Y019552D03*
X017619Y019552D03*
X018619Y019552D03*
X019619Y019552D03*
X020619Y019552D03*
X021619Y019552D03*
X022619Y019552D03*
X026931Y019550D03*
X027931Y019550D03*
X028931Y019550D03*
X029931Y019550D03*
X030931Y019550D03*
X031931Y019550D03*
X032931Y019550D03*
X033931Y019550D03*
X034931Y019550D03*
X035931Y019550D03*
X035931Y018550D03*
X034931Y018550D03*
X033931Y018550D03*
X032931Y018550D03*
X031931Y018550D03*
X030931Y018550D03*
X029931Y018550D03*
X028931Y018550D03*
X027931Y018550D03*
X026931Y018550D03*
X037931Y019550D03*
X038931Y019550D03*
X039931Y019550D03*
D14*
X039941Y018550D03*
X038941Y018550D03*
X038981Y014300D03*
X039981Y014300D03*
X039981Y013300D03*
X038981Y013300D03*
X037981Y013300D03*
X037981Y014300D03*
X038031Y007150D03*
X039031Y007150D03*
X040031Y007150D03*
X040031Y006050D03*
X039031Y006050D03*
X038031Y006050D03*
D15*
X006831Y008750D02*
X006711Y008630D01*
X006091Y008630D01*
X005871Y008410D01*
X005871Y007710D01*
X005811Y007650D01*
X004871Y007650D01*
X004856Y007665D01*
X004856Y011870D01*
X006511Y011870D01*
X006562Y011819D01*
X006561Y011818D01*
X006561Y011702D01*
X006605Y011596D01*
X006687Y011514D01*
X006731Y011496D01*
X006731Y010970D01*
X006591Y010830D01*
X006071Y010830D01*
X005931Y010690D01*
X005931Y009430D01*
X006011Y009350D01*
X006631Y009350D01*
X006681Y009300D01*
X006681Y009292D01*
X006725Y009186D01*
X006807Y009104D01*
X006831Y009094D01*
X006831Y008750D01*
X006769Y008689D02*
X004856Y008689D01*
X004856Y008887D02*
X006831Y008887D01*
X006831Y009086D02*
X004856Y009086D01*
X004856Y009284D02*
X006684Y009284D01*
X005931Y009483D02*
X004856Y009483D01*
X004856Y009681D02*
X005931Y009681D01*
X005931Y009880D02*
X004856Y009880D01*
X004856Y010078D02*
X005931Y010078D01*
X005931Y010277D02*
X004856Y010277D01*
X004856Y010475D02*
X005931Y010475D01*
X005931Y010674D02*
X004856Y010674D01*
X004856Y010872D02*
X006633Y010872D01*
X006731Y011071D02*
X004856Y011071D01*
X004856Y011269D02*
X006731Y011269D01*
X006731Y011468D02*
X004856Y011468D01*
X004856Y011666D02*
X006576Y011666D01*
X006516Y011865D02*
X004856Y011865D01*
X004856Y008490D02*
X005951Y008490D01*
X005871Y008292D02*
X004856Y008292D01*
X004856Y008093D02*
X005871Y008093D01*
X005871Y007895D02*
X004856Y007895D01*
X004856Y007696D02*
X005857Y007696D01*
D16*
X006551Y007810D03*
X006551Y008070D03*
X006651Y008610D03*
X006171Y008610D03*
X005851Y009230D03*
X005311Y009210D03*
X004871Y009190D03*
X005891Y010110D03*
X007031Y009950D03*
X006971Y009590D03*
X006971Y009350D03*
X007861Y009270D03*
X007031Y010500D03*
X005871Y011010D03*
X005311Y011010D03*
X004871Y011010D03*
X006031Y011830D03*
X006431Y011830D03*
X006851Y011760D03*
X007511Y011350D03*
X008261Y010940D03*
X009281Y010550D03*
X010421Y010500D03*
X010361Y011040D03*
X010361Y011340D03*
X009881Y011500D03*
X009431Y011950D03*
X011171Y011650D03*
X012331Y011500D03*
X012331Y011150D03*
X013531Y011490D03*
X014481Y011300D03*
X014481Y012000D03*
X015381Y012200D03*
X016081Y012000D03*
X015881Y011500D03*
X015931Y011000D03*
X016231Y010150D03*
X017031Y010150D03*
X017831Y010150D03*
X017831Y009700D03*
X018006Y009075D03*
X017731Y008950D03*
X017031Y008950D03*
X016231Y008950D03*
X015131Y008900D03*
X015131Y009250D03*
X014481Y009410D03*
X014721Y009720D03*
X014501Y010280D03*
X013481Y010350D03*
X013311Y009500D03*
X012281Y009500D03*
X012291Y009050D03*
X011581Y009650D03*
X010431Y009200D03*
X010411Y008450D03*
X011531Y007650D03*
X011981Y007850D03*
X012541Y007550D03*
X012951Y008160D03*
X013691Y008430D03*
X014731Y007850D03*
X014931Y007600D03*
X015131Y007850D03*
X015731Y007850D03*
X016281Y007850D03*
X017081Y007850D03*
X017481Y007900D03*
X017681Y007750D03*
X018341Y008000D03*
X018331Y008300D03*
X019131Y008550D03*
X019181Y008900D03*
X018881Y009500D03*
X019021Y009920D03*
X020291Y009900D03*
X020291Y009360D03*
X021281Y009600D03*
X021831Y009950D03*
X020291Y008450D03*
X020291Y008010D03*
X019551Y007490D03*
X019551Y007010D03*
X020001Y006360D03*
X020811Y006390D03*
X021381Y006200D03*
X021381Y005350D03*
X022031Y004500D03*
X022831Y006150D03*
X023831Y006150D03*
X024631Y006150D03*
X025581Y006150D03*
X025031Y007250D03*
X025381Y007600D03*
X027481Y006850D03*
X027931Y006100D03*
X028131Y005900D03*
X028931Y006250D03*
X029931Y006650D03*
X030031Y006300D03*
X030321Y006690D03*
X030641Y006730D03*
X031311Y006700D03*
X031291Y006260D03*
X032181Y006650D03*
X032681Y006850D03*
X033231Y006450D03*
X032581Y005850D03*
X032381Y006050D03*
X033481Y005650D03*
X033331Y005400D03*
X033331Y005100D03*
X033781Y005650D03*
X034091Y005640D03*
X034081Y007250D03*
X033531Y007150D03*
X033131Y007800D03*
X032931Y008000D03*
X033141Y008200D03*
X032931Y008410D03*
X033121Y008610D03*
X032931Y008800D03*
X033431Y009000D03*
X032681Y009650D03*
X032281Y010100D03*
X032481Y010300D03*
X031881Y010100D03*
X031581Y010100D03*
X030321Y010190D03*
X029521Y010190D03*
X028981Y010600D03*
X028781Y010390D03*
X028401Y010780D03*
X028551Y011170D03*
X028971Y010980D03*
X029521Y010990D03*
X030931Y012120D03*
X030731Y012360D03*
X031151Y012480D03*
X031631Y012950D03*
X032081Y012850D03*
X032681Y012850D03*
X034031Y012950D03*
X034931Y012750D03*
X035131Y012950D03*
X036281Y012750D03*
X036631Y012400D03*
X036631Y011900D03*
X036581Y011400D03*
X036081Y010800D03*
X036081Y010350D03*
X036081Y009900D03*
X036281Y009600D03*
X036101Y008960D03*
X036031Y008700D03*
X036021Y008250D03*
X036031Y007800D03*
X036021Y007350D03*
X036631Y006850D03*
X037331Y006850D03*
X036741Y005640D03*
X036751Y005130D03*
X036831Y003750D03*
X036901Y003080D03*
X037651Y003080D03*
X037651Y002380D03*
X036901Y002180D03*
X036831Y001150D03*
X037631Y001150D03*
X040831Y001150D03*
X040831Y003550D03*
X039781Y003500D03*
X039801Y004430D03*
X039441Y004940D03*
X040531Y004950D03*
X040831Y007650D03*
X040551Y009250D03*
X040411Y011070D03*
X038081Y011350D03*
X040831Y012950D03*
X040831Y014750D03*
X038431Y015950D03*
X037831Y016600D03*
X037031Y016900D03*
X036121Y015820D03*
X037281Y014800D03*
X036731Y014150D03*
X035631Y014150D03*
X034431Y014150D03*
X033931Y014900D03*
X033731Y015150D03*
X033531Y014900D03*
X034441Y015490D03*
X032771Y016660D03*
X032331Y016250D03*
X032331Y015800D03*
X032481Y015350D03*
X031171Y015010D03*
X030131Y014510D03*
X031131Y014200D03*
X032281Y014050D03*
X032881Y014050D03*
X032531Y011840D03*
X033481Y011350D03*
X034521Y011950D03*
X034741Y011750D03*
X034981Y011550D03*
X034971Y011070D03*
X034731Y010950D03*
X034981Y010800D03*
X034731Y010350D03*
X034911Y009790D03*
X033341Y009980D03*
X033341Y010220D03*
X030321Y009190D03*
X029521Y009190D03*
X028331Y009000D03*
X027311Y009090D03*
X027061Y009090D03*
X027211Y009340D03*
X027031Y009800D03*
X027261Y010000D03*
X026671Y009090D03*
X025671Y009080D03*
X025401Y009670D03*
X025681Y010850D03*
X025681Y011400D03*
X025181Y011850D03*
X025701Y012300D03*
X025701Y012700D03*
X027071Y012350D03*
X027331Y012150D03*
X027181Y011950D03*
X026731Y011250D03*
X027051Y010940D03*
X028931Y012750D03*
X029431Y012800D03*
X029221Y015420D03*
X028781Y015800D03*
X027701Y017050D03*
X029281Y017400D03*
X029211Y017700D03*
X029531Y017800D03*
X030681Y017900D03*
X033431Y017030D03*
X034431Y017650D03*
X035181Y017850D03*
X034431Y019950D03*
X037031Y019950D03*
X040831Y018950D03*
X040831Y016750D03*
X031431Y019950D03*
X026021Y019150D03*
X025431Y019950D03*
X023831Y019950D03*
X023831Y018230D03*
X021891Y017960D03*
X020881Y017950D03*
X020351Y017950D03*
X020571Y017200D03*
X017921Y016970D03*
X017631Y017950D03*
X015891Y017960D03*
X015431Y017960D03*
X013831Y017960D03*
X012631Y017960D03*
X012531Y016700D03*
X012511Y016250D03*
X014401Y016480D03*
X015101Y015780D03*
X014541Y015490D03*
X014781Y014530D03*
X015931Y014500D03*
X016181Y014700D03*
X016381Y014500D03*
X017601Y014220D03*
X017281Y013510D03*
X017191Y013270D03*
X017481Y013300D03*
X018021Y012840D03*
X018281Y012840D03*
X019141Y013060D03*
X019141Y013740D03*
X019141Y014200D03*
X020751Y013100D03*
X020751Y012350D03*
X021431Y011950D03*
X020291Y011740D03*
X019021Y011280D03*
X017831Y011150D03*
X017831Y011880D03*
X015981Y013400D03*
X014781Y013280D03*
X013681Y013280D03*
X012531Y014350D03*
X012531Y014830D03*
X012051Y013630D03*
X010811Y013350D03*
X009751Y013190D03*
X008951Y014350D03*
X008391Y014330D03*
X007811Y014330D03*
X006731Y014530D03*
X006711Y014790D03*
X006551Y015310D03*
X006731Y016050D03*
X006751Y016530D03*
X006751Y016850D03*
X007651Y017110D03*
X008351Y017110D03*
X008971Y017090D03*
X009981Y016880D03*
X009981Y016580D03*
X009981Y016280D03*
X009931Y015818D03*
X009101Y015700D03*
X009951Y014940D03*
X009951Y014660D03*
X007651Y015800D03*
X005401Y015840D03*
X005361Y015310D03*
X005631Y014770D03*
X004881Y013800D03*
X005341Y012500D03*
X007131Y012950D03*
X007131Y013470D03*
X005731Y017380D03*
X005031Y018150D03*
X005031Y019950D03*
X007631Y019950D03*
X007631Y018160D03*
X014031Y019950D03*
X019131Y020000D03*
X021131Y020000D03*
X026051Y018170D03*
X021431Y014150D03*
X021881Y013150D03*
X021281Y007950D03*
X021831Y007350D03*
X020671Y007050D03*
X019581Y005650D03*
X018091Y005420D03*
X017081Y006150D03*
X016621Y006220D03*
X016321Y006510D03*
X015931Y006510D03*
X015531Y006510D03*
X015681Y006100D03*
X015681Y005800D03*
X016131Y005800D03*
X016131Y006100D03*
X016611Y005650D03*
X016611Y005420D03*
X016321Y005130D03*
X015931Y004750D03*
X015751Y005140D03*
X015521Y005130D03*
X014481Y004800D03*
X014231Y005540D03*
X013031Y005600D03*
X013021Y006030D03*
X013031Y006500D03*
X013031Y006900D03*
X014131Y006800D03*
X014081Y006500D03*
X015241Y006020D03*
X013031Y004550D03*
X011731Y002800D03*
X012481Y002350D03*
X011511Y001730D03*
X010841Y002770D03*
X008931Y001300D03*
X008151Y001690D03*
X007681Y001200D03*
X006121Y002650D03*
X005611Y002620D03*
X005031Y001950D03*
X005031Y003750D03*
X004891Y005440D03*
X006581Y006400D03*
X006531Y007250D03*
X005011Y007770D03*
X005011Y008110D03*
X004881Y007300D03*
X009541Y006670D03*
X010431Y006290D03*
X010311Y005810D03*
X009541Y005620D03*
X011681Y006300D03*
X012041Y006320D03*
X016031Y002900D03*
X015231Y001710D03*
X015681Y001200D03*
X018031Y001150D03*
X018571Y001710D03*
X019871Y002100D03*
X020091Y001250D03*
X017941Y002860D03*
X019011Y003260D03*
X023241Y002910D03*
X025581Y003300D03*
X026231Y002890D03*
X026751Y003450D03*
X026681Y004290D03*
X028381Y004300D03*
X028631Y003850D03*
X029831Y004000D03*
X030031Y003750D03*
X030531Y003400D03*
X031231Y003150D03*
X032831Y003150D03*
X033831Y003050D03*
X034731Y003050D03*
X032431Y001150D03*
X029431Y001150D03*
X026231Y001150D03*
X024181Y001000D03*
X029131Y005100D03*
X031331Y004500D03*
X031331Y007800D03*
X031631Y007800D03*
X030121Y007790D03*
X028921Y007790D03*
X018461Y007550D03*
X013031Y001150D03*
X007641Y002770D03*
D17*
X005461Y008730D03*
X005211Y008730D03*
X005221Y011490D03*
X005451Y011490D03*
D18*
X004806Y007406D02*
X004806Y000925D01*
X005287Y000925D01*
X005240Y000959D01*
X005190Y001009D01*
X005149Y001066D01*
X005117Y001128D01*
X005095Y001195D01*
X005086Y001252D01*
X005482Y001252D01*
X005482Y001348D01*
X005086Y001348D01*
X005095Y001405D01*
X005117Y001472D01*
X005149Y001534D01*
X005190Y001591D01*
X005240Y001641D01*
X005297Y001682D01*
X005359Y001714D01*
X005426Y001736D01*
X005482Y001745D01*
X005482Y001348D01*
X005579Y001348D01*
X005976Y001348D01*
X005967Y001405D01*
X005945Y001472D01*
X005913Y001534D01*
X005872Y001591D01*
X005822Y001641D01*
X005765Y001682D01*
X005702Y001714D01*
X005636Y001736D01*
X005579Y001745D01*
X005579Y001348D01*
X005579Y001252D01*
X005976Y001252D01*
X005967Y001195D01*
X005945Y001128D01*
X005913Y001066D01*
X005872Y001009D01*
X005822Y000959D01*
X005775Y000925D01*
X039737Y000925D01*
X039690Y000959D01*
X039640Y001009D01*
X039599Y001066D01*
X039567Y001128D01*
X039545Y001195D01*
X039536Y001252D01*
X039932Y001252D01*
X039932Y001348D01*
X039536Y001348D01*
X039545Y001405D01*
X039567Y001472D01*
X039599Y001534D01*
X039640Y001591D01*
X039690Y001641D01*
X039747Y001682D01*
X039809Y001714D01*
X039876Y001736D01*
X039932Y001745D01*
X039932Y001348D01*
X040029Y001348D01*
X040426Y001348D01*
X040417Y001405D01*
X040395Y001472D01*
X040363Y001534D01*
X040322Y001591D01*
X040272Y001641D01*
X040215Y001682D01*
X040152Y001714D01*
X040086Y001736D01*
X040029Y001745D01*
X040029Y001348D01*
X040029Y001252D01*
X040426Y001252D01*
X040417Y001195D01*
X040395Y001128D01*
X040363Y001066D01*
X040322Y001009D01*
X040272Y000959D01*
X040225Y000925D01*
X041056Y000925D01*
X041056Y020175D01*
X004806Y020175D01*
X004806Y012120D01*
X006561Y012120D01*
X006652Y012082D01*
X006723Y012012D01*
X006784Y011950D01*
X006930Y011950D01*
X007041Y011839D01*
X007041Y011681D01*
X006981Y011621D01*
X006981Y010920D01*
X006943Y010828D01*
X006872Y010758D01*
X006732Y010618D01*
X006641Y010580D01*
X006181Y010580D01*
X006181Y009600D01*
X006681Y009600D01*
X006772Y009562D01*
X006843Y009492D01*
X006843Y009492D01*
X007043Y009292D01*
X007081Y009200D01*
X007081Y008700D01*
X007043Y008608D01*
X006852Y008418D01*
X006761Y008380D01*
X006194Y008380D01*
X006121Y008306D01*
X006121Y007660D01*
X006083Y007568D01*
X006012Y007498D01*
X005952Y007438D01*
X005861Y007400D01*
X004821Y007400D01*
X004806Y007406D01*
X004806Y007347D02*
X006359Y007347D01*
X006341Y007329D02*
X006341Y007171D01*
X006452Y007060D01*
X006610Y007060D01*
X006721Y007171D01*
X006721Y007329D01*
X006610Y007440D01*
X006452Y007440D01*
X006341Y007329D01*
X006341Y007248D02*
X004806Y007248D01*
X004806Y007150D02*
X006363Y007150D01*
X006699Y007150D02*
X019422Y007150D01*
X019472Y007200D02*
X019361Y007089D01*
X019361Y006931D01*
X019472Y006820D01*
X019630Y006820D01*
X019741Y006931D01*
X019741Y007089D01*
X019630Y007200D01*
X019472Y007200D01*
X019361Y007051D02*
X004806Y007051D01*
X004806Y006953D02*
X008050Y006953D01*
X008077Y006972D02*
X008020Y006931D01*
X007970Y006881D01*
X007929Y006824D01*
X007897Y006762D01*
X007875Y006695D01*
X007866Y006638D01*
X008262Y006638D01*
X008262Y006542D01*
X007866Y006542D01*
X007875Y006485D01*
X007897Y006418D01*
X007929Y006356D01*
X007970Y006299D01*
X008020Y006249D01*
X008077Y006208D01*
X008139Y006176D01*
X008206Y006154D01*
X008262Y006145D01*
X008262Y006542D01*
X008359Y006542D01*
X008359Y006638D01*
X008756Y006638D01*
X008747Y006695D01*
X008725Y006762D01*
X008693Y006824D01*
X008652Y006881D01*
X008602Y006931D01*
X008545Y006972D01*
X008482Y007004D01*
X008416Y007026D01*
X008359Y007035D01*
X008359Y006638D01*
X008262Y006638D01*
X008262Y007035D01*
X008206Y007026D01*
X008139Y007004D01*
X008077Y006972D01*
X007950Y006854D02*
X004806Y006854D01*
X004806Y006756D02*
X007895Y006756D01*
X007869Y006657D02*
X004806Y006657D01*
X004806Y006559D02*
X006471Y006559D01*
X006502Y006590D02*
X006391Y006479D01*
X006391Y006321D01*
X006502Y006210D01*
X006660Y006210D01*
X006771Y006321D01*
X006771Y006479D01*
X006660Y006590D01*
X006502Y006590D01*
X006391Y006460D02*
X004806Y006460D01*
X004806Y006362D02*
X006391Y006362D01*
X006449Y006263D02*
X004806Y006263D01*
X004806Y006165D02*
X008174Y006165D01*
X008206Y006086D02*
X008139Y006064D01*
X008077Y006032D01*
X008020Y005991D01*
X007970Y005941D01*
X007929Y005884D01*
X007897Y005822D01*
X007875Y005755D01*
X007866Y005698D01*
X008262Y005698D01*
X008262Y005602D01*
X007866Y005602D01*
X007875Y005545D01*
X007897Y005478D01*
X007929Y005416D01*
X007970Y005359D01*
X008020Y005309D01*
X008077Y005268D01*
X008139Y005236D01*
X008206Y005214D01*
X008262Y005205D01*
X008262Y005602D01*
X008359Y005602D01*
X008359Y005698D01*
X008756Y005698D01*
X008747Y005755D01*
X008725Y005822D01*
X008693Y005884D01*
X008652Y005941D01*
X008602Y005991D01*
X008545Y006032D01*
X008482Y006064D01*
X008416Y006086D01*
X008359Y006095D01*
X008359Y005698D01*
X008262Y005698D01*
X008262Y006095D01*
X008206Y006086D01*
X008262Y006066D02*
X008359Y006066D01*
X008359Y006145D02*
X008416Y006154D01*
X008482Y006176D01*
X008545Y006208D01*
X008602Y006249D01*
X008652Y006299D01*
X008693Y006356D01*
X008725Y006418D01*
X008747Y006485D01*
X008756Y006542D01*
X008359Y006542D01*
X008359Y006145D01*
X008359Y006165D02*
X008262Y006165D01*
X008262Y006263D02*
X008359Y006263D01*
X008359Y006362D02*
X008262Y006362D01*
X008262Y006460D02*
X008359Y006460D01*
X008359Y006559D02*
X013891Y006559D01*
X013891Y006579D02*
X013891Y006421D01*
X014002Y006310D01*
X014160Y006310D01*
X014271Y006421D01*
X014271Y006579D01*
X014225Y006625D01*
X014321Y006721D01*
X014321Y006879D01*
X014210Y006990D01*
X014052Y006990D01*
X013941Y006879D01*
X013941Y006721D01*
X013987Y006675D01*
X013891Y006579D01*
X013969Y006657D02*
X008753Y006657D01*
X008727Y006756D02*
X013941Y006756D01*
X013941Y006854D02*
X008671Y006854D01*
X008572Y006953D02*
X014015Y006953D01*
X014247Y006953D02*
X019361Y006953D01*
X019438Y006854D02*
X014321Y006854D01*
X014321Y006756D02*
X027307Y006756D01*
X027291Y006771D02*
X027402Y006660D01*
X027560Y006660D01*
X027671Y006771D01*
X027671Y006929D01*
X027560Y007040D01*
X027402Y007040D01*
X027291Y006929D01*
X027291Y006771D01*
X027291Y006854D02*
X019664Y006854D01*
X019741Y006953D02*
X020500Y006953D01*
X020481Y006971D02*
X020592Y006860D01*
X020750Y006860D01*
X020861Y006971D01*
X020861Y007129D01*
X020750Y007240D01*
X020592Y007240D01*
X020481Y007129D01*
X020481Y006971D01*
X020481Y007051D02*
X019741Y007051D01*
X019680Y007150D02*
X020502Y007150D01*
X020840Y007150D02*
X024863Y007150D01*
X024841Y007171D02*
X024952Y007060D01*
X025110Y007060D01*
X025221Y007171D01*
X025221Y007329D01*
X025110Y007440D01*
X024952Y007440D01*
X024841Y007329D01*
X024841Y007171D01*
X024841Y007248D02*
X006721Y007248D01*
X006703Y007347D02*
X024859Y007347D01*
X025203Y007347D02*
X035831Y007347D01*
X035831Y007271D02*
X035942Y007160D01*
X036100Y007160D01*
X036211Y007271D01*
X036211Y007429D01*
X036100Y007540D01*
X035942Y007540D01*
X035831Y007429D01*
X035831Y007271D01*
X035854Y007248D02*
X033702Y007248D01*
X033721Y007229D02*
X033610Y007340D01*
X033452Y007340D01*
X033341Y007229D01*
X033341Y007071D01*
X033452Y006960D01*
X033610Y006960D01*
X033721Y007071D01*
X033721Y007229D01*
X033721Y007150D02*
X037651Y007150D01*
X037651Y007226D02*
X037651Y007074D01*
X037709Y006935D01*
X037816Y006828D01*
X037955Y006770D01*
X038106Y006770D01*
X038246Y006828D01*
X038353Y006935D01*
X038411Y007074D01*
X038411Y007226D01*
X038353Y007365D01*
X038246Y007472D01*
X038106Y007530D01*
X037955Y007530D01*
X037816Y007472D01*
X037709Y007365D01*
X037651Y007226D01*
X037660Y007248D02*
X036188Y007248D01*
X036211Y007347D02*
X037701Y007347D01*
X037788Y007445D02*
X036195Y007445D01*
X036110Y007610D02*
X036221Y007721D01*
X036221Y007879D01*
X036110Y007990D01*
X035952Y007990D01*
X035841Y007879D01*
X035841Y007721D01*
X035952Y007610D01*
X036110Y007610D01*
X036142Y007642D02*
X041056Y007642D01*
X041056Y007544D02*
X025571Y007544D01*
X025571Y007521D02*
X025460Y007410D01*
X025302Y007410D01*
X025191Y007521D01*
X025191Y007679D01*
X025302Y007790D01*
X025460Y007790D01*
X025571Y007679D01*
X025571Y007521D01*
X025495Y007445D02*
X035847Y007445D01*
X035920Y007642D02*
X033242Y007642D01*
X033210Y007610D02*
X033321Y007721D01*
X033321Y007879D01*
X033210Y007990D01*
X033121Y007990D01*
X033121Y008010D01*
X033220Y008010D01*
X033331Y008121D01*
X033331Y008279D01*
X033220Y008390D01*
X033121Y008390D01*
X033121Y008420D01*
X033200Y008420D01*
X033311Y008531D01*
X033311Y008689D01*
X033200Y008800D01*
X033121Y008800D01*
X033121Y008879D01*
X033010Y008990D01*
X032852Y008990D01*
X032741Y008879D01*
X032741Y008721D01*
X032852Y008610D01*
X032931Y008610D01*
X032931Y008600D01*
X032852Y008600D01*
X032741Y008489D01*
X032741Y008331D01*
X032852Y008220D01*
X032951Y008220D01*
X032951Y008190D01*
X032852Y008190D01*
X032741Y008079D01*
X032741Y007921D01*
X032852Y007810D01*
X032941Y007810D01*
X032941Y007721D01*
X033052Y007610D01*
X033210Y007610D01*
X033321Y007741D02*
X035841Y007741D01*
X035841Y007839D02*
X033321Y007839D01*
X033262Y007938D02*
X035900Y007938D01*
X035942Y008060D02*
X036100Y008060D01*
X036211Y008171D01*
X036211Y008329D01*
X036100Y008440D01*
X035942Y008440D01*
X035831Y008329D01*
X035831Y008171D01*
X035942Y008060D01*
X035868Y008135D02*
X033331Y008135D01*
X033331Y008233D02*
X035831Y008233D01*
X035834Y008332D02*
X033278Y008332D01*
X033210Y008430D02*
X035932Y008430D01*
X035952Y008510D02*
X036110Y008510D01*
X036221Y008621D01*
X036221Y008779D01*
X036205Y008795D01*
X036291Y008881D01*
X036291Y009039D01*
X036180Y009150D01*
X036022Y009150D01*
X035911Y009039D01*
X035911Y008881D01*
X035927Y008865D01*
X035841Y008779D01*
X035841Y008621D01*
X035952Y008510D01*
X035934Y008529D02*
X033308Y008529D01*
X033311Y008627D02*
X035841Y008627D01*
X035841Y008726D02*
X033274Y008726D01*
X033352Y008810D02*
X033510Y008810D01*
X033621Y008921D01*
X033621Y009079D01*
X033510Y009190D01*
X033352Y009190D01*
X033241Y009079D01*
X033241Y008921D01*
X033352Y008810D01*
X033338Y008824D02*
X033121Y008824D01*
X033077Y008923D02*
X033241Y008923D01*
X033241Y009021D02*
X027501Y009021D01*
X027501Y009011D02*
X027501Y009169D01*
X027401Y009269D01*
X027401Y009419D01*
X027290Y009530D01*
X027132Y009530D01*
X027021Y009419D01*
X027021Y009280D01*
X026982Y009280D01*
X026871Y009169D01*
X026871Y009011D01*
X026982Y008900D01*
X027140Y008900D01*
X027186Y008946D01*
X027232Y008900D01*
X027390Y008900D01*
X027501Y009011D01*
X027501Y009120D02*
X033282Y009120D01*
X033580Y009120D02*
X035992Y009120D01*
X035911Y009021D02*
X033621Y009021D01*
X033621Y008923D02*
X035911Y008923D01*
X035886Y008824D02*
X033524Y008824D01*
X032835Y008627D02*
X024124Y008627D01*
X024107Y008611D02*
X024220Y008723D01*
X024281Y008870D01*
X024281Y009030D01*
X024220Y009177D01*
X024107Y009289D01*
X023960Y009350D01*
X023801Y009350D01*
X023654Y009289D01*
X023542Y009177D01*
X023481Y009030D01*
X023481Y008870D01*
X023542Y008723D01*
X023654Y008611D01*
X023801Y008550D01*
X023960Y008550D01*
X024107Y008611D01*
X024221Y008726D02*
X032741Y008726D01*
X032741Y008824D02*
X024262Y008824D01*
X024281Y008923D02*
X026570Y008923D01*
X026592Y008900D02*
X026750Y008900D01*
X026861Y009011D01*
X026861Y009169D01*
X026750Y009280D01*
X026592Y009280D01*
X026481Y009169D01*
X026481Y009011D01*
X026592Y008900D01*
X026481Y009021D02*
X024281Y009021D01*
X024244Y009120D02*
X026481Y009120D01*
X026530Y009218D02*
X024179Y009218D01*
X024041Y009317D02*
X027021Y009317D01*
X027021Y009415D02*
X020481Y009415D01*
X020481Y009439D02*
X020370Y009550D01*
X020212Y009550D01*
X020101Y009439D01*
X020101Y009281D01*
X020212Y009170D01*
X020370Y009170D01*
X020481Y009281D01*
X020481Y009439D01*
X020406Y009514D02*
X025289Y009514D01*
X025322Y009480D02*
X025480Y009480D01*
X025591Y009591D01*
X025591Y009749D01*
X025480Y009860D01*
X025322Y009860D01*
X025211Y009749D01*
X025211Y009591D01*
X025322Y009480D01*
X025211Y009612D02*
X024109Y009612D01*
X024107Y009611D02*
X024220Y009723D01*
X024281Y009870D01*
X024281Y010030D01*
X024220Y010177D01*
X024107Y010289D01*
X023960Y010350D01*
X023801Y010350D01*
X023654Y010289D01*
X023542Y010177D01*
X023481Y010030D01*
X023481Y009870D01*
X023542Y009723D01*
X023654Y009611D01*
X023801Y009550D01*
X023960Y009550D01*
X024107Y009611D01*
X024207Y009711D02*
X025211Y009711D01*
X025271Y009809D02*
X024255Y009809D01*
X024281Y009908D02*
X026870Y009908D01*
X026841Y009879D02*
X026841Y009721D01*
X026952Y009610D01*
X027110Y009610D01*
X027221Y009721D01*
X027221Y009810D01*
X027340Y009810D01*
X027451Y009921D01*
X027451Y010079D01*
X027340Y010190D01*
X027182Y010190D01*
X027071Y010079D01*
X027071Y009990D01*
X026952Y009990D01*
X026841Y009879D01*
X026841Y009809D02*
X025531Y009809D01*
X025591Y009711D02*
X026852Y009711D01*
X026950Y009612D02*
X025591Y009612D01*
X025513Y009514D02*
X027116Y009514D01*
X027112Y009612D02*
X032491Y009612D01*
X032491Y009571D02*
X032602Y009460D01*
X032760Y009460D01*
X032871Y009571D01*
X032871Y009729D01*
X032760Y009840D01*
X032602Y009840D01*
X032491Y009729D01*
X032491Y009571D01*
X032549Y009514D02*
X027306Y009514D01*
X027401Y009415D02*
X036197Y009415D01*
X036202Y009410D02*
X036360Y009410D01*
X036471Y009521D01*
X036471Y009679D01*
X036360Y009790D01*
X036202Y009790D01*
X036091Y009679D01*
X036091Y009521D01*
X036202Y009410D01*
X036099Y009514D02*
X032813Y009514D01*
X032871Y009612D02*
X034820Y009612D01*
X034832Y009600D02*
X034721Y009711D01*
X034721Y009869D01*
X034832Y009980D01*
X034990Y009980D01*
X035101Y009869D01*
X035101Y009711D01*
X034990Y009600D01*
X034832Y009600D01*
X034722Y009711D02*
X032871Y009711D01*
X032791Y009809D02*
X034721Y009809D01*
X034760Y009908D02*
X027437Y009908D01*
X027451Y010006D02*
X031406Y010006D01*
X031391Y010021D02*
X031502Y009910D01*
X031660Y009910D01*
X031731Y009981D01*
X031802Y009910D01*
X031960Y009910D01*
X032071Y010021D01*
X032071Y010179D01*
X031960Y010290D01*
X031802Y010290D01*
X031731Y010219D01*
X031660Y010290D01*
X031502Y010290D01*
X031391Y010179D01*
X031391Y010021D01*
X031391Y010105D02*
X027425Y010105D01*
X027097Y010105D02*
X024250Y010105D01*
X024281Y010006D02*
X027071Y010006D01*
X027221Y009809D02*
X032571Y009809D01*
X032491Y009711D02*
X027210Y009711D01*
X027401Y009317D02*
X041056Y009317D01*
X041056Y009415D02*
X036365Y009415D01*
X036463Y009514D02*
X041056Y009514D01*
X041056Y009612D02*
X036471Y009612D01*
X036439Y009711D02*
X041056Y009711D01*
X041056Y009809D02*
X035101Y009809D01*
X035100Y009711D02*
X036123Y009711D01*
X036091Y009612D02*
X035002Y009612D01*
X035062Y009908D02*
X041056Y009908D01*
X041056Y010006D02*
X032456Y010006D01*
X032471Y010021D02*
X032471Y010110D01*
X032560Y010110D01*
X032671Y010221D01*
X032671Y010379D01*
X032560Y010490D01*
X032402Y010490D01*
X032291Y010379D01*
X032291Y010290D01*
X032202Y010290D01*
X032091Y010179D01*
X032091Y010021D01*
X032202Y009910D01*
X032360Y009910D01*
X032471Y010021D01*
X032471Y010105D02*
X041056Y010105D01*
X041056Y010203D02*
X034853Y010203D01*
X034810Y010160D02*
X034921Y010271D01*
X034921Y010429D01*
X034810Y010540D01*
X034652Y010540D01*
X034541Y010429D01*
X034541Y010271D01*
X034652Y010160D01*
X034810Y010160D01*
X034921Y010302D02*
X041056Y010302D01*
X041056Y010400D02*
X034921Y010400D01*
X034851Y010499D02*
X041056Y010499D01*
X041056Y010597D02*
X029171Y010597D01*
X029171Y010521D02*
X029171Y010679D01*
X029060Y010790D01*
X028902Y010790D01*
X028791Y010679D01*
X028791Y010580D01*
X028702Y010580D01*
X028591Y010469D01*
X028591Y010311D01*
X028702Y010200D01*
X028860Y010200D01*
X028971Y010311D01*
X028971Y010410D01*
X029060Y010410D01*
X029171Y010521D01*
X029148Y010499D02*
X034611Y010499D01*
X034541Y010400D02*
X032650Y010400D01*
X032671Y010302D02*
X034541Y010302D01*
X034609Y010203D02*
X032653Y010203D01*
X032291Y010302D02*
X028961Y010302D01*
X028971Y010400D02*
X032312Y010400D01*
X032115Y010203D02*
X032047Y010203D01*
X032071Y010105D02*
X032091Y010105D01*
X032106Y010006D02*
X032056Y010006D01*
X031415Y010203D02*
X028863Y010203D01*
X028699Y010203D02*
X024194Y010203D01*
X024077Y010302D02*
X028601Y010302D01*
X028591Y010400D02*
X013671Y010400D01*
X013671Y010429D02*
X013560Y010540D01*
X013402Y010540D01*
X013291Y010429D01*
X013291Y010271D01*
X013402Y010160D01*
X013560Y010160D01*
X013671Y010271D01*
X013671Y010429D01*
X013601Y010499D02*
X028621Y010499D01*
X028487Y010597D02*
X028791Y010597D01*
X028808Y010696D02*
X028585Y010696D01*
X028591Y010701D02*
X028480Y010590D01*
X028322Y010590D01*
X028211Y010701D01*
X028211Y010859D01*
X028322Y010970D01*
X028480Y010970D01*
X028591Y010859D01*
X028591Y010701D01*
X028591Y010794D02*
X028888Y010794D01*
X028892Y010790D02*
X029050Y010790D01*
X029161Y010901D01*
X029161Y011059D01*
X029050Y011170D01*
X028892Y011170D01*
X028781Y011059D01*
X028781Y010901D01*
X028892Y010790D01*
X028790Y010893D02*
X028557Y010893D01*
X028630Y010980D02*
X028472Y010980D01*
X028361Y011091D01*
X028361Y011249D01*
X028472Y011360D01*
X028630Y011360D01*
X028741Y011249D01*
X028741Y011091D01*
X028630Y010980D01*
X028641Y010991D02*
X028781Y010991D01*
X028812Y011090D02*
X028739Y011090D01*
X028741Y011188D02*
X033374Y011188D01*
X033402Y011160D02*
X033560Y011160D01*
X033671Y011271D01*
X033671Y011429D01*
X033560Y011540D01*
X033402Y011540D01*
X033291Y011429D01*
X033291Y011271D01*
X033402Y011160D01*
X033291Y011287D02*
X028703Y011287D01*
X028399Y011287D02*
X026921Y011287D01*
X026921Y011329D02*
X026810Y011440D01*
X026652Y011440D01*
X026541Y011329D01*
X026541Y011171D01*
X026652Y011060D01*
X026810Y011060D01*
X026921Y011171D01*
X026921Y011329D01*
X026865Y011385D02*
X033291Y011385D01*
X033346Y011484D02*
X016071Y011484D01*
X016071Y011421D02*
X016071Y011579D01*
X015960Y011690D01*
X015802Y011690D01*
X015691Y011579D01*
X015691Y011421D01*
X015802Y011310D01*
X015960Y011310D01*
X016071Y011421D01*
X016035Y011385D02*
X018857Y011385D01*
X018831Y011359D02*
X018831Y011201D01*
X018942Y011090D01*
X019100Y011090D01*
X019211Y011201D01*
X019211Y011359D01*
X019100Y011470D01*
X018942Y011470D01*
X018831Y011359D01*
X018831Y011287D02*
X010551Y011287D01*
X010551Y011261D02*
X010480Y011190D01*
X010551Y011119D01*
X010551Y010961D01*
X010440Y010850D01*
X010282Y010850D01*
X010171Y010961D01*
X010171Y011119D01*
X010242Y011190D01*
X010171Y011261D01*
X010171Y011419D01*
X010282Y011530D01*
X010440Y011530D01*
X010551Y011419D01*
X010551Y011261D01*
X010482Y011188D02*
X015850Y011188D01*
X015852Y011190D02*
X015741Y011079D01*
X015741Y010921D01*
X015852Y010810D01*
X016010Y010810D01*
X016121Y010921D01*
X016121Y011079D01*
X016010Y011190D01*
X015852Y011190D01*
X015752Y011090D02*
X010551Y011090D01*
X010551Y010991D02*
X015741Y010991D01*
X015770Y010893D02*
X010482Y010893D01*
X010240Y010893D02*
X006969Y010893D01*
X006981Y010991D02*
X010171Y010991D01*
X010171Y011090D02*
X006981Y011090D01*
X006981Y011188D02*
X010240Y011188D01*
X010171Y011287D02*
X006981Y011287D01*
X006981Y011385D02*
X009727Y011385D01*
X009691Y011421D02*
X009802Y011310D01*
X009960Y011310D01*
X010071Y011421D01*
X010071Y011579D01*
X009960Y011690D01*
X009802Y011690D01*
X009691Y011579D01*
X009691Y011421D01*
X009691Y011484D02*
X006981Y011484D01*
X006981Y011582D02*
X009694Y011582D01*
X009793Y011681D02*
X007040Y011681D01*
X007041Y011779D02*
X009333Y011779D01*
X009352Y011760D02*
X009510Y011760D01*
X009621Y011871D01*
X009621Y012029D01*
X009510Y012140D01*
X009352Y012140D01*
X009241Y012029D01*
X009241Y011871D01*
X009352Y011760D01*
X009241Y011878D02*
X007002Y011878D01*
X006758Y011976D02*
X009241Y011976D01*
X009287Y012075D02*
X006660Y012075D01*
X007052Y012760D02*
X007210Y012760D01*
X007321Y012871D01*
X007321Y013029D01*
X007210Y013140D01*
X007052Y013140D01*
X006941Y013029D01*
X006941Y012871D01*
X007052Y012760D01*
X007048Y012764D02*
X004806Y012764D01*
X004806Y012666D02*
X005238Y012666D01*
X005262Y012690D02*
X005151Y012579D01*
X005151Y012421D01*
X005262Y012310D01*
X005420Y012310D01*
X005531Y012421D01*
X005531Y012579D01*
X005420Y012690D01*
X005262Y012690D01*
X005151Y012567D02*
X004806Y012567D01*
X004806Y012469D02*
X005151Y012469D01*
X005202Y012370D02*
X004806Y012370D01*
X004806Y012272D02*
X015191Y012272D01*
X015191Y012279D02*
X015191Y012121D01*
X015302Y012010D01*
X015460Y012010D01*
X015571Y012121D01*
X015571Y012279D01*
X015460Y012390D01*
X015302Y012390D01*
X015191Y012279D01*
X015191Y012173D02*
X004806Y012173D01*
X005480Y012370D02*
X015282Y012370D01*
X015480Y012370D02*
X022717Y012370D01*
X022708Y012367D02*
X022645Y012335D01*
X022588Y012293D01*
X022538Y012243D01*
X022496Y012186D01*
X022464Y012123D01*
X022442Y012055D01*
X022433Y012000D01*
X022831Y012000D01*
X022831Y012398D01*
X022776Y012389D01*
X022708Y012367D01*
X022831Y012370D02*
X022931Y012370D01*
X022931Y012398D02*
X022931Y012000D01*
X023329Y012000D01*
X023320Y012055D01*
X023298Y012123D01*
X023266Y012186D01*
X023224Y012243D01*
X023174Y012293D01*
X023117Y012335D01*
X023054Y012367D01*
X022986Y012389D01*
X022931Y012398D01*
X022931Y012502D02*
X022986Y012511D01*
X023054Y012533D01*
X023117Y012565D01*
X023174Y012607D01*
X023224Y012657D01*
X023266Y012714D01*
X023298Y012777D01*
X023320Y012845D01*
X023329Y012900D01*
X022931Y012900D01*
X022931Y013000D01*
X023329Y013000D01*
X023320Y013055D01*
X023298Y013123D01*
X023266Y013186D01*
X023224Y013243D01*
X023174Y013293D01*
X023117Y013335D01*
X023054Y013367D01*
X022986Y013389D01*
X022931Y013398D01*
X022931Y013000D01*
X022831Y013000D01*
X022831Y013398D01*
X022776Y013389D01*
X022708Y013367D01*
X022645Y013335D01*
X022588Y013293D01*
X022538Y013243D01*
X022496Y013186D01*
X022464Y013123D01*
X022442Y013055D01*
X022433Y013000D01*
X022831Y013000D01*
X022831Y012900D01*
X022931Y012900D01*
X022931Y012502D01*
X022931Y012567D02*
X022831Y012567D01*
X022831Y012502D02*
X022831Y012900D01*
X022433Y012900D01*
X022442Y012845D01*
X022464Y012777D01*
X022496Y012714D01*
X022538Y012657D01*
X022588Y012607D01*
X022645Y012565D01*
X022708Y012533D01*
X022776Y012511D01*
X022831Y012502D01*
X022831Y012666D02*
X022931Y012666D01*
X022931Y012764D02*
X022831Y012764D01*
X022831Y012863D02*
X022931Y012863D01*
X022931Y012961D02*
X023481Y012961D01*
X023481Y013030D02*
X023481Y012870D01*
X023542Y012723D01*
X023654Y012611D01*
X023801Y012550D01*
X023960Y012550D01*
X024107Y012611D01*
X024220Y012723D01*
X024281Y012870D01*
X024281Y013030D01*
X024220Y013177D01*
X024107Y013289D01*
X023960Y013350D01*
X023801Y013350D01*
X023654Y013289D01*
X023542Y013177D01*
X023481Y013030D01*
X023493Y013060D02*
X023318Y013060D01*
X023280Y013158D02*
X023534Y013158D01*
X023622Y013257D02*
X023211Y013257D01*
X023077Y013355D02*
X037601Y013355D01*
X037601Y013376D02*
X037601Y013224D01*
X037659Y013085D01*
X037766Y012978D01*
X037905Y012920D01*
X038056Y012920D01*
X038196Y012978D01*
X038303Y013085D01*
X038361Y013224D01*
X038361Y013376D01*
X038303Y013515D01*
X038196Y013622D01*
X038056Y013680D01*
X037905Y013680D01*
X037766Y013622D01*
X037659Y013515D01*
X037601Y013376D01*
X037633Y013454D02*
X017596Y013454D01*
X017560Y013490D02*
X017471Y013490D01*
X017471Y013589D01*
X017360Y013700D01*
X017202Y013700D01*
X017091Y013589D01*
X017091Y013431D01*
X017202Y013320D01*
X017291Y013320D01*
X017291Y013221D01*
X017402Y013110D01*
X017560Y013110D01*
X017671Y013221D01*
X017671Y013379D01*
X017560Y013490D01*
X017471Y013552D02*
X019060Y013552D01*
X019062Y013550D02*
X019220Y013550D01*
X019331Y013661D01*
X019331Y013819D01*
X019220Y013930D01*
X019062Y013930D01*
X018951Y013819D01*
X018951Y013661D01*
X019062Y013550D01*
X018962Y013651D02*
X017409Y013651D01*
X017153Y013651D02*
X007219Y013651D01*
X007210Y013660D02*
X007052Y013660D01*
X006941Y013549D01*
X006941Y013391D01*
X007052Y013280D01*
X007210Y013280D01*
X007321Y013391D01*
X007321Y013549D01*
X007210Y013660D01*
X007318Y013552D02*
X015864Y013552D01*
X015902Y013590D02*
X015791Y013479D01*
X015791Y013321D01*
X015902Y013210D01*
X016060Y013210D01*
X016171Y013321D01*
X016171Y013479D01*
X016060Y013590D01*
X015902Y013590D01*
X015791Y013454D02*
X014876Y013454D01*
X014860Y013470D02*
X014702Y013470D01*
X014591Y013359D01*
X014591Y013201D01*
X014702Y013090D01*
X014860Y013090D01*
X014971Y013201D01*
X014971Y013359D01*
X014860Y013470D01*
X014971Y013355D02*
X015791Y013355D01*
X015856Y013257D02*
X014971Y013257D01*
X014928Y013158D02*
X017354Y013158D01*
X017291Y013257D02*
X016106Y013257D01*
X016171Y013355D02*
X017167Y013355D01*
X017091Y013454D02*
X016171Y013454D01*
X016098Y013552D02*
X017091Y013552D01*
X017671Y013355D02*
X022685Y013355D01*
X022831Y013355D02*
X022931Y013355D01*
X022931Y013257D02*
X022831Y013257D01*
X022831Y013158D02*
X022931Y013158D01*
X022931Y013060D02*
X022831Y013060D01*
X022831Y012961D02*
X019311Y012961D01*
X019331Y012981D02*
X019220Y012870D01*
X019062Y012870D01*
X018951Y012981D01*
X018951Y013139D01*
X019062Y013250D01*
X019220Y013250D01*
X019331Y013139D01*
X019331Y012981D01*
X019331Y013060D02*
X022443Y013060D01*
X022482Y013158D02*
X019312Y013158D01*
X018970Y013158D02*
X017608Y013158D01*
X017671Y013257D02*
X022551Y013257D01*
X022654Y013611D02*
X022801Y013550D01*
X022960Y013550D01*
X023107Y013611D01*
X023220Y013723D01*
X023281Y013870D01*
X023281Y014030D01*
X023220Y014177D01*
X023107Y014289D01*
X022960Y014350D01*
X022801Y014350D01*
X022654Y014289D01*
X022542Y014177D01*
X022481Y014030D01*
X022481Y013870D01*
X022542Y013723D01*
X022654Y013611D01*
X022615Y013651D02*
X019320Y013651D01*
X019331Y013749D02*
X022531Y013749D01*
X022490Y013848D02*
X019302Y013848D01*
X019220Y014010D02*
X019062Y014010D01*
X018951Y014121D01*
X018951Y014279D01*
X019062Y014390D01*
X019220Y014390D01*
X019331Y014279D01*
X019331Y014121D01*
X019220Y014010D01*
X019254Y014045D02*
X022487Y014045D01*
X022481Y013946D02*
X014239Y013946D01*
X014232Y013939D02*
X014282Y013989D01*
X014323Y014046D01*
X014355Y014108D01*
X014377Y014175D01*
X014386Y014232D01*
X013989Y014232D01*
X013989Y014328D01*
X014386Y014328D01*
X014377Y014385D01*
X014355Y014452D01*
X014323Y014514D01*
X014282Y014571D01*
X014232Y014621D01*
X014175Y014662D01*
X014112Y014694D01*
X014046Y014716D01*
X013989Y014725D01*
X013989Y014328D01*
X013892Y014328D01*
X013892Y014232D01*
X013496Y014232D01*
X013505Y014175D01*
X013527Y014108D01*
X013559Y014046D01*
X013600Y013989D01*
X013650Y013939D01*
X013707Y013898D01*
X013769Y013866D01*
X013836Y013844D01*
X013892Y013835D01*
X013892Y014232D01*
X013989Y014232D01*
X013989Y013835D01*
X014046Y013844D01*
X014112Y013866D01*
X014175Y013898D01*
X014232Y013939D01*
X014322Y014045D02*
X019028Y014045D01*
X018951Y014143D02*
X014366Y014143D01*
X014384Y014340D02*
X016272Y014340D01*
X016302Y014310D02*
X016460Y014310D01*
X016571Y014421D01*
X016571Y014579D01*
X016460Y014690D01*
X016371Y014690D01*
X016371Y014779D01*
X016260Y014890D01*
X016102Y014890D01*
X015991Y014779D01*
X015991Y014621D01*
X016102Y014510D01*
X016191Y014510D01*
X016191Y014421D01*
X016302Y014310D01*
X016191Y014439D02*
X014359Y014439D01*
X014306Y014537D02*
X016075Y014537D01*
X015991Y014636D02*
X014212Y014636D01*
X013989Y014636D02*
X013892Y014636D01*
X013892Y014725D02*
X013836Y014716D01*
X013769Y014694D01*
X013707Y014662D01*
X013650Y014621D01*
X013600Y014571D01*
X013559Y014514D01*
X013527Y014452D01*
X013505Y014385D01*
X013496Y014328D01*
X013892Y014328D01*
X013892Y014725D01*
X013872Y014903D02*
X013726Y014964D01*
X013614Y015075D01*
X013554Y015221D01*
X013554Y015379D01*
X013614Y015525D01*
X013726Y015636D01*
X013872Y015697D01*
X014030Y015697D01*
X014176Y015636D01*
X014287Y015525D01*
X014348Y015379D01*
X014348Y015221D01*
X014287Y015075D01*
X014176Y014964D01*
X014030Y014903D01*
X013872Y014903D01*
X013805Y014931D02*
X010141Y014931D01*
X010141Y014861D02*
X010080Y014800D01*
X010141Y014739D01*
X010141Y014581D01*
X010030Y014470D01*
X009872Y014470D01*
X009761Y014581D01*
X009761Y014739D01*
X009822Y014800D01*
X009761Y014861D01*
X009761Y015019D01*
X009872Y015130D01*
X010030Y015130D01*
X010141Y015019D01*
X010141Y014861D01*
X010112Y014833D02*
X016045Y014833D01*
X015991Y014734D02*
X010141Y014734D01*
X010141Y014636D02*
X013670Y014636D01*
X013575Y014537D02*
X010097Y014537D01*
X009805Y014537D02*
X006921Y014537D01*
X006921Y014609D02*
X006860Y014670D01*
X006901Y014711D01*
X006901Y014869D01*
X006790Y014980D01*
X006632Y014980D01*
X006521Y014869D01*
X006521Y014711D01*
X006582Y014650D01*
X006541Y014609D01*
X006541Y014451D01*
X006652Y014340D01*
X004806Y014340D01*
X004806Y014242D02*
X013892Y014242D01*
X013989Y014242D02*
X018951Y014242D01*
X019012Y014340D02*
X016490Y014340D01*
X016571Y014439D02*
X037627Y014439D01*
X037601Y014376D02*
X037601Y014224D01*
X037659Y014085D01*
X037766Y013978D01*
X037905Y013920D01*
X038056Y013920D01*
X038196Y013978D01*
X038303Y014085D01*
X038361Y014224D01*
X038361Y014376D01*
X038303Y014515D01*
X038196Y014622D01*
X038056Y014680D01*
X037905Y014680D01*
X037766Y014622D01*
X037659Y014515D01*
X037601Y014376D01*
X037601Y014340D02*
X031260Y014340D01*
X031210Y014390D02*
X031321Y014279D01*
X031321Y014121D01*
X031210Y014010D01*
X031052Y014010D01*
X030941Y014121D01*
X030941Y014279D01*
X031052Y014390D01*
X031210Y014390D01*
X031321Y014242D02*
X037601Y014242D01*
X037635Y014143D02*
X033057Y014143D01*
X033071Y014129D02*
X032960Y014240D01*
X032802Y014240D01*
X032691Y014129D01*
X032691Y013971D01*
X032802Y013860D01*
X032960Y013860D01*
X033071Y013971D01*
X033071Y014129D01*
X033071Y014045D02*
X037699Y014045D01*
X037842Y013946D02*
X033046Y013946D01*
X032716Y013946D02*
X032446Y013946D01*
X032471Y013971D02*
X032360Y013860D01*
X032202Y013860D01*
X032091Y013971D01*
X032091Y014129D01*
X032202Y014240D01*
X032360Y014240D01*
X032471Y014129D01*
X032471Y013971D01*
X032471Y014045D02*
X032691Y014045D01*
X032705Y014143D02*
X032457Y014143D01*
X032105Y014143D02*
X031321Y014143D01*
X031244Y014045D02*
X032091Y014045D01*
X032116Y013946D02*
X024281Y013946D01*
X024281Y013870D02*
X024281Y014030D01*
X024220Y014177D01*
X024107Y014289D01*
X023960Y014350D01*
X023801Y014350D01*
X023654Y014289D01*
X023542Y014177D01*
X023481Y014030D01*
X023481Y013870D01*
X023542Y013723D01*
X023654Y013611D01*
X023801Y013550D01*
X023960Y013550D01*
X024107Y013611D01*
X024220Y013723D01*
X024281Y013870D01*
X024271Y013848D02*
X041056Y013848D01*
X041056Y013946D02*
X040119Y013946D01*
X040056Y013920D02*
X040196Y013978D01*
X040303Y014085D01*
X040361Y014224D01*
X040361Y014376D01*
X040303Y014515D01*
X040196Y014622D01*
X040056Y014680D01*
X039905Y014680D01*
X039766Y014622D01*
X039659Y014515D01*
X039601Y014376D01*
X039601Y014224D01*
X039659Y014085D01*
X039766Y013978D01*
X039905Y013920D01*
X040056Y013920D01*
X039842Y013946D02*
X039119Y013946D01*
X039056Y013920D02*
X039196Y013978D01*
X039303Y014085D01*
X039361Y014224D01*
X039361Y014376D01*
X039303Y014515D01*
X039196Y014622D01*
X039056Y014680D01*
X038905Y014680D01*
X038766Y014622D01*
X038659Y014515D01*
X038601Y014376D01*
X038601Y014224D01*
X038659Y014085D01*
X038766Y013978D01*
X038905Y013920D01*
X039056Y013920D01*
X038842Y013946D02*
X038119Y013946D01*
X038263Y014045D02*
X038699Y014045D01*
X038635Y014143D02*
X038327Y014143D01*
X038361Y014242D02*
X038601Y014242D01*
X038601Y014340D02*
X038361Y014340D01*
X038335Y014439D02*
X038627Y014439D01*
X038681Y014537D02*
X038281Y014537D01*
X038164Y014636D02*
X038798Y014636D01*
X039164Y014636D02*
X039798Y014636D01*
X039681Y014537D02*
X039281Y014537D01*
X039335Y014439D02*
X039627Y014439D01*
X039601Y014340D02*
X039361Y014340D01*
X039361Y014242D02*
X039601Y014242D01*
X039635Y014143D02*
X039327Y014143D01*
X039263Y014045D02*
X039699Y014045D01*
X039905Y013680D02*
X039766Y013622D01*
X039659Y013515D01*
X039601Y013376D01*
X039601Y013224D01*
X039659Y013085D01*
X039766Y012978D01*
X039905Y012920D01*
X040056Y012920D01*
X040196Y012978D01*
X040303Y013085D01*
X040361Y013224D01*
X040361Y013376D01*
X040303Y013515D01*
X040196Y013622D01*
X040056Y013680D01*
X039905Y013680D01*
X039834Y013651D02*
X039128Y013651D01*
X039196Y013622D02*
X039056Y013680D01*
X038905Y013680D01*
X038766Y013622D01*
X038659Y013515D01*
X038601Y013376D01*
X038601Y013224D01*
X038659Y013085D01*
X038766Y012978D01*
X038905Y012920D01*
X039056Y012920D01*
X039196Y012978D01*
X039303Y013085D01*
X039361Y013224D01*
X039361Y013376D01*
X039303Y013515D01*
X039196Y013622D01*
X039266Y013552D02*
X039696Y013552D01*
X039633Y013454D02*
X039329Y013454D01*
X039361Y013355D02*
X039601Y013355D01*
X039601Y013257D02*
X039361Y013257D01*
X039333Y013158D02*
X039628Y013158D01*
X039684Y013060D02*
X039278Y013060D01*
X039156Y012961D02*
X039806Y012961D01*
X040156Y012961D02*
X041056Y012961D01*
X041056Y012863D02*
X035312Y012863D01*
X035321Y012871D02*
X035210Y012760D01*
X035121Y012760D01*
X035121Y012671D01*
X035010Y012560D01*
X034852Y012560D01*
X034741Y012671D01*
X034741Y012829D01*
X034852Y012940D01*
X034941Y012940D01*
X034941Y013029D01*
X035052Y013140D01*
X035210Y013140D01*
X035321Y013029D01*
X035321Y012871D01*
X035321Y012961D02*
X037806Y012961D01*
X037684Y013060D02*
X035290Y013060D01*
X035214Y012764D02*
X041056Y012764D01*
X041056Y012666D02*
X035115Y012666D01*
X035017Y012567D02*
X041056Y012567D01*
X041056Y012469D02*
X030891Y012469D01*
X030921Y012439D02*
X030921Y012310D01*
X031010Y012310D01*
X031121Y012199D01*
X031121Y012041D01*
X031010Y011930D01*
X030852Y011930D01*
X030741Y012041D01*
X030741Y012170D01*
X030652Y012170D01*
X030541Y012281D01*
X030541Y012439D01*
X030652Y012550D01*
X030810Y012550D01*
X030921Y012439D01*
X030921Y012370D02*
X041056Y012370D01*
X041056Y012272D02*
X031048Y012272D01*
X031121Y012173D02*
X041056Y012173D01*
X041056Y012075D02*
X034665Y012075D01*
X034711Y012029D02*
X034600Y012140D01*
X034442Y012140D01*
X034331Y012029D01*
X034331Y011871D01*
X034442Y011760D01*
X034551Y011760D01*
X034551Y011671D01*
X034662Y011560D01*
X034791Y011560D01*
X034791Y011471D01*
X034902Y011360D01*
X035060Y011360D01*
X035171Y011471D01*
X035171Y011629D01*
X035060Y011740D01*
X034931Y011740D01*
X034931Y011829D01*
X034820Y011940D01*
X034711Y011940D01*
X034711Y012029D01*
X034711Y011976D02*
X041056Y011976D01*
X041056Y011878D02*
X034882Y011878D01*
X034931Y011779D02*
X041056Y011779D01*
X041056Y011681D02*
X035119Y011681D01*
X035171Y011582D02*
X041056Y011582D01*
X041056Y011484D02*
X038216Y011484D01*
X038271Y011429D02*
X038160Y011540D01*
X038002Y011540D01*
X037891Y011429D01*
X037891Y011271D01*
X038002Y011160D01*
X038160Y011160D01*
X038271Y011271D01*
X038271Y011429D01*
X038271Y011385D02*
X041056Y011385D01*
X041056Y011287D02*
X038271Y011287D01*
X038188Y011188D02*
X041056Y011188D01*
X041056Y011090D02*
X035161Y011090D01*
X035161Y011149D02*
X035050Y011260D01*
X034892Y011260D01*
X034781Y011149D01*
X034781Y011140D01*
X034652Y011140D01*
X034541Y011029D01*
X034541Y010871D01*
X034652Y010760D01*
X034791Y010760D01*
X034791Y010721D01*
X034902Y010610D01*
X035060Y010610D01*
X035171Y010721D01*
X035171Y010879D01*
X035110Y010940D01*
X035161Y010991D01*
X035161Y011149D01*
X035122Y011188D02*
X037974Y011188D01*
X037891Y011287D02*
X033671Y011287D01*
X033671Y011385D02*
X034877Y011385D01*
X034791Y011484D02*
X033616Y011484D01*
X034331Y011878D02*
X027371Y011878D01*
X027371Y011871D02*
X027260Y011760D01*
X027102Y011760D01*
X026991Y011871D01*
X026991Y012029D01*
X027102Y012140D01*
X027260Y012140D01*
X027371Y012029D01*
X027371Y011871D01*
X027371Y011976D02*
X030806Y011976D01*
X030741Y012075D02*
X027325Y012075D01*
X027163Y012173D02*
X030649Y012173D01*
X030551Y012272D02*
X027261Y012272D01*
X027261Y012271D02*
X027150Y012160D01*
X026992Y012160D01*
X026881Y012271D01*
X026881Y012429D01*
X026992Y012540D01*
X027150Y012540D01*
X027261Y012429D01*
X027261Y012271D01*
X027261Y012370D02*
X030541Y012370D01*
X030571Y012469D02*
X027221Y012469D01*
X026921Y012469D02*
X005531Y012469D01*
X005531Y012567D02*
X022642Y012567D01*
X022531Y012666D02*
X018375Y012666D01*
X018360Y012650D02*
X018471Y012761D01*
X018471Y012919D01*
X018360Y013030D01*
X018202Y013030D01*
X018151Y012979D01*
X018100Y013030D01*
X017942Y013030D01*
X017831Y012919D01*
X017831Y012761D01*
X017942Y012650D01*
X018100Y012650D01*
X018151Y012701D01*
X018202Y012650D01*
X018360Y012650D01*
X018471Y012764D02*
X022471Y012764D01*
X022439Y012863D02*
X018471Y012863D01*
X018429Y012961D02*
X018971Y012961D01*
X018951Y013060D02*
X007290Y013060D01*
X007321Y012961D02*
X017873Y012961D01*
X017831Y012863D02*
X007312Y012863D01*
X007214Y012764D02*
X017831Y012764D01*
X017927Y012666D02*
X005444Y012666D01*
X004806Y012863D02*
X006950Y012863D01*
X006941Y012961D02*
X004806Y012961D01*
X004806Y013060D02*
X006972Y013060D01*
X006977Y013355D02*
X004806Y013355D01*
X004806Y013257D02*
X014591Y013257D01*
X014591Y013355D02*
X007285Y013355D01*
X007321Y013454D02*
X014686Y013454D01*
X014634Y013158D02*
X004806Y013158D01*
X004806Y013454D02*
X006941Y013454D01*
X006944Y013552D02*
X004806Y013552D01*
X004806Y013651D02*
X007043Y013651D01*
X006810Y014340D02*
X006652Y014340D01*
X006554Y014439D02*
X004806Y014439D01*
X004806Y014537D02*
X006541Y014537D01*
X006568Y014636D02*
X005765Y014636D01*
X005710Y014580D02*
X005821Y014691D01*
X005821Y014849D01*
X005710Y014960D01*
X005552Y014960D01*
X005441Y014849D01*
X005441Y014691D01*
X005552Y014580D01*
X005710Y014580D01*
X005821Y014734D02*
X006521Y014734D01*
X006521Y014833D02*
X005821Y014833D01*
X005739Y014931D02*
X006583Y014931D01*
X006630Y015120D02*
X006741Y015231D01*
X006741Y015389D01*
X006630Y015500D01*
X006472Y015500D01*
X006361Y015389D01*
X006361Y015231D01*
X006472Y015120D01*
X006630Y015120D01*
X006638Y015128D02*
X009870Y015128D01*
X009772Y015030D02*
X004806Y015030D01*
X004806Y015128D02*
X006464Y015128D01*
X006366Y015227D02*
X004806Y015227D01*
X004806Y015325D02*
X006361Y015325D01*
X006396Y015424D02*
X004806Y015424D01*
X004806Y015522D02*
X013613Y015522D01*
X013573Y015424D02*
X006706Y015424D01*
X006741Y015325D02*
X013554Y015325D01*
X013554Y015227D02*
X006736Y015227D01*
X006839Y014931D02*
X009761Y014931D01*
X009790Y014833D02*
X006901Y014833D01*
X006901Y014734D02*
X009761Y014734D01*
X009761Y014636D02*
X006894Y014636D01*
X006921Y014609D02*
X006921Y014451D01*
X006810Y014340D01*
X013498Y014340D01*
X013523Y014439D02*
X006908Y014439D01*
X005497Y014636D02*
X004806Y014636D01*
X004806Y014734D02*
X005441Y014734D01*
X005441Y014833D02*
X004806Y014833D01*
X004806Y014931D02*
X005523Y014931D01*
X005480Y015650D02*
X005322Y015650D01*
X005211Y015761D01*
X005211Y015919D01*
X005322Y016030D01*
X005480Y016030D01*
X005591Y015919D01*
X005591Y015761D01*
X005480Y015650D01*
X005549Y015719D02*
X009761Y015719D01*
X009741Y015739D02*
X009852Y015628D01*
X010010Y015628D01*
X010121Y015739D01*
X010121Y015897D01*
X010010Y016008D01*
X009852Y016008D01*
X009741Y015897D01*
X009741Y015739D01*
X009741Y015818D02*
X005591Y015818D01*
X005591Y015916D02*
X006596Y015916D01*
X006541Y015971D02*
X006652Y015860D01*
X006810Y015860D01*
X006921Y015971D01*
X006921Y016129D01*
X006810Y016240D01*
X006652Y016240D01*
X006541Y016129D01*
X006541Y015971D01*
X006541Y016015D02*
X005495Y016015D01*
X005307Y016015D02*
X004806Y016015D01*
X004806Y016113D02*
X006541Y016113D01*
X006624Y016212D02*
X004806Y016212D01*
X004806Y016310D02*
X009791Y016310D01*
X009791Y016359D02*
X009791Y016201D01*
X009902Y016090D01*
X010060Y016090D01*
X010171Y016201D01*
X010171Y016359D01*
X010100Y016430D01*
X010171Y016501D01*
X010171Y016659D01*
X010100Y016730D01*
X010171Y016801D01*
X010171Y016959D01*
X010060Y017070D01*
X009902Y017070D01*
X009791Y016959D01*
X009791Y016801D01*
X009862Y016730D01*
X009791Y016659D01*
X009791Y016501D01*
X009862Y016430D01*
X009791Y016359D01*
X009841Y016409D02*
X006898Y016409D01*
X006941Y016451D02*
X006941Y016609D01*
X006860Y016690D01*
X006941Y016771D01*
X006941Y016929D01*
X006830Y017040D01*
X006672Y017040D01*
X006561Y016929D01*
X006561Y016771D01*
X006642Y016690D01*
X006561Y016609D01*
X006561Y016451D01*
X006672Y016340D01*
X006830Y016340D01*
X006941Y016451D01*
X006941Y016507D02*
X009791Y016507D01*
X009791Y016606D02*
X006941Y016606D01*
X006874Y016704D02*
X009836Y016704D01*
X009791Y016803D02*
X006941Y016803D01*
X006941Y016901D02*
X009791Y016901D01*
X009832Y017000D02*
X006870Y017000D01*
X006632Y017000D02*
X004806Y017000D01*
X004806Y017098D02*
X020404Y017098D01*
X020381Y017121D02*
X020492Y017010D01*
X020650Y017010D01*
X020761Y017121D01*
X020761Y017279D01*
X020650Y017390D01*
X020492Y017390D01*
X020381Y017279D01*
X020381Y017121D01*
X020381Y017197D02*
X004806Y017197D01*
X004806Y017295D02*
X020397Y017295D01*
X020745Y017295D02*
X029117Y017295D01*
X029091Y017321D02*
X029202Y017210D01*
X029360Y017210D01*
X029471Y017321D01*
X029471Y017479D01*
X029365Y017585D01*
X029401Y017621D01*
X029401Y017779D01*
X029290Y017890D01*
X029132Y017890D01*
X029021Y017779D01*
X029021Y017621D01*
X029127Y017515D01*
X029091Y017479D01*
X029091Y017321D01*
X029091Y017394D02*
X004806Y017394D01*
X004806Y017492D02*
X029104Y017492D01*
X029052Y017591D02*
X004806Y017591D01*
X004806Y017689D02*
X029021Y017689D01*
X029030Y017788D02*
X004806Y017788D01*
X004806Y017886D02*
X029128Y017886D01*
X029294Y017886D02*
X030491Y017886D01*
X030491Y017821D02*
X030602Y017710D01*
X030760Y017710D01*
X030871Y017821D01*
X030871Y017979D01*
X030760Y018090D01*
X030602Y018090D01*
X030491Y017979D01*
X030491Y017821D01*
X030525Y017788D02*
X029392Y017788D01*
X029401Y017689D02*
X034241Y017689D01*
X034241Y017729D02*
X034241Y017571D01*
X034352Y017460D01*
X034510Y017460D01*
X034621Y017571D01*
X034621Y017729D01*
X034510Y017840D01*
X034352Y017840D01*
X034241Y017729D01*
X034300Y017788D02*
X030837Y017788D01*
X030871Y017886D02*
X034991Y017886D01*
X034991Y017929D02*
X034991Y017771D01*
X035102Y017660D01*
X035260Y017660D01*
X035371Y017771D01*
X035371Y017929D01*
X035260Y018040D01*
X035102Y018040D01*
X034991Y017929D01*
X035047Y017985D02*
X030865Y017985D01*
X030767Y018083D02*
X041056Y018083D01*
X041056Y017985D02*
X035315Y017985D01*
X035371Y017886D02*
X041056Y017886D01*
X041056Y017788D02*
X035371Y017788D01*
X035289Y017689D02*
X041056Y017689D01*
X041056Y017591D02*
X034621Y017591D01*
X034621Y017689D02*
X035073Y017689D01*
X034991Y017788D02*
X034562Y017788D01*
X034542Y017492D02*
X041056Y017492D01*
X041056Y017394D02*
X029471Y017394D01*
X029458Y017492D02*
X034320Y017492D01*
X034241Y017591D02*
X029370Y017591D01*
X029445Y017295D02*
X041056Y017295D01*
X041056Y017197D02*
X033533Y017197D01*
X033510Y017220D02*
X033621Y017109D01*
X033621Y016951D01*
X033510Y016840D01*
X033352Y016840D01*
X033241Y016951D01*
X033241Y017109D01*
X033352Y017220D01*
X033510Y017220D01*
X033621Y017098D02*
X041056Y017098D01*
X041056Y017000D02*
X033621Y017000D01*
X033571Y016901D02*
X041056Y016901D01*
X041056Y016803D02*
X032897Y016803D01*
X032850Y016850D02*
X032692Y016850D01*
X032581Y016739D01*
X032581Y016581D01*
X032692Y016470D01*
X032850Y016470D01*
X032961Y016581D01*
X032961Y016739D01*
X032850Y016850D01*
X032961Y016704D02*
X037666Y016704D01*
X037641Y016679D02*
X037641Y016521D01*
X037752Y016410D01*
X037910Y016410D01*
X038021Y016521D01*
X038021Y016679D01*
X037910Y016790D01*
X037752Y016790D01*
X037641Y016679D01*
X037641Y016606D02*
X032961Y016606D01*
X032887Y016507D02*
X037655Y016507D01*
X038007Y016507D02*
X041056Y016507D01*
X041056Y016409D02*
X037213Y016409D01*
X037202Y016414D02*
X037136Y016436D01*
X037079Y016445D01*
X037079Y016048D01*
X037476Y016048D01*
X037467Y016105D01*
X037445Y016172D01*
X037413Y016234D01*
X037372Y016291D01*
X037322Y016341D01*
X037265Y016382D01*
X037202Y016414D01*
X037079Y016409D02*
X036982Y016409D01*
X036982Y016445D02*
X036926Y016436D01*
X036859Y016414D01*
X036797Y016382D01*
X036740Y016341D01*
X036690Y016291D01*
X036649Y016234D01*
X036617Y016172D01*
X036595Y016105D01*
X036586Y016048D01*
X036982Y016048D01*
X036982Y015952D01*
X036586Y015952D01*
X036595Y015895D01*
X036617Y015828D01*
X036649Y015766D01*
X036690Y015709D01*
X036740Y015659D01*
X036797Y015618D01*
X036859Y015586D01*
X036926Y015564D01*
X036982Y015555D01*
X036982Y015952D01*
X037079Y015952D01*
X037079Y016048D01*
X036982Y016048D01*
X036982Y016445D01*
X036982Y016310D02*
X037079Y016310D01*
X037079Y016212D02*
X036982Y016212D01*
X036982Y016113D02*
X037079Y016113D01*
X037079Y016015D02*
X038241Y016015D01*
X038241Y016029D02*
X038241Y015871D01*
X038352Y015760D01*
X038510Y015760D01*
X038621Y015871D01*
X038621Y016029D01*
X038510Y016140D01*
X038352Y016140D01*
X038241Y016029D01*
X038241Y015916D02*
X037470Y015916D01*
X037467Y015895D02*
X037476Y015952D01*
X037079Y015952D01*
X037079Y015555D01*
X037136Y015564D01*
X037202Y015586D01*
X037265Y015618D01*
X037322Y015659D01*
X037372Y015709D01*
X037413Y015766D01*
X037445Y015828D01*
X037467Y015895D01*
X037439Y015818D02*
X038295Y015818D01*
X038567Y015818D02*
X041056Y015818D01*
X041056Y015916D02*
X038621Y015916D01*
X038621Y016015D02*
X041056Y016015D01*
X041056Y016113D02*
X038537Y016113D01*
X038325Y016113D02*
X037464Y016113D01*
X037425Y016212D02*
X041056Y016212D01*
X041056Y016310D02*
X037353Y016310D01*
X036982Y016015D02*
X014227Y016015D01*
X014186Y015974D02*
X014297Y016085D01*
X014358Y016231D01*
X014358Y016290D01*
X014480Y016290D01*
X014591Y016401D01*
X014591Y016559D01*
X014480Y016670D01*
X014322Y016670D01*
X014242Y016590D01*
X014186Y016646D01*
X014040Y016707D01*
X013882Y016707D01*
X013736Y016646D01*
X013624Y016535D01*
X013564Y016389D01*
X013564Y016231D01*
X013624Y016085D01*
X013736Y015974D01*
X013882Y015913D01*
X014040Y015913D01*
X014186Y015974D01*
X014047Y015916D02*
X014968Y015916D01*
X015022Y015970D02*
X014911Y015859D01*
X014911Y015701D01*
X015022Y015590D01*
X015180Y015590D01*
X015291Y015701D01*
X015291Y015859D01*
X015180Y015970D01*
X015022Y015970D01*
X014911Y015818D02*
X010121Y015818D01*
X010101Y015916D02*
X013875Y015916D01*
X013695Y016015D02*
X006921Y016015D01*
X006921Y016113D02*
X009879Y016113D01*
X009791Y016212D02*
X006838Y016212D01*
X006866Y015916D02*
X009760Y015916D01*
X010083Y016113D02*
X013613Y016113D01*
X013572Y016212D02*
X010171Y016212D01*
X010171Y016310D02*
X013564Y016310D01*
X013572Y016409D02*
X010121Y016409D01*
X010171Y016507D02*
X013613Y016507D01*
X013695Y016606D02*
X010171Y016606D01*
X010126Y016704D02*
X013875Y016704D01*
X014047Y016704D02*
X032581Y016704D01*
X032581Y016606D02*
X014544Y016606D01*
X014591Y016507D02*
X032655Y016507D01*
X032521Y016329D02*
X032410Y016440D01*
X032252Y016440D01*
X032141Y016329D01*
X032141Y016171D01*
X032252Y016060D01*
X032410Y016060D01*
X032521Y016171D01*
X032521Y016329D01*
X032521Y016310D02*
X036709Y016310D01*
X036637Y016212D02*
X032521Y016212D01*
X032463Y016113D02*
X036598Y016113D01*
X036592Y015916D02*
X032484Y015916D01*
X032521Y015879D02*
X032410Y015990D01*
X032252Y015990D01*
X032141Y015879D01*
X032141Y015721D01*
X032252Y015610D01*
X032410Y015610D01*
X032521Y015721D01*
X032521Y015879D01*
X032521Y015818D02*
X036622Y015818D01*
X036683Y015719D02*
X032519Y015719D01*
X032420Y015621D02*
X036793Y015621D01*
X036982Y015621D02*
X037079Y015621D01*
X037079Y015719D02*
X036982Y015719D01*
X036982Y015818D02*
X037079Y015818D01*
X037079Y015916D02*
X036982Y015916D01*
X037269Y015621D02*
X041056Y015621D01*
X041056Y015719D02*
X037379Y015719D01*
X037360Y014990D02*
X037202Y014990D01*
X037091Y014879D01*
X037091Y014721D01*
X037202Y014610D01*
X037360Y014610D01*
X037471Y014721D01*
X037471Y014879D01*
X037360Y014990D01*
X037419Y014931D02*
X041056Y014931D01*
X041056Y014833D02*
X037471Y014833D01*
X037471Y014734D02*
X041056Y014734D01*
X041056Y014636D02*
X040164Y014636D01*
X040281Y014537D02*
X041056Y014537D01*
X041056Y014439D02*
X040335Y014439D01*
X040361Y014340D02*
X041056Y014340D01*
X041056Y014242D02*
X040361Y014242D01*
X040327Y014143D02*
X041056Y014143D01*
X041056Y014045D02*
X040263Y014045D01*
X041056Y013749D02*
X024231Y013749D01*
X024147Y013651D02*
X037834Y013651D01*
X037696Y013552D02*
X023965Y013552D01*
X023796Y013552D02*
X022965Y013552D01*
X022796Y013552D02*
X019222Y013552D01*
X018951Y013749D02*
X004806Y013749D01*
X004806Y013848D02*
X013826Y013848D01*
X013892Y013848D02*
X013989Y013848D01*
X014056Y013848D02*
X018980Y013848D01*
X019331Y014143D02*
X022528Y014143D01*
X022607Y014242D02*
X019331Y014242D01*
X019270Y014340D02*
X022777Y014340D01*
X022985Y014340D02*
X023777Y014340D01*
X023607Y014242D02*
X023155Y014242D01*
X023234Y014143D02*
X023528Y014143D01*
X023487Y014045D02*
X023275Y014045D01*
X023281Y013946D02*
X023481Y013946D01*
X023490Y013848D02*
X023271Y013848D01*
X023231Y013749D02*
X023531Y013749D01*
X023615Y013651D02*
X023147Y013651D01*
X023323Y012863D02*
X023484Y012863D01*
X023525Y012764D02*
X023291Y012764D01*
X023230Y012666D02*
X023600Y012666D01*
X023760Y012567D02*
X023119Y012567D01*
X023044Y012370D02*
X026881Y012370D01*
X026881Y012272D02*
X024125Y012272D01*
X024107Y012289D02*
X024220Y012177D01*
X024281Y012030D01*
X024281Y011870D01*
X024220Y011723D01*
X024107Y011611D01*
X023960Y011550D01*
X023801Y011550D01*
X023654Y011611D01*
X023542Y011723D01*
X023481Y011870D01*
X023481Y012030D01*
X023542Y012177D01*
X023654Y012289D01*
X023801Y012350D01*
X023960Y012350D01*
X024107Y012289D01*
X024221Y012173D02*
X026979Y012173D01*
X027037Y012075D02*
X024262Y012075D01*
X024281Y011976D02*
X025038Y011976D01*
X024991Y011929D02*
X025102Y012040D01*
X025260Y012040D01*
X025371Y011929D01*
X025371Y011771D01*
X025260Y011660D01*
X025102Y011660D01*
X024991Y011771D01*
X024991Y011929D01*
X024991Y011878D02*
X024281Y011878D01*
X024243Y011779D02*
X024991Y011779D01*
X025082Y011681D02*
X024177Y011681D01*
X024038Y011582D02*
X034640Y011582D01*
X034551Y011681D02*
X025280Y011681D01*
X025371Y011779D02*
X027083Y011779D01*
X026991Y011878D02*
X025371Y011878D01*
X025324Y011976D02*
X026991Y011976D01*
X027279Y011779D02*
X034423Y011779D01*
X034331Y011976D02*
X031056Y011976D01*
X031121Y012075D02*
X034377Y012075D01*
X034845Y012567D02*
X029017Y012567D01*
X029010Y012560D02*
X029121Y012671D01*
X029121Y012829D01*
X029010Y012940D01*
X028852Y012940D01*
X028741Y012829D01*
X028741Y012671D01*
X028852Y012560D01*
X029010Y012560D01*
X029115Y012666D02*
X029297Y012666D01*
X029352Y012610D02*
X029510Y012610D01*
X029621Y012721D01*
X029621Y012879D01*
X029510Y012990D01*
X029352Y012990D01*
X029241Y012879D01*
X029241Y012721D01*
X029352Y012610D01*
X029241Y012764D02*
X029121Y012764D01*
X029087Y012863D02*
X029241Y012863D01*
X029323Y012961D02*
X024281Y012961D01*
X024278Y012863D02*
X028775Y012863D01*
X028741Y012764D02*
X024237Y012764D01*
X024162Y012666D02*
X028747Y012666D01*
X028845Y012567D02*
X024002Y012567D01*
X023637Y012272D02*
X023196Y012272D01*
X023272Y012173D02*
X023540Y012173D01*
X023500Y012075D02*
X023314Y012075D01*
X023329Y011900D02*
X022931Y011900D01*
X022931Y012000D01*
X022831Y012000D01*
X022831Y011900D01*
X022931Y011900D01*
X022931Y011502D01*
X022986Y011511D01*
X023054Y011533D01*
X023117Y011565D01*
X023174Y011607D01*
X023224Y011657D01*
X023266Y011714D01*
X023298Y011777D01*
X023320Y011845D01*
X023329Y011900D01*
X023325Y011878D02*
X023481Y011878D01*
X023481Y011976D02*
X022931Y011976D01*
X022931Y011878D02*
X022831Y011878D01*
X022831Y011900D02*
X022831Y011502D01*
X022776Y011511D01*
X022708Y011533D01*
X022645Y011565D01*
X022588Y011607D01*
X022538Y011657D01*
X022496Y011714D01*
X022464Y011777D01*
X022442Y011845D01*
X022433Y011900D01*
X022831Y011900D01*
X022831Y011976D02*
X016271Y011976D01*
X016271Y011921D02*
X016160Y011810D01*
X016002Y011810D01*
X015891Y011921D01*
X015891Y012079D01*
X016002Y012190D01*
X016160Y012190D01*
X016271Y012079D01*
X016271Y011921D01*
X016227Y011878D02*
X022437Y011878D01*
X022463Y011779D02*
X009529Y011779D01*
X009621Y011878D02*
X015935Y011878D01*
X015891Y011976D02*
X009621Y011976D01*
X009575Y012075D02*
X015238Y012075D01*
X015524Y012075D02*
X015891Y012075D01*
X015985Y012173D02*
X015571Y012173D01*
X015571Y012272D02*
X022566Y012272D01*
X022489Y012173D02*
X016177Y012173D01*
X016271Y012075D02*
X022448Y012075D01*
X022831Y012075D02*
X022931Y012075D01*
X022931Y012173D02*
X022831Y012173D01*
X022831Y012272D02*
X022931Y012272D01*
X022931Y011779D02*
X022831Y011779D01*
X022831Y011681D02*
X022931Y011681D01*
X022931Y011582D02*
X022831Y011582D01*
X022622Y011582D02*
X016068Y011582D01*
X015969Y011681D02*
X022520Y011681D01*
X022654Y011289D02*
X022542Y011177D01*
X022481Y011030D01*
X022481Y010870D01*
X022542Y010723D01*
X022654Y010611D01*
X022801Y010550D01*
X022960Y010550D01*
X023107Y010611D01*
X023220Y010723D01*
X023281Y010870D01*
X023281Y011030D01*
X023220Y011177D01*
X023107Y011289D01*
X022960Y011350D01*
X022801Y011350D01*
X022654Y011289D01*
X022652Y011287D02*
X019211Y011287D01*
X019198Y011188D02*
X022553Y011188D01*
X022506Y011090D02*
X016110Y011090D01*
X016121Y010991D02*
X022481Y010991D01*
X022481Y010893D02*
X016092Y010893D01*
X016012Y011188D02*
X018844Y011188D01*
X019185Y011385D02*
X026597Y011385D01*
X026541Y011287D02*
X024110Y011287D01*
X024107Y011289D02*
X024220Y011177D01*
X024281Y011030D01*
X024281Y010870D01*
X024220Y010723D01*
X024107Y010611D01*
X023960Y010550D01*
X023801Y010550D01*
X023654Y010611D01*
X023542Y010723D01*
X023481Y010870D01*
X023481Y011030D01*
X023542Y011177D01*
X023654Y011289D01*
X023801Y011350D01*
X023960Y011350D01*
X024107Y011289D01*
X024209Y011188D02*
X026541Y011188D01*
X026623Y011090D02*
X024256Y011090D01*
X024281Y010991D02*
X028461Y010991D01*
X028363Y011090D02*
X026839Y011090D01*
X026921Y011188D02*
X028361Y011188D01*
X028245Y010893D02*
X024281Y010893D01*
X024249Y010794D02*
X028211Y010794D01*
X028217Y010696D02*
X024192Y010696D01*
X024074Y010597D02*
X028315Y010597D01*
X029054Y010794D02*
X034618Y010794D01*
X034541Y010893D02*
X029152Y010893D01*
X029161Y010991D02*
X034541Y010991D01*
X034602Y011090D02*
X029130Y011090D01*
X029154Y010696D02*
X034817Y010696D01*
X035145Y010696D02*
X041056Y010696D01*
X041056Y010794D02*
X035171Y010794D01*
X035157Y010893D02*
X041056Y010893D01*
X041056Y010991D02*
X035161Y010991D01*
X034820Y011188D02*
X033588Y011188D01*
X035085Y011385D02*
X037891Y011385D01*
X037946Y011484D02*
X035171Y011484D01*
X034747Y012666D02*
X032765Y012666D01*
X032760Y012660D02*
X032871Y012771D01*
X032871Y012929D01*
X032760Y013040D01*
X032602Y013040D01*
X032491Y012929D01*
X032491Y012771D01*
X032602Y012660D01*
X032760Y012660D01*
X032864Y012764D02*
X034741Y012764D01*
X034775Y012863D02*
X032871Y012863D01*
X032839Y012961D02*
X034941Y012961D01*
X034972Y013060D02*
X031790Y013060D01*
X031821Y013029D02*
X031710Y013140D01*
X031552Y013140D01*
X031441Y013029D01*
X031441Y012871D01*
X031552Y012760D01*
X031710Y012760D01*
X031821Y012871D01*
X031821Y013029D01*
X031821Y012961D02*
X032523Y012961D01*
X032491Y012863D02*
X031812Y012863D01*
X031714Y012764D02*
X032498Y012764D01*
X032597Y012666D02*
X029565Y012666D01*
X029621Y012764D02*
X031548Y012764D01*
X031450Y012863D02*
X029621Y012863D01*
X029539Y012961D02*
X031441Y012961D01*
X031472Y013060D02*
X024268Y013060D01*
X024228Y013158D02*
X037628Y013158D01*
X037601Y013257D02*
X024140Y013257D01*
X024275Y014045D02*
X031018Y014045D01*
X030941Y014143D02*
X024234Y014143D01*
X024155Y014242D02*
X030941Y014242D01*
X031002Y014340D02*
X023985Y014340D01*
X023519Y011779D02*
X023298Y011779D01*
X023241Y011681D02*
X023585Y011681D01*
X023724Y011582D02*
X023140Y011582D01*
X023110Y011287D02*
X023652Y011287D01*
X023553Y011188D02*
X023209Y011188D01*
X023256Y011090D02*
X023506Y011090D01*
X023481Y010991D02*
X023281Y010991D01*
X023281Y010893D02*
X023481Y010893D01*
X023513Y010794D02*
X023249Y010794D01*
X023192Y010696D02*
X023570Y010696D01*
X023688Y010597D02*
X023074Y010597D01*
X022960Y010350D02*
X022801Y010350D01*
X022654Y010289D01*
X022542Y010177D01*
X022481Y010030D01*
X022481Y009870D01*
X022542Y009723D01*
X022654Y009611D01*
X022801Y009550D01*
X022960Y009550D01*
X023107Y009611D01*
X023220Y009723D01*
X023281Y009870D01*
X023281Y010030D01*
X023220Y010177D01*
X023107Y010289D01*
X022960Y010350D01*
X023077Y010302D02*
X023684Y010302D01*
X023568Y010203D02*
X023194Y010203D01*
X023250Y010105D02*
X023512Y010105D01*
X023481Y010006D02*
X023281Y010006D01*
X023281Y009908D02*
X023481Y009908D01*
X023506Y009809D02*
X023255Y009809D01*
X023207Y009711D02*
X023555Y009711D01*
X023653Y009612D02*
X023109Y009612D01*
X023054Y009367D02*
X022986Y009389D01*
X022931Y009398D01*
X022931Y009000D01*
X023329Y009000D01*
X023320Y009055D01*
X023298Y009123D01*
X023266Y009186D01*
X023224Y009243D01*
X023174Y009293D01*
X023117Y009335D01*
X023054Y009367D01*
X023142Y009317D02*
X023720Y009317D01*
X023583Y009218D02*
X023242Y009218D01*
X023299Y009120D02*
X023518Y009120D01*
X023481Y009021D02*
X023325Y009021D01*
X023329Y008900D02*
X022931Y008900D01*
X022931Y009000D01*
X022831Y009000D01*
X022831Y009398D01*
X022776Y009389D01*
X022708Y009367D01*
X022645Y009335D01*
X022588Y009293D01*
X022538Y009243D01*
X022496Y009186D01*
X022464Y009123D01*
X022442Y009055D01*
X022433Y009000D01*
X022831Y009000D01*
X022831Y008900D01*
X022931Y008900D01*
X022931Y008502D01*
X022986Y008511D01*
X023054Y008533D01*
X023117Y008565D01*
X023174Y008607D01*
X023224Y008657D01*
X023266Y008714D01*
X023298Y008777D01*
X023320Y008845D01*
X023329Y008900D01*
X023313Y008824D02*
X023500Y008824D01*
X023481Y008923D02*
X022931Y008923D01*
X022931Y009021D02*
X022831Y009021D01*
X022831Y008923D02*
X019371Y008923D01*
X019371Y008979D02*
X019260Y009090D01*
X019102Y009090D01*
X018991Y008979D01*
X018991Y008821D01*
X019072Y008740D01*
X019052Y008740D01*
X018941Y008629D01*
X018941Y008471D01*
X019052Y008360D01*
X019210Y008360D01*
X019321Y008471D01*
X019321Y008629D01*
X019240Y008710D01*
X019260Y008710D01*
X019371Y008821D01*
X019371Y008979D01*
X019329Y009021D02*
X022437Y009021D01*
X022463Y009120D02*
X018196Y009120D01*
X018196Y009154D02*
X018085Y009265D01*
X017927Y009265D01*
X017816Y009154D01*
X017816Y009134D01*
X017810Y009140D01*
X017652Y009140D01*
X017541Y009029D01*
X017541Y008871D01*
X017652Y008760D01*
X017810Y008760D01*
X017921Y008871D01*
X017921Y008891D01*
X017927Y008885D01*
X018085Y008885D01*
X018196Y008996D01*
X018196Y009154D01*
X018132Y009218D02*
X020164Y009218D01*
X020101Y009317D02*
X015321Y009317D01*
X015321Y009329D02*
X015210Y009440D01*
X015052Y009440D01*
X014941Y009329D01*
X014941Y009171D01*
X015037Y009075D01*
X014941Y008979D01*
X014941Y008821D01*
X015052Y008710D01*
X015210Y008710D01*
X015321Y008821D01*
X015321Y008979D01*
X015225Y009075D01*
X015321Y009171D01*
X015321Y009329D01*
X015321Y009218D02*
X017880Y009218D01*
X017632Y009120D02*
X015269Y009120D01*
X015279Y009021D02*
X017541Y009021D01*
X017541Y008923D02*
X015321Y008923D01*
X015321Y008824D02*
X017588Y008824D01*
X017874Y008824D02*
X018991Y008824D01*
X018991Y008923D02*
X018122Y008923D01*
X018196Y009021D02*
X019033Y009021D01*
X019371Y008824D02*
X022449Y008824D01*
X022442Y008845D02*
X022464Y008777D01*
X022496Y008714D01*
X022538Y008657D01*
X022588Y008607D01*
X022645Y008565D01*
X022708Y008533D01*
X022776Y008511D01*
X022831Y008502D01*
X022831Y008900D01*
X022433Y008900D01*
X022442Y008845D01*
X022490Y008726D02*
X019275Y008726D01*
X019321Y008627D02*
X020199Y008627D01*
X020212Y008640D02*
X020101Y008529D01*
X020101Y008371D01*
X020212Y008260D01*
X020370Y008260D01*
X020481Y008371D01*
X020481Y008529D01*
X020370Y008640D01*
X020212Y008640D01*
X020101Y008529D02*
X019321Y008529D01*
X019280Y008430D02*
X020101Y008430D01*
X020141Y008332D02*
X018521Y008332D01*
X018521Y008379D02*
X018410Y008490D01*
X018252Y008490D01*
X018141Y008379D01*
X018141Y008221D01*
X018217Y008145D01*
X018151Y008079D01*
X018151Y007921D01*
X018262Y007810D01*
X018420Y007810D01*
X018531Y007921D01*
X018531Y008079D01*
X018455Y008155D01*
X018521Y008221D01*
X018521Y008379D01*
X018470Y008430D02*
X018982Y008430D01*
X018941Y008529D02*
X013861Y008529D01*
X013881Y008509D02*
X013770Y008620D01*
X013612Y008620D01*
X013501Y008509D01*
X013501Y008351D01*
X013612Y008240D01*
X013770Y008240D01*
X013881Y008351D01*
X013881Y008509D01*
X013881Y008430D02*
X018192Y008430D01*
X018141Y008332D02*
X013861Y008332D01*
X013521Y008332D02*
X010561Y008332D01*
X010601Y008371D02*
X010490Y008260D01*
X010332Y008260D01*
X010221Y008371D01*
X010221Y008529D01*
X010332Y008640D01*
X010490Y008640D01*
X010601Y008529D01*
X010601Y008371D01*
X010601Y008430D02*
X013501Y008430D01*
X013521Y008529D02*
X010601Y008529D01*
X010503Y008627D02*
X018941Y008627D01*
X019038Y008726D02*
X015225Y008726D01*
X015037Y008726D02*
X007081Y008726D01*
X007081Y008824D02*
X014941Y008824D01*
X014941Y008923D02*
X012432Y008923D01*
X012481Y008971D02*
X012370Y008860D01*
X012212Y008860D01*
X012101Y008971D01*
X012101Y009129D01*
X012212Y009240D01*
X012370Y009240D01*
X012481Y009129D01*
X012481Y008971D01*
X012481Y009021D02*
X014983Y009021D01*
X014993Y009120D02*
X012481Y009120D01*
X012392Y009218D02*
X014941Y009218D01*
X014941Y009317D02*
X013396Y009317D01*
X013390Y009310D02*
X013501Y009421D01*
X013501Y009579D01*
X013390Y009690D01*
X013232Y009690D01*
X013121Y009579D01*
X013121Y009421D01*
X013232Y009310D01*
X013390Y009310D01*
X013495Y009415D02*
X015027Y009415D01*
X015235Y009415D02*
X020101Y009415D01*
X020176Y009514D02*
X017913Y009514D01*
X017910Y009510D02*
X018021Y009621D01*
X018021Y009779D01*
X017910Y009890D01*
X017752Y009890D01*
X017641Y009779D01*
X017641Y009621D01*
X017752Y009510D01*
X017910Y009510D01*
X018012Y009612D02*
X022653Y009612D01*
X022555Y009711D02*
X018021Y009711D01*
X017991Y009809D02*
X018863Y009809D01*
X018831Y009841D02*
X018942Y009730D01*
X019100Y009730D01*
X019211Y009841D01*
X019211Y009999D01*
X019100Y010110D01*
X018942Y010110D01*
X018831Y009999D01*
X018831Y009841D01*
X018831Y009908D02*
X006181Y009908D01*
X006181Y010006D02*
X018838Y010006D01*
X018937Y010105D02*
X006181Y010105D01*
X006181Y010203D02*
X013359Y010203D01*
X013291Y010302D02*
X006181Y010302D01*
X006181Y010400D02*
X013291Y010400D01*
X013361Y010499D02*
X006181Y010499D01*
X006682Y010597D02*
X022688Y010597D01*
X022570Y010696D02*
X006810Y010696D01*
X006908Y010794D02*
X022513Y010794D01*
X022684Y010302D02*
X013671Y010302D01*
X013603Y010203D02*
X022568Y010203D01*
X022512Y010105D02*
X019105Y010105D01*
X019204Y010006D02*
X022481Y010006D01*
X022481Y009908D02*
X019211Y009908D01*
X019179Y009809D02*
X022506Y009809D01*
X022620Y009317D02*
X020481Y009317D01*
X020418Y009218D02*
X022519Y009218D01*
X022831Y009218D02*
X022931Y009218D01*
X022931Y009120D02*
X022831Y009120D01*
X022831Y009317D02*
X022931Y009317D01*
X022931Y008824D02*
X022831Y008824D01*
X022831Y008726D02*
X022931Y008726D01*
X022931Y008627D02*
X022831Y008627D01*
X022831Y008529D02*
X022931Y008529D01*
X023040Y008529D02*
X032781Y008529D01*
X032741Y008430D02*
X020481Y008430D01*
X020481Y008529D02*
X022722Y008529D01*
X022567Y008627D02*
X020383Y008627D01*
X020441Y008332D02*
X022757Y008332D01*
X022801Y008350D02*
X022654Y008289D01*
X022542Y008177D01*
X022481Y008030D01*
X022481Y007870D01*
X022542Y007723D01*
X022654Y007611D01*
X022801Y007550D01*
X022960Y007550D01*
X023107Y007611D01*
X023220Y007723D01*
X023281Y007870D01*
X023281Y008030D01*
X023220Y008177D01*
X023107Y008289D01*
X022960Y008350D01*
X022801Y008350D01*
X023005Y008332D02*
X023757Y008332D01*
X023801Y008350D02*
X023654Y008289D01*
X023542Y008177D01*
X023481Y008030D01*
X023481Y007870D01*
X023542Y007723D01*
X023654Y007611D01*
X023801Y007550D01*
X023960Y007550D01*
X024107Y007611D01*
X024220Y007723D01*
X024281Y007870D01*
X024281Y008030D01*
X024220Y008177D01*
X024107Y008289D01*
X023960Y008350D01*
X023801Y008350D01*
X024005Y008332D02*
X032741Y008332D01*
X032839Y008233D02*
X024164Y008233D01*
X024237Y008135D02*
X032797Y008135D01*
X032741Y008036D02*
X024278Y008036D01*
X024281Y007938D02*
X031200Y007938D01*
X031252Y007990D02*
X031141Y007879D01*
X031141Y007721D01*
X031252Y007610D01*
X031410Y007610D01*
X031481Y007681D01*
X031552Y007610D01*
X031710Y007610D01*
X031821Y007721D01*
X031821Y007879D01*
X031710Y007990D01*
X031552Y007990D01*
X031481Y007919D01*
X031410Y007990D01*
X031252Y007990D01*
X031141Y007839D02*
X024268Y007839D01*
X024227Y007741D02*
X025253Y007741D01*
X025191Y007642D02*
X024139Y007642D01*
X023623Y007642D02*
X023139Y007642D01*
X023227Y007741D02*
X023535Y007741D01*
X023494Y007839D02*
X023268Y007839D01*
X023281Y007938D02*
X023481Y007938D01*
X023484Y008036D02*
X023278Y008036D01*
X023237Y008135D02*
X023524Y008135D01*
X023598Y008233D02*
X023164Y008233D01*
X023194Y008627D02*
X023638Y008627D01*
X023541Y008726D02*
X023272Y008726D01*
X022598Y008233D02*
X018521Y008233D01*
X018475Y008135D02*
X020147Y008135D01*
X020101Y008089D02*
X020101Y007931D01*
X020212Y007820D01*
X020370Y007820D01*
X020481Y007931D01*
X020481Y008089D01*
X020370Y008200D01*
X020212Y008200D01*
X020101Y008089D01*
X020101Y008036D02*
X018531Y008036D01*
X018531Y007938D02*
X020101Y007938D01*
X020193Y007839D02*
X018449Y007839D01*
X018382Y007740D02*
X018271Y007629D01*
X018271Y007471D01*
X018382Y007360D01*
X018540Y007360D01*
X018651Y007471D01*
X018651Y007629D01*
X018540Y007740D01*
X018382Y007740D01*
X018284Y007642D02*
X017842Y007642D01*
X017871Y007671D02*
X017760Y007560D01*
X017602Y007560D01*
X017491Y007671D01*
X017491Y007710D01*
X017402Y007710D01*
X017291Y007821D01*
X017291Y007979D01*
X017402Y008090D01*
X017560Y008090D01*
X017671Y007979D01*
X017671Y007940D01*
X017760Y007940D01*
X017871Y007829D01*
X017871Y007671D01*
X017871Y007741D02*
X022535Y007741D01*
X022494Y007839D02*
X020389Y007839D01*
X020481Y007938D02*
X022481Y007938D01*
X022484Y008036D02*
X020481Y008036D01*
X020435Y008135D02*
X022524Y008135D01*
X022623Y007642D02*
X018638Y007642D01*
X018651Y007544D02*
X025191Y007544D01*
X025267Y007445D02*
X018625Y007445D01*
X018297Y007445D02*
X015045Y007445D01*
X015010Y007410D02*
X015121Y007521D01*
X015121Y007660D01*
X015210Y007660D01*
X015321Y007771D01*
X015321Y007929D01*
X015210Y008040D01*
X015052Y008040D01*
X014941Y007929D01*
X014941Y007790D01*
X014921Y007790D01*
X014921Y007929D01*
X014810Y008040D01*
X014652Y008040D01*
X014541Y007929D01*
X014541Y007771D01*
X014652Y007660D01*
X014741Y007660D01*
X014741Y007521D01*
X014852Y007410D01*
X015010Y007410D01*
X015121Y007544D02*
X018271Y007544D01*
X018233Y007839D02*
X017861Y007839D01*
X017762Y007938D02*
X018151Y007938D01*
X018151Y008036D02*
X017614Y008036D01*
X017348Y008036D02*
X017164Y008036D01*
X017160Y008040D02*
X017002Y008040D01*
X016891Y007929D01*
X016891Y007771D01*
X017002Y007660D01*
X017160Y007660D01*
X017271Y007771D01*
X017271Y007929D01*
X017160Y008040D01*
X017262Y007938D02*
X017291Y007938D01*
X017291Y007839D02*
X017271Y007839D01*
X017240Y007741D02*
X017372Y007741D01*
X017520Y007642D02*
X015121Y007642D01*
X015290Y007741D02*
X015572Y007741D01*
X015541Y007771D02*
X015652Y007660D01*
X015810Y007660D01*
X015921Y007771D01*
X015921Y007929D01*
X015810Y008040D01*
X015652Y008040D01*
X015541Y007929D01*
X015541Y007771D01*
X015541Y007839D02*
X015321Y007839D01*
X015312Y007938D02*
X015550Y007938D01*
X015648Y008036D02*
X015214Y008036D01*
X015048Y008036D02*
X014814Y008036D01*
X014912Y007938D02*
X014950Y007938D01*
X014941Y007839D02*
X014921Y007839D01*
X014741Y007642D02*
X011721Y007642D01*
X011721Y007571D02*
X011610Y007460D01*
X011452Y007460D01*
X011341Y007571D01*
X011341Y007729D01*
X011452Y007840D01*
X011610Y007840D01*
X011721Y007729D01*
X011721Y007571D01*
X011693Y007544D02*
X014741Y007544D01*
X014817Y007445D02*
X005959Y007445D01*
X006058Y007544D02*
X011369Y007544D01*
X011341Y007642D02*
X006113Y007642D01*
X006121Y007741D02*
X011353Y007741D01*
X011451Y007839D02*
X006121Y007839D01*
X006121Y007938D02*
X011800Y007938D01*
X011791Y007929D02*
X011791Y007771D01*
X011902Y007660D01*
X012060Y007660D01*
X012171Y007771D01*
X012171Y007929D01*
X012060Y008040D01*
X011902Y008040D01*
X011791Y007929D01*
X011791Y007839D02*
X011611Y007839D01*
X011709Y007741D02*
X011822Y007741D01*
X011898Y008036D02*
X006121Y008036D01*
X006121Y008135D02*
X018207Y008135D01*
X018141Y008233D02*
X006121Y008233D01*
X006146Y008332D02*
X010261Y008332D01*
X010221Y008430D02*
X006864Y008430D01*
X006963Y008529D02*
X010221Y008529D01*
X010319Y008627D02*
X007051Y008627D01*
X007081Y008923D02*
X012150Y008923D01*
X012101Y009021D02*
X007081Y009021D01*
X007081Y009120D02*
X012101Y009120D01*
X012190Y009218D02*
X007073Y009218D01*
X007018Y009317D02*
X013226Y009317D01*
X013127Y009415D02*
X006919Y009415D01*
X006821Y009514D02*
X011449Y009514D01*
X011502Y009460D02*
X011660Y009460D01*
X011771Y009571D01*
X011771Y009729D01*
X011660Y009840D01*
X011502Y009840D01*
X011391Y009729D01*
X011391Y009571D01*
X011502Y009460D01*
X011391Y009612D02*
X006181Y009612D01*
X006181Y009711D02*
X011391Y009711D01*
X011471Y009809D02*
X006181Y009809D01*
X010035Y011385D02*
X010171Y011385D01*
X010236Y011484D02*
X010071Y011484D01*
X010068Y011582D02*
X012144Y011582D01*
X012141Y011579D02*
X012141Y011421D01*
X012252Y011310D01*
X012410Y011310D01*
X012521Y011421D01*
X012521Y011579D01*
X012410Y011690D01*
X012252Y011690D01*
X012141Y011579D01*
X012141Y011484D02*
X010486Y011484D01*
X010551Y011385D02*
X012177Y011385D01*
X012243Y011681D02*
X009969Y011681D01*
X012419Y011681D02*
X015793Y011681D01*
X015694Y011582D02*
X013708Y011582D01*
X013721Y011569D02*
X013610Y011680D01*
X013452Y011680D01*
X013341Y011569D01*
X013341Y011411D01*
X013452Y011300D01*
X013610Y011300D01*
X013721Y011411D01*
X013721Y011569D01*
X013721Y011484D02*
X015691Y011484D01*
X015727Y011385D02*
X013695Y011385D01*
X013367Y011385D02*
X012485Y011385D01*
X012521Y011484D02*
X013341Y011484D01*
X013354Y011582D02*
X012518Y011582D01*
X011691Y009809D02*
X017671Y009809D01*
X017641Y009711D02*
X011771Y009711D01*
X011771Y009612D02*
X013154Y009612D01*
X013121Y009514D02*
X011713Y009514D01*
X013468Y009612D02*
X017650Y009612D01*
X017749Y009514D02*
X013501Y009514D01*
X014648Y008036D02*
X012064Y008036D01*
X012162Y007938D02*
X014550Y007938D01*
X014541Y007839D02*
X012171Y007839D01*
X012140Y007741D02*
X014572Y007741D01*
X015814Y008036D02*
X016998Y008036D01*
X016900Y007938D02*
X015912Y007938D01*
X015921Y007839D02*
X016891Y007839D01*
X016922Y007741D02*
X015890Y007741D01*
X015852Y006700D02*
X015741Y006589D01*
X015741Y006431D01*
X015852Y006320D01*
X016010Y006320D01*
X016121Y006431D01*
X016121Y006589D01*
X016010Y006700D01*
X015852Y006700D01*
X015809Y006657D02*
X015653Y006657D01*
X015610Y006700D02*
X015721Y006589D01*
X015721Y006431D01*
X015610Y006320D01*
X015452Y006320D01*
X015341Y006431D01*
X015341Y006589D01*
X015452Y006700D01*
X015610Y006700D01*
X015721Y006559D02*
X015741Y006559D01*
X015741Y006460D02*
X015721Y006460D01*
X015651Y006362D02*
X015811Y006362D01*
X015760Y006290D02*
X015602Y006290D01*
X015491Y006179D01*
X015491Y006021D01*
X015602Y005910D01*
X015760Y005910D01*
X015871Y006021D01*
X015871Y006179D01*
X015760Y006290D01*
X015787Y006263D02*
X016431Y006263D01*
X016431Y006299D02*
X016431Y006141D01*
X016542Y006030D01*
X016700Y006030D01*
X016811Y006141D01*
X016811Y006299D01*
X016700Y006410D01*
X016542Y006410D01*
X016431Y006299D01*
X016400Y006320D02*
X016511Y006431D01*
X016511Y006589D01*
X016400Y006700D01*
X016242Y006700D01*
X016131Y006589D01*
X016131Y006431D01*
X016242Y006320D01*
X016400Y006320D01*
X016441Y006362D02*
X016494Y006362D01*
X016511Y006460D02*
X019832Y006460D01*
X019811Y006439D02*
X019811Y006281D01*
X019922Y006170D01*
X020080Y006170D01*
X020191Y006281D01*
X020191Y006439D01*
X020080Y006550D01*
X019922Y006550D01*
X019811Y006439D01*
X019811Y006362D02*
X016748Y006362D01*
X016811Y006263D02*
X016925Y006263D01*
X016891Y006229D02*
X016891Y006071D01*
X017002Y005960D01*
X017160Y005960D01*
X017271Y006071D01*
X017271Y006229D01*
X017160Y006340D01*
X017002Y006340D01*
X016891Y006229D01*
X016891Y006165D02*
X016811Y006165D01*
X016736Y006066D02*
X016896Y006066D01*
X016995Y005968D02*
X016232Y005968D01*
X016210Y005990D02*
X016052Y005990D01*
X015941Y005879D01*
X015941Y005721D01*
X016052Y005610D01*
X016210Y005610D01*
X016321Y005721D01*
X016321Y005879D01*
X016210Y005990D01*
X016321Y005869D02*
X027941Y005869D01*
X027941Y005910D02*
X027941Y005821D01*
X028052Y005710D01*
X028210Y005710D01*
X028321Y005821D01*
X028321Y005979D01*
X028210Y006090D01*
X028121Y006090D01*
X028121Y006179D01*
X028010Y006290D01*
X027852Y006290D01*
X027741Y006179D01*
X027741Y006021D01*
X027852Y005910D01*
X027941Y005910D01*
X027992Y005771D02*
X016759Y005771D01*
X016801Y005729D02*
X016690Y005840D01*
X016532Y005840D01*
X016421Y005729D01*
X016421Y005571D01*
X016457Y005535D01*
X016421Y005499D01*
X016421Y005341D01*
X016532Y005230D01*
X016690Y005230D01*
X016801Y005341D01*
X016801Y005499D01*
X016765Y005535D01*
X016801Y005571D01*
X016801Y005729D01*
X016801Y005672D02*
X032490Y005672D01*
X032502Y005660D02*
X032660Y005660D01*
X032771Y005771D01*
X032771Y005929D01*
X032660Y006040D01*
X032571Y006040D01*
X032571Y006129D01*
X032460Y006240D01*
X032302Y006240D01*
X032191Y006129D01*
X032191Y005971D01*
X032302Y005860D01*
X032391Y005860D01*
X032391Y005771D01*
X032502Y005660D01*
X032392Y005771D02*
X028270Y005771D01*
X028321Y005869D02*
X032293Y005869D01*
X032195Y005968D02*
X028321Y005968D01*
X028234Y006066D02*
X028846Y006066D01*
X028852Y006060D02*
X029010Y006060D01*
X029121Y006171D01*
X029121Y006329D01*
X029010Y006440D01*
X028852Y006440D01*
X028741Y006329D01*
X028741Y006171D01*
X028852Y006060D01*
X028748Y006165D02*
X028121Y006165D01*
X028037Y006263D02*
X028741Y006263D01*
X028774Y006362D02*
X021001Y006362D01*
X021001Y006311D02*
X020890Y006200D01*
X020732Y006200D01*
X020621Y006311D01*
X020621Y006469D01*
X020732Y006580D01*
X020890Y006580D01*
X021001Y006469D01*
X021001Y006311D01*
X020953Y006263D02*
X022675Y006263D01*
X022641Y006229D02*
X022641Y006071D01*
X022752Y005960D01*
X022910Y005960D01*
X023021Y006071D01*
X023021Y006229D01*
X022910Y006340D01*
X022752Y006340D01*
X022641Y006229D01*
X022641Y006165D02*
X017271Y006165D01*
X017266Y006066D02*
X022646Y006066D01*
X022745Y005968D02*
X017167Y005968D01*
X017237Y006263D02*
X019829Y006263D01*
X020173Y006263D02*
X020669Y006263D01*
X020621Y006362D02*
X020191Y006362D01*
X020170Y006460D02*
X020621Y006460D01*
X020711Y006559D02*
X016511Y006559D01*
X016443Y006657D02*
X029741Y006657D01*
X029741Y006729D02*
X029741Y006571D01*
X029852Y006460D01*
X021001Y006460D01*
X020911Y006559D02*
X029754Y006559D01*
X029852Y006460D02*
X030010Y006460D01*
X032102Y006460D01*
X032260Y006460D01*
X033041Y006460D01*
X033041Y006529D02*
X033041Y006371D01*
X033152Y006260D01*
X033310Y006260D01*
X033421Y006371D01*
X033421Y006529D01*
X033310Y006640D01*
X033152Y006640D01*
X033041Y006529D01*
X033071Y006559D02*
X032358Y006559D01*
X032371Y006571D02*
X032260Y006460D01*
X032371Y006571D02*
X032371Y006729D01*
X032260Y006840D01*
X032102Y006840D01*
X031991Y006729D01*
X031991Y006571D01*
X032102Y006460D01*
X032004Y006559D02*
X031438Y006559D01*
X031390Y006510D02*
X031501Y006621D01*
X031501Y006779D01*
X031390Y006890D01*
X031232Y006890D01*
X031121Y006779D01*
X031121Y006621D01*
X031232Y006510D01*
X031390Y006510D01*
X031501Y006657D02*
X031991Y006657D01*
X032018Y006756D02*
X031501Y006756D01*
X031426Y006854D02*
X036441Y006854D01*
X036441Y006929D02*
X036441Y006771D01*
X036552Y006660D01*
X036710Y006660D01*
X036821Y006771D01*
X036821Y006929D01*
X036710Y007040D01*
X036552Y007040D01*
X036441Y006929D01*
X036465Y006953D02*
X027647Y006953D01*
X027671Y006854D02*
X030216Y006854D01*
X030242Y006880D02*
X030131Y006769D01*
X030131Y006611D01*
X030242Y006500D01*
X030400Y006500D01*
X030501Y006601D01*
X030562Y006540D01*
X030720Y006540D01*
X030831Y006651D01*
X030831Y006809D01*
X030720Y006920D01*
X030562Y006920D01*
X030461Y006819D01*
X030400Y006880D01*
X030242Y006880D01*
X030131Y006756D02*
X030094Y006756D01*
X030121Y006729D02*
X030010Y006840D01*
X029852Y006840D01*
X029741Y006729D01*
X029768Y006756D02*
X027655Y006756D01*
X027315Y006953D02*
X020842Y006953D01*
X020861Y007051D02*
X033361Y007051D01*
X033341Y007150D02*
X025199Y007150D01*
X025221Y007248D02*
X033360Y007248D01*
X033701Y007051D02*
X037661Y007051D01*
X037701Y006953D02*
X037497Y006953D01*
X037521Y006929D02*
X037410Y007040D01*
X037252Y007040D01*
X037141Y006929D01*
X037141Y006771D01*
X037252Y006660D01*
X037410Y006660D01*
X037521Y006771D01*
X037521Y006929D01*
X037521Y006854D02*
X037789Y006854D01*
X037505Y006756D02*
X041056Y006756D01*
X041056Y006854D02*
X040272Y006854D01*
X040246Y006828D02*
X040353Y006935D01*
X040411Y007074D01*
X040411Y007226D01*
X040353Y007365D01*
X040246Y007472D01*
X040106Y007530D01*
X039955Y007530D01*
X039816Y007472D01*
X039709Y007365D01*
X039651Y007226D01*
X039651Y007074D01*
X039709Y006935D01*
X039816Y006828D01*
X039955Y006770D01*
X040106Y006770D01*
X040246Y006828D01*
X040360Y006953D02*
X041056Y006953D01*
X041056Y007051D02*
X040401Y007051D01*
X040411Y007150D02*
X041056Y007150D01*
X041056Y007248D02*
X040402Y007248D01*
X040361Y007347D02*
X041056Y007347D01*
X041056Y007445D02*
X040273Y007445D01*
X039788Y007445D02*
X039273Y007445D01*
X039246Y007472D02*
X039106Y007530D01*
X038955Y007530D01*
X038816Y007472D01*
X038709Y007365D01*
X038651Y007226D01*
X038651Y007074D01*
X038709Y006935D01*
X038816Y006828D01*
X038955Y006770D01*
X039106Y006770D01*
X039246Y006828D01*
X039353Y006935D01*
X039411Y007074D01*
X039411Y007226D01*
X039353Y007365D01*
X039246Y007472D01*
X039361Y007347D02*
X039701Y007347D01*
X039660Y007248D02*
X039402Y007248D01*
X039411Y007150D02*
X039651Y007150D01*
X039661Y007051D02*
X039401Y007051D01*
X039360Y006953D02*
X039701Y006953D01*
X039789Y006854D02*
X039272Y006854D01*
X038789Y006854D02*
X038272Y006854D01*
X038360Y006953D02*
X038701Y006953D01*
X038661Y007051D02*
X038401Y007051D01*
X038411Y007150D02*
X038651Y007150D01*
X038660Y007248D02*
X038402Y007248D01*
X038361Y007347D02*
X038701Y007347D01*
X038788Y007445D02*
X038273Y007445D01*
X037165Y006953D02*
X036797Y006953D01*
X036821Y006854D02*
X037141Y006854D01*
X037157Y006756D02*
X036805Y006756D01*
X036457Y006756D02*
X032344Y006756D01*
X032371Y006657D02*
X041056Y006657D01*
X041056Y006559D02*
X033391Y006559D01*
X033421Y006460D02*
X041056Y006460D01*
X041056Y006362D02*
X040257Y006362D01*
X040246Y006372D02*
X040106Y006430D01*
X039955Y006430D01*
X039816Y006372D01*
X039709Y006265D01*
X039651Y006126D01*
X039651Y005974D01*
X039709Y005835D01*
X039816Y005728D01*
X039955Y005670D01*
X040106Y005670D01*
X040246Y005728D01*
X040353Y005835D01*
X040411Y005974D01*
X040411Y006126D01*
X040353Y006265D01*
X040246Y006372D01*
X040354Y006263D02*
X041056Y006263D01*
X041056Y006165D02*
X040395Y006165D01*
X040411Y006066D02*
X041056Y006066D01*
X041056Y005968D02*
X040408Y005968D01*
X040367Y005869D02*
X041056Y005869D01*
X041056Y005771D02*
X040289Y005771D01*
X040111Y005672D02*
X041056Y005672D01*
X041056Y005574D02*
X033971Y005574D01*
X033971Y005571D02*
X033971Y005729D01*
X033860Y005840D01*
X033702Y005840D01*
X033631Y005769D01*
X033560Y005840D01*
X033402Y005840D01*
X033291Y005729D01*
X033291Y005590D01*
X033252Y005590D01*
X033141Y005479D01*
X033141Y005321D01*
X033212Y005250D01*
X033141Y005179D01*
X033141Y005021D01*
X033252Y004910D01*
X033410Y004910D01*
X033521Y005021D01*
X033521Y005179D01*
X033450Y005250D01*
X033521Y005321D01*
X033521Y005460D01*
X033560Y005460D01*
X033631Y005531D01*
X033702Y005460D01*
X033860Y005460D01*
X033971Y005571D01*
X033971Y005672D02*
X037950Y005672D01*
X037955Y005670D02*
X038106Y005670D01*
X038246Y005728D01*
X038353Y005835D01*
X038411Y005974D01*
X038411Y006126D01*
X038353Y006265D01*
X038246Y006372D01*
X038106Y006430D01*
X037955Y006430D01*
X037816Y006372D01*
X037709Y006265D01*
X037651Y006126D01*
X037651Y005974D01*
X037709Y005835D01*
X037816Y005728D01*
X037955Y005670D01*
X038111Y005672D02*
X038950Y005672D01*
X038955Y005670D02*
X039106Y005670D01*
X039246Y005728D01*
X039353Y005835D01*
X039411Y005974D01*
X039411Y006126D01*
X039353Y006265D01*
X039246Y006372D01*
X039106Y006430D01*
X038955Y006430D01*
X038816Y006372D01*
X038709Y006265D01*
X038651Y006126D01*
X038651Y005974D01*
X038709Y005835D01*
X038816Y005728D01*
X038955Y005670D01*
X039111Y005672D02*
X039950Y005672D01*
X039773Y005771D02*
X039289Y005771D01*
X039367Y005869D02*
X039695Y005869D01*
X039654Y005968D02*
X039408Y005968D01*
X039411Y006066D02*
X039651Y006066D01*
X039667Y006165D02*
X039395Y006165D01*
X039354Y006263D02*
X039708Y006263D01*
X039805Y006362D02*
X039257Y006362D01*
X038805Y006362D02*
X038257Y006362D01*
X038354Y006263D02*
X038708Y006263D01*
X038667Y006165D02*
X038395Y006165D01*
X038411Y006066D02*
X038651Y006066D01*
X038654Y005968D02*
X038408Y005968D01*
X038367Y005869D02*
X038695Y005869D01*
X038773Y005771D02*
X038289Y005771D01*
X037773Y005771D02*
X033929Y005771D01*
X033633Y005771D02*
X033629Y005771D01*
X033333Y005771D02*
X032770Y005771D01*
X032771Y005869D02*
X037695Y005869D01*
X037654Y005968D02*
X032732Y005968D01*
X032571Y006066D02*
X037651Y006066D01*
X037667Y006165D02*
X032535Y006165D01*
X032227Y006165D02*
X029114Y006165D01*
X029121Y006263D02*
X033149Y006263D01*
X033051Y006362D02*
X029088Y006362D01*
X029016Y006066D02*
X032191Y006066D01*
X032672Y005672D02*
X033291Y005672D01*
X033236Y005574D02*
X018206Y005574D01*
X018170Y005610D02*
X018012Y005610D01*
X017901Y005499D01*
X017901Y005341D01*
X018012Y005230D01*
X018170Y005230D01*
X018281Y005341D01*
X018281Y005499D01*
X018170Y005610D01*
X018281Y005475D02*
X033141Y005475D01*
X033141Y005377D02*
X018281Y005377D01*
X018218Y005278D02*
X029040Y005278D01*
X029052Y005290D02*
X028941Y005179D01*
X028941Y005021D01*
X029052Y004910D01*
X029210Y004910D01*
X029321Y005021D01*
X029321Y005179D01*
X029210Y005290D01*
X029052Y005290D01*
X028942Y005180D02*
X016511Y005180D01*
X016511Y005209D02*
X016511Y005051D01*
X016400Y004940D01*
X016242Y004940D01*
X016131Y005051D01*
X016131Y005209D01*
X016242Y005320D01*
X016400Y005320D01*
X016511Y005209D01*
X016484Y005278D02*
X016442Y005278D01*
X016421Y005377D02*
X014336Y005377D01*
X014310Y005350D02*
X014421Y005461D01*
X014421Y005619D01*
X014310Y005730D01*
X014152Y005730D01*
X014041Y005619D01*
X014041Y005461D01*
X014152Y005350D01*
X014310Y005350D01*
X014421Y005475D02*
X016421Y005475D01*
X016421Y005574D02*
X014421Y005574D01*
X014368Y005672D02*
X015990Y005672D01*
X015941Y005771D02*
X010501Y005771D01*
X010501Y005731D02*
X010501Y005889D01*
X010390Y006000D01*
X010232Y006000D01*
X010121Y005889D01*
X010121Y005731D01*
X010232Y005620D01*
X010390Y005620D01*
X010501Y005731D01*
X010442Y005672D02*
X014094Y005672D01*
X014041Y005574D02*
X008751Y005574D01*
X008756Y005602D02*
X008359Y005602D01*
X008359Y005205D01*
X008416Y005214D01*
X008482Y005236D01*
X008545Y005268D01*
X008602Y005309D01*
X008652Y005359D01*
X008693Y005416D01*
X008725Y005478D01*
X008747Y005545D01*
X008756Y005602D01*
X008723Y005475D02*
X014041Y005475D01*
X014126Y005377D02*
X008665Y005377D01*
X008559Y005278D02*
X015620Y005278D01*
X015672Y005330D02*
X015561Y005219D01*
X015561Y005061D01*
X015672Y004950D01*
X015830Y004950D01*
X015941Y005061D01*
X015941Y005219D01*
X015830Y005330D01*
X015672Y005330D01*
X015561Y005180D02*
X004806Y005180D01*
X004806Y005278D02*
X008063Y005278D01*
X007957Y005377D02*
X004806Y005377D01*
X004806Y005475D02*
X007899Y005475D01*
X007871Y005574D02*
X004806Y005574D01*
X004806Y005672D02*
X008262Y005672D01*
X008359Y005672D02*
X010180Y005672D01*
X010121Y005771D02*
X008742Y005771D01*
X008701Y005869D02*
X010121Y005869D01*
X010200Y005968D02*
X008625Y005968D01*
X008477Y006066D02*
X012831Y006066D01*
X012831Y006109D02*
X012831Y005951D01*
X012942Y005840D01*
X013100Y005840D01*
X013211Y005951D01*
X013211Y006109D01*
X013100Y006220D01*
X012942Y006220D01*
X012831Y006109D01*
X012887Y006165D02*
X011814Y006165D01*
X011760Y006110D02*
X011871Y006221D01*
X011871Y006379D01*
X011760Y006490D01*
X011602Y006490D01*
X011491Y006379D01*
X011491Y006221D01*
X011602Y006110D01*
X011760Y006110D01*
X011871Y006263D02*
X015575Y006263D01*
X015491Y006165D02*
X015365Y006165D01*
X015320Y006210D02*
X015162Y006210D01*
X015051Y006099D01*
X015051Y005941D01*
X015162Y005830D01*
X015320Y005830D01*
X015431Y005941D01*
X015431Y006099D01*
X015320Y006210D01*
X015411Y006362D02*
X014211Y006362D01*
X014271Y006460D02*
X015341Y006460D01*
X015341Y006559D02*
X014271Y006559D01*
X014257Y006657D02*
X015409Y006657D01*
X016053Y006657D02*
X016199Y006657D01*
X016131Y006559D02*
X016121Y006559D01*
X016121Y006460D02*
X016131Y006460D01*
X016201Y006362D02*
X016051Y006362D01*
X015871Y006165D02*
X016431Y006165D01*
X016506Y006066D02*
X015871Y006066D01*
X015817Y005968D02*
X016030Y005968D01*
X015941Y005869D02*
X015359Y005869D01*
X015431Y005968D02*
X015545Y005968D01*
X015491Y006066D02*
X015431Y006066D01*
X015117Y006165D02*
X013155Y006165D01*
X013211Y006066D02*
X015051Y006066D01*
X015051Y005968D02*
X013211Y005968D01*
X013129Y005869D02*
X015123Y005869D01*
X015882Y005278D02*
X016200Y005278D01*
X016131Y005180D02*
X015941Y005180D01*
X015941Y005081D02*
X016131Y005081D01*
X016200Y004983D02*
X015862Y004983D01*
X015852Y004940D02*
X015741Y004829D01*
X015741Y004671D01*
X015852Y004560D01*
X016010Y004560D01*
X016121Y004671D01*
X016121Y004829D01*
X016010Y004940D01*
X015852Y004940D01*
X015796Y004884D02*
X014666Y004884D01*
X014671Y004879D02*
X014560Y004990D01*
X014402Y004990D01*
X014291Y004879D01*
X014291Y004721D01*
X014402Y004610D01*
X014560Y004610D01*
X014671Y004721D01*
X014671Y004879D01*
X014671Y004786D02*
X015741Y004786D01*
X015741Y004687D02*
X014637Y004687D01*
X014567Y004983D02*
X015640Y004983D01*
X015561Y005081D02*
X004806Y005081D01*
X004806Y004983D02*
X008115Y004983D01*
X008076Y004966D02*
X007964Y004855D01*
X007904Y004709D01*
X007904Y004551D01*
X007964Y004405D01*
X008076Y004294D01*
X008222Y004233D01*
X008380Y004233D01*
X008526Y004294D01*
X008637Y004405D01*
X008698Y004551D01*
X008698Y004709D01*
X008637Y004855D01*
X008526Y004966D01*
X008380Y005027D01*
X008222Y005027D01*
X008076Y004966D01*
X007994Y004884D02*
X004806Y004884D01*
X004806Y004786D02*
X007936Y004786D01*
X007904Y004687D02*
X004806Y004687D01*
X004806Y004589D02*
X007904Y004589D01*
X007929Y004490D02*
X004806Y004490D01*
X004806Y004392D02*
X007978Y004392D01*
X008077Y004293D02*
X004806Y004293D01*
X004806Y004195D02*
X023293Y004195D01*
X023267Y004208D02*
X023329Y004176D01*
X023396Y004154D01*
X023452Y004145D01*
X023452Y004542D01*
X023056Y004542D01*
X023065Y004485D01*
X023087Y004418D01*
X023119Y004356D01*
X023160Y004299D01*
X023210Y004249D01*
X023267Y004208D01*
X023166Y004293D02*
X008524Y004293D01*
X008624Y004392D02*
X021871Y004392D01*
X021841Y004421D02*
X021952Y004310D01*
X022110Y004310D01*
X022221Y004421D01*
X022221Y004579D01*
X022110Y004690D01*
X021952Y004690D01*
X021841Y004579D01*
X021841Y004421D01*
X021841Y004490D02*
X008672Y004490D01*
X008698Y004589D02*
X015824Y004589D01*
X016038Y004589D02*
X021851Y004589D01*
X021949Y004687D02*
X016121Y004687D01*
X016121Y004786D02*
X023099Y004786D01*
X023087Y004762D02*
X023065Y004695D01*
X023056Y004638D01*
X023452Y004638D01*
X023452Y004542D01*
X023549Y004542D01*
X023549Y004638D01*
X023946Y004638D01*
X023937Y004695D01*
X023915Y004762D01*
X023883Y004824D01*
X023842Y004881D01*
X023792Y004931D01*
X023735Y004972D01*
X023672Y005004D01*
X023606Y005026D01*
X023549Y005035D01*
X023549Y004638D01*
X023452Y004638D01*
X023452Y005035D01*
X023396Y005026D01*
X023329Y005004D01*
X023267Y004972D01*
X023210Y004931D01*
X023160Y004881D01*
X023119Y004824D01*
X023087Y004762D01*
X023064Y004687D02*
X022113Y004687D01*
X022211Y004589D02*
X023452Y004589D01*
X023549Y004589D02*
X031151Y004589D01*
X031141Y004579D02*
X031141Y004421D01*
X031252Y004310D01*
X031410Y004310D01*
X031521Y004421D01*
X031521Y004579D01*
X031410Y004690D01*
X031252Y004690D01*
X031141Y004579D01*
X031141Y004490D02*
X023937Y004490D01*
X023937Y004485D02*
X023946Y004542D01*
X023549Y004542D01*
X023549Y004145D01*
X023606Y004154D01*
X023672Y004176D01*
X023735Y004208D01*
X023792Y004249D01*
X023842Y004299D01*
X023883Y004356D01*
X023915Y004418D01*
X023937Y004485D01*
X023901Y004392D02*
X026514Y004392D01*
X026491Y004369D02*
X026602Y004480D01*
X026760Y004480D01*
X026871Y004369D01*
X026871Y004211D01*
X026760Y004100D01*
X026602Y004100D01*
X026491Y004211D01*
X026491Y004369D01*
X026491Y004293D02*
X023836Y004293D01*
X023709Y004195D02*
X026508Y004195D01*
X026854Y004195D02*
X028218Y004195D01*
X028191Y004221D02*
X028302Y004110D01*
X028460Y004110D01*
X028571Y004221D01*
X028571Y004379D01*
X028460Y004490D01*
X028302Y004490D01*
X028191Y004379D01*
X028191Y004221D01*
X028191Y004293D02*
X026871Y004293D01*
X026848Y004392D02*
X028204Y004392D01*
X028558Y004392D02*
X031171Y004392D01*
X031249Y004687D02*
X023938Y004687D01*
X023903Y004786D02*
X041056Y004786D01*
X041056Y004884D02*
X023839Y004884D01*
X023715Y004983D02*
X028980Y004983D01*
X028941Y005081D02*
X016511Y005081D01*
X016442Y004983D02*
X023287Y004983D01*
X023163Y004884D02*
X016066Y004884D01*
X016738Y005278D02*
X017964Y005278D01*
X017901Y005377D02*
X016801Y005377D01*
X016801Y005475D02*
X017901Y005475D01*
X017976Y005574D02*
X016801Y005574D01*
X016463Y005771D02*
X016321Y005771D01*
X016272Y005672D02*
X016421Y005672D01*
X014395Y004983D02*
X008487Y004983D01*
X008608Y004884D02*
X014296Y004884D01*
X014291Y004786D02*
X008666Y004786D01*
X008698Y004687D02*
X014325Y004687D01*
X012913Y005869D02*
X010501Y005869D01*
X010422Y005968D02*
X012831Y005968D01*
X011871Y006362D02*
X013951Y006362D01*
X013891Y006460D02*
X011790Y006460D01*
X011572Y006460D02*
X010530Y006460D01*
X010510Y006480D02*
X010352Y006480D01*
X010241Y006369D01*
X010241Y006211D01*
X010352Y006100D01*
X010510Y006100D01*
X010621Y006211D01*
X010621Y006369D01*
X010510Y006480D01*
X010621Y006362D02*
X011491Y006362D01*
X011491Y006263D02*
X010621Y006263D01*
X010574Y006165D02*
X011548Y006165D01*
X010332Y006460D02*
X008738Y006460D01*
X008696Y006362D02*
X010241Y006362D01*
X010241Y006263D02*
X008616Y006263D01*
X008447Y006165D02*
X010288Y006165D01*
X008359Y005968D02*
X008262Y005968D01*
X008262Y005869D02*
X008359Y005869D01*
X008359Y005771D02*
X008262Y005771D01*
X008262Y005574D02*
X008359Y005574D01*
X008359Y005475D02*
X008262Y005475D01*
X008262Y005377D02*
X008359Y005377D01*
X008359Y005278D02*
X008262Y005278D01*
X007880Y005771D02*
X004806Y005771D01*
X004806Y005869D02*
X007921Y005869D01*
X007996Y005968D02*
X004806Y005968D01*
X004806Y006066D02*
X008145Y006066D01*
X008006Y006263D02*
X006713Y006263D01*
X006771Y006362D02*
X007926Y006362D01*
X007883Y006460D02*
X006771Y006460D01*
X006691Y006559D02*
X008262Y006559D01*
X008262Y006657D02*
X008359Y006657D01*
X008359Y006756D02*
X008262Y006756D01*
X008262Y006854D02*
X008359Y006854D01*
X008359Y006953D02*
X008262Y006953D01*
X004806Y004096D02*
X029658Y004096D01*
X029641Y004079D02*
X029641Y003921D01*
X029752Y003810D01*
X029841Y003810D01*
X029841Y003671D01*
X029952Y003560D01*
X030110Y003560D01*
X030221Y003671D01*
X030221Y003829D01*
X030110Y003940D01*
X030021Y003940D01*
X030021Y004079D01*
X029910Y004190D01*
X029752Y004190D01*
X029641Y004079D01*
X029641Y003998D02*
X028752Y003998D01*
X028710Y004040D02*
X028552Y004040D01*
X028441Y003929D01*
X028441Y003771D01*
X028552Y003660D01*
X028710Y003660D01*
X028821Y003771D01*
X028821Y003929D01*
X028710Y004040D01*
X028821Y003899D02*
X029663Y003899D01*
X029841Y003801D02*
X028821Y003801D01*
X028752Y003702D02*
X029841Y003702D01*
X029909Y003604D02*
X004806Y003604D01*
X004806Y003702D02*
X028510Y003702D01*
X028441Y003801D02*
X004806Y003801D01*
X004806Y003899D02*
X028441Y003899D01*
X028510Y003998D02*
X004806Y003998D01*
X004806Y003505D02*
X039591Y003505D01*
X039591Y003579D02*
X039591Y003421D01*
X039702Y003310D01*
X039860Y003310D01*
X039971Y003421D01*
X039971Y003579D01*
X039860Y003690D01*
X039702Y003690D01*
X039591Y003579D01*
X039616Y003604D02*
X036953Y003604D01*
X036910Y003560D02*
X037021Y003671D01*
X037021Y003829D01*
X036910Y003940D01*
X036752Y003940D01*
X036641Y003829D01*
X036641Y003671D01*
X036752Y003560D01*
X036910Y003560D01*
X037021Y003702D02*
X041056Y003702D01*
X041056Y003604D02*
X039946Y003604D01*
X039971Y003505D02*
X041056Y003505D01*
X041056Y003407D02*
X039956Y003407D01*
X039606Y003407D02*
X019133Y003407D01*
X019090Y003450D02*
X018932Y003450D01*
X018821Y003339D01*
X018821Y003181D01*
X018932Y003070D01*
X019090Y003070D01*
X019201Y003181D01*
X019201Y003339D01*
X019090Y003450D01*
X019201Y003308D02*
X041056Y003308D01*
X041056Y003210D02*
X019201Y003210D01*
X019131Y003111D02*
X041056Y003111D01*
X041056Y003013D02*
X004806Y003013D01*
X004806Y003111D02*
X018891Y003111D01*
X018821Y003210D02*
X004806Y003210D01*
X004806Y003308D02*
X018821Y003308D01*
X018889Y003407D02*
X004806Y003407D01*
X004806Y002914D02*
X026764Y002914D01*
X026704Y002889D02*
X026592Y002777D01*
X026531Y002630D01*
X026531Y002470D01*
X026592Y002323D01*
X012671Y002323D01*
X012671Y002271D02*
X012560Y002160D01*
X012402Y002160D01*
X012291Y002271D01*
X012291Y002429D01*
X012402Y002540D01*
X012560Y002540D01*
X012671Y002429D01*
X012671Y002271D01*
X012624Y002225D02*
X026691Y002225D01*
X026704Y002211D02*
X026851Y002150D01*
X027010Y002150D01*
X027157Y002211D01*
X027270Y002323D01*
X027331Y002470D01*
X027331Y002630D01*
X027270Y002777D01*
X027157Y002889D01*
X027010Y002950D01*
X026851Y002950D01*
X026704Y002889D01*
X026631Y002816D02*
X006224Y002816D01*
X006200Y002840D02*
X006042Y002840D01*
X005931Y002729D01*
X005931Y002571D01*
X006042Y002460D01*
X006200Y002460D01*
X006311Y002571D01*
X006311Y002729D01*
X006200Y002840D01*
X006311Y002717D02*
X026567Y002717D01*
X026531Y002619D02*
X006311Y002619D01*
X006260Y002520D02*
X012382Y002520D01*
X012291Y002422D02*
X004806Y002422D01*
X004806Y002520D02*
X005982Y002520D01*
X005931Y002619D02*
X004806Y002619D01*
X004806Y002717D02*
X005931Y002717D01*
X006018Y002816D02*
X004806Y002816D01*
X004806Y002323D02*
X012291Y002323D01*
X012338Y002225D02*
X004806Y002225D01*
X004806Y002126D02*
X027780Y002126D01*
X027758Y002133D02*
X027826Y002111D01*
X027881Y002102D01*
X027881Y002500D01*
X027981Y002500D01*
X027981Y002600D01*
X028379Y002600D01*
X028370Y002655D01*
X028348Y002723D01*
X028316Y002786D01*
X028274Y002843D01*
X028224Y002893D01*
X028167Y002935D01*
X028104Y002967D01*
X028036Y002989D01*
X027981Y002998D01*
X027981Y002600D01*
X027881Y002600D01*
X027881Y002998D01*
X027826Y002989D01*
X027758Y002967D01*
X027695Y002935D01*
X027638Y002893D01*
X027588Y002843D01*
X027546Y002786D01*
X027514Y002723D01*
X027492Y002655D01*
X027483Y002600D01*
X027881Y002600D01*
X027881Y002500D01*
X027483Y002500D01*
X027492Y002445D01*
X027514Y002377D01*
X027546Y002314D01*
X027588Y002257D01*
X027638Y002207D01*
X027695Y002165D01*
X027758Y002133D01*
X027881Y002126D02*
X027981Y002126D01*
X027981Y002102D02*
X028036Y002111D01*
X028104Y002133D01*
X028167Y002165D01*
X028224Y002207D01*
X028274Y002257D01*
X028316Y002314D01*
X028348Y002377D01*
X028370Y002445D01*
X028379Y002500D01*
X027981Y002500D01*
X027981Y002102D01*
X028082Y002126D02*
X041056Y002126D01*
X041056Y002028D02*
X004806Y002028D01*
X004806Y001929D02*
X026801Y001929D01*
X026851Y001950D02*
X026704Y001889D01*
X026592Y001777D01*
X026531Y001630D01*
X026531Y001470D01*
X026592Y001323D01*
X026704Y001211D01*
X026851Y001150D01*
X027010Y001150D01*
X027157Y001211D01*
X027270Y001323D01*
X027331Y001470D01*
X027331Y001630D01*
X027270Y001777D01*
X027157Y001889D01*
X027010Y001950D01*
X026851Y001950D01*
X027061Y001929D02*
X027801Y001929D01*
X027851Y001950D02*
X027704Y001889D01*
X027592Y001777D01*
X027531Y001630D01*
X027531Y001470D01*
X027592Y001323D01*
X027704Y001211D01*
X027851Y001150D01*
X028010Y001150D01*
X028157Y001211D01*
X028270Y001323D01*
X028331Y001470D01*
X028331Y001630D01*
X028270Y001777D01*
X028157Y001889D01*
X028010Y001950D01*
X027851Y001950D01*
X028061Y001929D02*
X028801Y001929D01*
X028851Y001950D02*
X028704Y001889D01*
X028592Y001777D01*
X028531Y001630D01*
X028531Y001470D01*
X028592Y001323D01*
X028704Y001211D01*
X028851Y001150D01*
X029010Y001150D01*
X029157Y001211D01*
X029270Y001323D01*
X029331Y001470D01*
X029331Y001630D01*
X029270Y001777D01*
X029157Y001889D01*
X029010Y001950D01*
X028851Y001950D01*
X028851Y002150D02*
X029010Y002150D01*
X029157Y002211D01*
X029270Y002323D01*
X029331Y002470D01*
X029331Y002630D01*
X029270Y002777D01*
X029157Y002889D01*
X029010Y002950D01*
X028851Y002950D01*
X028704Y002889D01*
X028592Y002777D01*
X028531Y002630D01*
X028531Y002470D01*
X028592Y002323D01*
X028320Y002323D01*
X028362Y002422D02*
X028551Y002422D01*
X028531Y002520D02*
X027981Y002520D01*
X027981Y002422D02*
X027881Y002422D01*
X027881Y002520D02*
X027331Y002520D01*
X027331Y002619D02*
X027486Y002619D01*
X027512Y002717D02*
X027295Y002717D01*
X027231Y002816D02*
X027568Y002816D01*
X027666Y002914D02*
X027097Y002914D01*
X026531Y002520D02*
X012580Y002520D01*
X012671Y002422D02*
X026551Y002422D01*
X026592Y002323D02*
X026704Y002211D01*
X027171Y002225D02*
X027620Y002225D01*
X027541Y002323D02*
X027270Y002323D01*
X027311Y002422D02*
X027499Y002422D01*
X027881Y002323D02*
X027981Y002323D01*
X027981Y002225D02*
X027881Y002225D01*
X028242Y002225D02*
X028691Y002225D01*
X028704Y002211D02*
X028851Y002150D01*
X028704Y002211D02*
X028592Y002323D01*
X028531Y002619D02*
X028376Y002619D01*
X028350Y002717D02*
X028567Y002717D01*
X028631Y002816D02*
X028294Y002816D01*
X028195Y002914D02*
X028764Y002914D01*
X029097Y002914D02*
X029764Y002914D01*
X029704Y002889D02*
X029592Y002777D01*
X029531Y002630D01*
X029531Y002470D01*
X029592Y002323D01*
X029270Y002323D01*
X029311Y002422D02*
X029551Y002422D01*
X029531Y002520D02*
X029331Y002520D01*
X029331Y002619D02*
X029531Y002619D01*
X029567Y002717D02*
X029295Y002717D01*
X029231Y002816D02*
X029631Y002816D01*
X029704Y002889D02*
X029851Y002950D01*
X030010Y002950D01*
X030157Y002889D01*
X030270Y002777D01*
X030331Y002630D01*
X030331Y002470D01*
X030270Y002323D01*
X030157Y002211D01*
X030010Y002150D01*
X029851Y002150D01*
X029704Y002211D01*
X029592Y002323D01*
X029691Y002225D02*
X029171Y002225D01*
X029061Y001929D02*
X029801Y001929D01*
X029851Y001950D02*
X029704Y001889D01*
X029592Y001777D01*
X029531Y001630D01*
X029531Y001470D01*
X029592Y001323D01*
X029704Y001211D01*
X029851Y001150D01*
X030010Y001150D01*
X030157Y001211D01*
X030270Y001323D01*
X030331Y001470D01*
X030331Y001630D01*
X030270Y001777D01*
X030157Y001889D01*
X030010Y001950D01*
X029851Y001950D01*
X030061Y001929D02*
X030801Y001929D01*
X030851Y001950D02*
X030704Y001889D01*
X030592Y001777D01*
X030531Y001630D01*
X030531Y001470D01*
X030592Y001323D01*
X030704Y001211D01*
X030851Y001150D01*
X031010Y001150D01*
X031157Y001211D01*
X031270Y001323D01*
X031331Y001470D01*
X031331Y001630D01*
X031270Y001777D01*
X031157Y001889D01*
X031010Y001950D01*
X030851Y001950D01*
X030851Y002150D02*
X031010Y002150D01*
X031157Y002211D01*
X031270Y002323D01*
X031331Y002470D01*
X031331Y002630D01*
X031270Y002777D01*
X031157Y002889D01*
X031010Y002950D01*
X030851Y002950D01*
X030704Y002889D01*
X030592Y002777D01*
X030531Y002630D01*
X030531Y002470D01*
X030592Y002323D01*
X030270Y002323D01*
X030311Y002422D02*
X030551Y002422D01*
X030531Y002520D02*
X030331Y002520D01*
X030331Y002619D02*
X030531Y002619D01*
X030567Y002717D02*
X030295Y002717D01*
X030231Y002816D02*
X030631Y002816D01*
X030764Y002914D02*
X030097Y002914D01*
X030171Y002225D02*
X030691Y002225D01*
X030704Y002211D02*
X030851Y002150D01*
X030704Y002211D02*
X030592Y002323D01*
X031171Y002225D02*
X031691Y002225D01*
X031704Y002211D02*
X031592Y002323D01*
X031270Y002323D01*
X031311Y002422D02*
X031551Y002422D01*
X031531Y002470D02*
X031592Y002323D01*
X031704Y002211D02*
X031851Y002150D01*
X032010Y002150D01*
X032157Y002211D01*
X032270Y002323D01*
X032331Y002470D01*
X032331Y002630D01*
X032270Y002777D01*
X032157Y002889D01*
X032010Y002950D01*
X031851Y002950D01*
X031704Y002889D01*
X031592Y002777D01*
X031531Y002630D01*
X031531Y002470D01*
X031531Y002520D02*
X031331Y002520D01*
X031331Y002619D02*
X031531Y002619D01*
X031567Y002717D02*
X031295Y002717D01*
X031231Y002816D02*
X031631Y002816D01*
X031764Y002914D02*
X031097Y002914D01*
X032097Y002914D02*
X032764Y002914D01*
X032704Y002889D02*
X032592Y002777D01*
X032531Y002630D01*
X032531Y002470D01*
X032592Y002323D01*
X032270Y002323D01*
X032311Y002422D02*
X032551Y002422D01*
X032531Y002520D02*
X032331Y002520D01*
X032331Y002619D02*
X032531Y002619D01*
X032567Y002717D02*
X032295Y002717D01*
X032231Y002816D02*
X032631Y002816D01*
X032704Y002889D02*
X032851Y002950D01*
X033010Y002950D01*
X033157Y002889D01*
X033270Y002777D01*
X033331Y002630D01*
X033331Y002470D01*
X033270Y002323D01*
X033157Y002211D01*
X033010Y002150D01*
X032851Y002150D01*
X032704Y002211D01*
X032592Y002323D01*
X032691Y002225D02*
X032171Y002225D01*
X032061Y001929D02*
X032801Y001929D01*
X032851Y001950D02*
X032704Y001889D01*
X032592Y001777D01*
X032531Y001630D01*
X032531Y001470D01*
X032592Y001323D01*
X032704Y001211D01*
X032851Y001150D01*
X033010Y001150D01*
X033157Y001211D01*
X033270Y001323D01*
X033331Y001470D01*
X033331Y001630D01*
X033270Y001777D01*
X033157Y001889D01*
X033010Y001950D01*
X032851Y001950D01*
X033061Y001929D02*
X033801Y001929D01*
X033851Y001950D02*
X033704Y001889D01*
X033592Y001777D01*
X033531Y001630D01*
X033531Y001470D01*
X033592Y001323D01*
X033704Y001211D01*
X033851Y001150D01*
X034010Y001150D01*
X034157Y001211D01*
X034270Y001323D01*
X034331Y001470D01*
X034331Y001630D01*
X034270Y001777D01*
X034157Y001889D01*
X034010Y001950D01*
X033851Y001950D01*
X033851Y002150D02*
X034010Y002150D01*
X034157Y002211D01*
X034270Y002323D01*
X034331Y002470D01*
X034331Y002630D01*
X034270Y002777D01*
X034157Y002889D01*
X034010Y002950D01*
X033851Y002950D01*
X033704Y002889D01*
X033592Y002777D01*
X033531Y002630D01*
X033531Y002470D01*
X033592Y002323D01*
X033270Y002323D01*
X033311Y002422D02*
X033551Y002422D01*
X033531Y002520D02*
X033331Y002520D01*
X033331Y002619D02*
X033531Y002619D01*
X033567Y002717D02*
X033295Y002717D01*
X033231Y002816D02*
X033631Y002816D01*
X033764Y002914D02*
X033097Y002914D01*
X033171Y002225D02*
X033691Y002225D01*
X033704Y002211D02*
X033851Y002150D01*
X033704Y002211D02*
X033592Y002323D01*
X034171Y002225D02*
X034691Y002225D01*
X034704Y002211D02*
X034851Y002150D01*
X035010Y002150D01*
X035157Y002211D01*
X035270Y002323D01*
X035331Y002470D01*
X035331Y002630D01*
X035270Y002777D01*
X035157Y002889D01*
X035010Y002950D01*
X034851Y002950D01*
X034704Y002889D01*
X034592Y002777D01*
X034531Y002630D01*
X034531Y002470D01*
X034592Y002323D01*
X034270Y002323D01*
X034311Y002422D02*
X034551Y002422D01*
X034531Y002520D02*
X034331Y002520D01*
X034331Y002619D02*
X034531Y002619D01*
X034567Y002717D02*
X034295Y002717D01*
X034231Y002816D02*
X034631Y002816D01*
X034764Y002914D02*
X034097Y002914D01*
X034592Y002323D02*
X034704Y002211D01*
X034801Y001929D02*
X034061Y001929D01*
X034216Y001831D02*
X034646Y001831D01*
X034592Y001777D02*
X034531Y001630D01*
X034531Y001470D01*
X034592Y001323D01*
X034704Y001211D01*
X034851Y001150D01*
X035010Y001150D01*
X035157Y001211D01*
X035270Y001323D01*
X035331Y001470D01*
X035331Y001630D01*
X035270Y001777D01*
X035157Y001889D01*
X035010Y001950D01*
X034851Y001950D01*
X034704Y001889D01*
X034592Y001777D01*
X034573Y001732D02*
X034288Y001732D01*
X034329Y001634D02*
X034533Y001634D01*
X034531Y001535D02*
X034331Y001535D01*
X034317Y001437D02*
X034545Y001437D01*
X034586Y001338D02*
X034276Y001338D01*
X034186Y001240D02*
X034676Y001240D01*
X035186Y001240D02*
X035676Y001240D01*
X035704Y001211D02*
X035851Y001150D01*
X036010Y001150D01*
X036157Y001211D01*
X036270Y001323D01*
X036331Y001470D01*
X036331Y001630D01*
X036270Y001777D01*
X036157Y001889D01*
X036010Y001950D01*
X035851Y001950D01*
X035704Y001889D01*
X035592Y001777D01*
X035531Y001630D01*
X035531Y001470D01*
X035592Y001323D01*
X035704Y001211D01*
X035586Y001338D02*
X035276Y001338D01*
X035317Y001437D02*
X035545Y001437D01*
X035531Y001535D02*
X035331Y001535D01*
X035329Y001634D02*
X035533Y001634D01*
X035573Y001732D02*
X035288Y001732D01*
X035216Y001831D02*
X035646Y001831D01*
X035801Y001929D02*
X035061Y001929D01*
X035171Y002225D02*
X035691Y002225D01*
X035704Y002211D02*
X035851Y002150D01*
X036010Y002150D01*
X036157Y002211D01*
X036270Y002323D01*
X036331Y002470D01*
X036331Y002630D01*
X036270Y002777D01*
X036157Y002889D01*
X036010Y002950D01*
X035851Y002950D01*
X035704Y002889D01*
X035592Y002777D01*
X035531Y002630D01*
X035531Y002470D01*
X035592Y002323D01*
X035270Y002323D01*
X035311Y002422D02*
X035551Y002422D01*
X035531Y002520D02*
X035331Y002520D01*
X035331Y002619D02*
X035531Y002619D01*
X035567Y002717D02*
X035295Y002717D01*
X035231Y002816D02*
X035631Y002816D01*
X035764Y002914D02*
X035097Y002914D01*
X035592Y002323D02*
X035704Y002211D01*
X036061Y001929D02*
X041056Y001929D01*
X041056Y001831D02*
X036216Y001831D01*
X036288Y001732D02*
X039864Y001732D01*
X039932Y001732D02*
X040029Y001732D01*
X040097Y001732D02*
X041056Y001732D01*
X041056Y001634D02*
X040279Y001634D01*
X040362Y001535D02*
X041056Y001535D01*
X041056Y001437D02*
X040406Y001437D01*
X040424Y001240D02*
X041056Y001240D01*
X041056Y001338D02*
X040029Y001338D01*
X039932Y001338D02*
X036276Y001338D01*
X036317Y001437D02*
X039555Y001437D01*
X039599Y001535D02*
X036331Y001535D01*
X036329Y001634D02*
X039682Y001634D01*
X039932Y001634D02*
X040029Y001634D01*
X040029Y001535D02*
X039932Y001535D01*
X039932Y001437D02*
X040029Y001437D01*
X040399Y001141D02*
X041056Y001141D01*
X041056Y001043D02*
X040346Y001043D01*
X040251Y000944D02*
X041056Y000944D01*
X039711Y000944D02*
X005801Y000944D01*
X005896Y001043D02*
X039616Y001043D01*
X039563Y001141D02*
X005949Y001141D01*
X005974Y001240D02*
X026676Y001240D01*
X026586Y001338D02*
X005579Y001338D01*
X005482Y001338D02*
X004806Y001338D01*
X004806Y001240D02*
X005088Y001240D01*
X005113Y001141D02*
X004806Y001141D01*
X004806Y001043D02*
X005166Y001043D01*
X005261Y000944D02*
X004806Y000944D01*
X004806Y001437D02*
X005105Y001437D01*
X005149Y001535D02*
X004806Y001535D01*
X004806Y001634D02*
X005232Y001634D01*
X005414Y001732D02*
X004806Y001732D01*
X004806Y001831D02*
X026646Y001831D01*
X026573Y001732D02*
X005647Y001732D01*
X005579Y001732D02*
X005482Y001732D01*
X005482Y001634D02*
X005579Y001634D01*
X005579Y001535D02*
X005482Y001535D01*
X005482Y001437D02*
X005579Y001437D01*
X005829Y001634D02*
X026533Y001634D01*
X026531Y001535D02*
X005912Y001535D01*
X005956Y001437D02*
X026545Y001437D01*
X027186Y001240D02*
X027676Y001240D01*
X027586Y001338D02*
X027276Y001338D01*
X027317Y001437D02*
X027545Y001437D01*
X027531Y001535D02*
X027331Y001535D01*
X027329Y001634D02*
X027533Y001634D01*
X027573Y001732D02*
X027288Y001732D01*
X027216Y001831D02*
X027646Y001831D01*
X028216Y001831D02*
X028646Y001831D01*
X028573Y001732D02*
X028288Y001732D01*
X028329Y001634D02*
X028533Y001634D01*
X028531Y001535D02*
X028331Y001535D01*
X028317Y001437D02*
X028545Y001437D01*
X028586Y001338D02*
X028276Y001338D01*
X028186Y001240D02*
X028676Y001240D01*
X029186Y001240D02*
X029676Y001240D01*
X029586Y001338D02*
X029276Y001338D01*
X029317Y001437D02*
X029545Y001437D01*
X029531Y001535D02*
X029331Y001535D01*
X029329Y001634D02*
X029533Y001634D01*
X029573Y001732D02*
X029288Y001732D01*
X029216Y001831D02*
X029646Y001831D01*
X030216Y001831D02*
X030646Y001831D01*
X030573Y001732D02*
X030288Y001732D01*
X030329Y001634D02*
X030533Y001634D01*
X030531Y001535D02*
X030331Y001535D01*
X030317Y001437D02*
X030545Y001437D01*
X030586Y001338D02*
X030276Y001338D01*
X030186Y001240D02*
X030676Y001240D01*
X031186Y001240D02*
X031676Y001240D01*
X031704Y001211D02*
X031592Y001323D01*
X031531Y001470D01*
X031531Y001630D01*
X031592Y001777D01*
X031704Y001889D01*
X031851Y001950D01*
X032010Y001950D01*
X032157Y001889D01*
X032270Y001777D01*
X032331Y001630D01*
X032331Y001470D01*
X032270Y001323D01*
X032157Y001211D01*
X032010Y001150D01*
X031851Y001150D01*
X031704Y001211D01*
X031586Y001338D02*
X031276Y001338D01*
X031317Y001437D02*
X031545Y001437D01*
X031531Y001535D02*
X031331Y001535D01*
X031329Y001634D02*
X031533Y001634D01*
X031573Y001732D02*
X031288Y001732D01*
X031216Y001831D02*
X031646Y001831D01*
X031801Y001929D02*
X031061Y001929D01*
X032216Y001831D02*
X032646Y001831D01*
X032573Y001732D02*
X032288Y001732D01*
X032329Y001634D02*
X032533Y001634D01*
X032531Y001535D02*
X032331Y001535D01*
X032317Y001437D02*
X032545Y001437D01*
X032586Y001338D02*
X032276Y001338D01*
X032186Y001240D02*
X032676Y001240D01*
X033186Y001240D02*
X033676Y001240D01*
X033586Y001338D02*
X033276Y001338D01*
X033317Y001437D02*
X033545Y001437D01*
X033531Y001535D02*
X033331Y001535D01*
X033329Y001634D02*
X033533Y001634D01*
X033573Y001732D02*
X033288Y001732D01*
X033216Y001831D02*
X033646Y001831D01*
X036097Y002914D02*
X041056Y002914D01*
X041056Y002816D02*
X036231Y002816D01*
X036295Y002717D02*
X041056Y002717D01*
X041056Y002619D02*
X036331Y002619D01*
X036331Y002520D02*
X041056Y002520D01*
X041056Y002422D02*
X036311Y002422D01*
X036270Y002323D02*
X041056Y002323D01*
X041056Y002225D02*
X036171Y002225D01*
X036186Y001240D02*
X039538Y001240D01*
X041056Y003801D02*
X037021Y003801D01*
X036951Y003899D02*
X041056Y003899D01*
X041056Y003998D02*
X030021Y003998D01*
X030004Y004096D02*
X041056Y004096D01*
X041056Y004195D02*
X028544Y004195D01*
X028571Y004293D02*
X041056Y004293D01*
X041056Y004392D02*
X031491Y004392D01*
X031521Y004490D02*
X041056Y004490D01*
X041056Y004589D02*
X031511Y004589D01*
X031413Y004687D02*
X041056Y004687D01*
X041056Y004983D02*
X033482Y004983D01*
X033521Y005081D02*
X041056Y005081D01*
X041056Y005180D02*
X033520Y005180D01*
X033478Y005278D02*
X041056Y005278D01*
X041056Y005377D02*
X033521Y005377D01*
X033575Y005475D02*
X033687Y005475D01*
X033875Y005475D02*
X041056Y005475D01*
X037805Y006362D02*
X033411Y006362D01*
X033313Y006263D02*
X037708Y006263D01*
X036221Y007741D02*
X041056Y007741D01*
X041056Y007839D02*
X036221Y007839D01*
X036162Y007938D02*
X041056Y007938D01*
X041056Y008036D02*
X033246Y008036D01*
X032941Y007741D02*
X031821Y007741D01*
X031821Y007839D02*
X032823Y007839D01*
X032741Y007938D02*
X031762Y007938D01*
X031500Y007938D02*
X031462Y007938D01*
X031141Y007741D02*
X025509Y007741D01*
X025571Y007642D02*
X031220Y007642D01*
X031442Y007642D02*
X031520Y007642D01*
X031742Y007642D02*
X033020Y007642D01*
X031196Y006854D02*
X030786Y006854D01*
X030831Y006756D02*
X031121Y006756D01*
X031121Y006657D02*
X030831Y006657D01*
X030738Y006559D02*
X031184Y006559D01*
X030544Y006559D02*
X030458Y006559D01*
X030184Y006559D02*
X030108Y006559D01*
X030121Y006571D02*
X030010Y006460D01*
X030121Y006571D02*
X030121Y006729D01*
X030121Y006657D02*
X030131Y006657D01*
X030426Y006854D02*
X030496Y006854D01*
X029222Y005278D02*
X033184Y005278D01*
X033142Y005180D02*
X029320Y005180D01*
X029321Y005081D02*
X033141Y005081D01*
X033180Y004983D02*
X029282Y004983D01*
X027795Y005968D02*
X022917Y005968D01*
X023016Y006066D02*
X027741Y006066D01*
X027741Y006165D02*
X023021Y006165D01*
X022987Y006263D02*
X027825Y006263D01*
X030151Y003899D02*
X036711Y003899D01*
X036641Y003801D02*
X030221Y003801D01*
X030221Y003702D02*
X036641Y003702D01*
X036709Y003604D02*
X030153Y003604D01*
X027981Y002914D02*
X027881Y002914D01*
X027881Y002816D02*
X027981Y002816D01*
X027981Y002717D02*
X027881Y002717D01*
X027881Y002619D02*
X027981Y002619D01*
X023549Y004195D02*
X023452Y004195D01*
X023452Y004293D02*
X023549Y004293D01*
X023549Y004392D02*
X023452Y004392D01*
X023452Y004490D02*
X023549Y004490D01*
X023549Y004687D02*
X023452Y004687D01*
X023452Y004786D02*
X023549Y004786D01*
X023549Y004884D02*
X023452Y004884D01*
X023452Y004983D02*
X023549Y004983D01*
X023064Y004490D02*
X022221Y004490D01*
X022191Y004392D02*
X023101Y004392D01*
X026772Y008923D02*
X026960Y008923D01*
X026871Y009021D02*
X026861Y009021D01*
X026861Y009120D02*
X026871Y009120D01*
X026920Y009218D02*
X026812Y009218D01*
X027162Y008923D02*
X027210Y008923D01*
X027412Y008923D02*
X032785Y008923D01*
X036110Y008430D02*
X041056Y008430D01*
X041056Y008332D02*
X036208Y008332D01*
X036211Y008233D02*
X041056Y008233D01*
X041056Y008135D02*
X036174Y008135D01*
X036128Y008529D02*
X041056Y008529D01*
X041056Y008627D02*
X036221Y008627D01*
X036221Y008726D02*
X041056Y008726D01*
X041056Y008824D02*
X036234Y008824D01*
X036291Y008923D02*
X041056Y008923D01*
X041056Y009021D02*
X036291Y009021D01*
X036210Y009120D02*
X041056Y009120D01*
X041056Y009218D02*
X027452Y009218D01*
X033341Y014821D02*
X033452Y014710D01*
X033610Y014710D01*
X033721Y014821D01*
X033721Y014960D01*
X033741Y014960D01*
X033741Y014821D01*
X033852Y014710D01*
X034010Y014710D01*
X034121Y014821D01*
X034121Y014979D01*
X034010Y015090D01*
X033921Y015090D01*
X033921Y015229D01*
X033810Y015340D01*
X033652Y015340D01*
X033541Y015229D01*
X033541Y015090D01*
X033452Y015090D01*
X033341Y014979D01*
X033341Y014821D01*
X033341Y014833D02*
X016317Y014833D01*
X016371Y014734D02*
X033428Y014734D01*
X033634Y014734D02*
X033828Y014734D01*
X033741Y014833D02*
X033721Y014833D01*
X033721Y014931D02*
X033741Y014931D01*
X033921Y015128D02*
X041056Y015128D01*
X041056Y015030D02*
X034070Y015030D01*
X034121Y014931D02*
X037143Y014931D01*
X037091Y014833D02*
X034121Y014833D01*
X034034Y014734D02*
X037091Y014734D01*
X037177Y014636D02*
X016514Y014636D01*
X016571Y014537D02*
X037681Y014537D01*
X037798Y014636D02*
X037385Y014636D01*
X038128Y013651D02*
X038834Y013651D01*
X038696Y013552D02*
X038266Y013552D01*
X038329Y013454D02*
X038633Y013454D01*
X038601Y013355D02*
X038361Y013355D01*
X038361Y013257D02*
X038601Y013257D01*
X038628Y013158D02*
X038333Y013158D01*
X038278Y013060D02*
X038684Y013060D01*
X038806Y012961D02*
X038156Y012961D01*
X040128Y013651D02*
X041056Y013651D01*
X041056Y013552D02*
X040266Y013552D01*
X040329Y013454D02*
X041056Y013454D01*
X041056Y013355D02*
X040361Y013355D01*
X040361Y013257D02*
X041056Y013257D01*
X041056Y013158D02*
X040333Y013158D01*
X040278Y013060D02*
X041056Y013060D01*
X041056Y015227D02*
X033921Y015227D01*
X033825Y015325D02*
X041056Y015325D01*
X041056Y015424D02*
X014329Y015424D01*
X014348Y015325D02*
X033637Y015325D01*
X033541Y015227D02*
X014348Y015227D01*
X014309Y015128D02*
X033541Y015128D01*
X033392Y015030D02*
X014242Y015030D01*
X014097Y014931D02*
X033341Y014931D01*
X032242Y015621D02*
X015210Y015621D01*
X015291Y015719D02*
X032143Y015719D01*
X032141Y015818D02*
X015291Y015818D01*
X015234Y015916D02*
X032178Y015916D01*
X032199Y016113D02*
X014309Y016113D01*
X014350Y016212D02*
X032141Y016212D01*
X032141Y016310D02*
X014500Y016310D01*
X014591Y016409D02*
X032221Y016409D01*
X032441Y016409D02*
X036848Y016409D01*
X037996Y016704D02*
X041056Y016704D01*
X041056Y016606D02*
X038021Y016606D01*
X038726Y018228D02*
X038865Y018170D01*
X039016Y018170D01*
X039156Y018228D01*
X039263Y018335D01*
X039321Y018474D01*
X039321Y018626D01*
X039263Y018765D01*
X039156Y018872D01*
X039016Y018930D01*
X038865Y018930D01*
X038726Y018872D01*
X038619Y018765D01*
X038561Y018626D01*
X038561Y018474D01*
X038619Y018335D01*
X038726Y018228D01*
X038673Y018280D02*
X036227Y018280D01*
X036270Y018323D02*
X036331Y018470D01*
X036331Y018630D01*
X036270Y018777D01*
X036157Y018889D01*
X036010Y018950D01*
X035851Y018950D01*
X035704Y018889D01*
X035592Y018777D01*
X035531Y018630D01*
X035531Y018470D01*
X035592Y018323D01*
X035704Y018211D01*
X035851Y018150D01*
X036010Y018150D01*
X036157Y018211D01*
X036270Y018323D01*
X036293Y018379D02*
X038601Y018379D01*
X038561Y018477D02*
X036331Y018477D01*
X036331Y018576D02*
X038561Y018576D01*
X038581Y018674D02*
X036312Y018674D01*
X036272Y018773D02*
X038626Y018773D01*
X038725Y018871D02*
X036176Y018871D01*
X036050Y019167D02*
X037693Y019167D01*
X037695Y019165D02*
X037758Y019133D01*
X037826Y019111D01*
X037881Y019102D01*
X037881Y019500D01*
X037981Y019500D01*
X037981Y019600D01*
X038379Y019600D01*
X038370Y019655D01*
X038348Y019723D01*
X038316Y019786D01*
X038274Y019843D01*
X038224Y019893D01*
X038167Y019935D01*
X038104Y019967D01*
X038036Y019989D01*
X037981Y019998D01*
X037981Y019600D01*
X037881Y019600D01*
X037881Y019998D01*
X037826Y019989D01*
X037758Y019967D01*
X037695Y019935D01*
X037638Y019893D01*
X037588Y019843D01*
X037546Y019786D01*
X037514Y019723D01*
X037492Y019655D01*
X037483Y019600D01*
X037881Y019600D01*
X037881Y019500D01*
X037483Y019500D01*
X037492Y019445D01*
X037514Y019377D01*
X037546Y019314D01*
X037588Y019257D01*
X037638Y019207D01*
X037695Y019165D01*
X037582Y019265D02*
X036212Y019265D01*
X036157Y019211D02*
X036270Y019323D01*
X036331Y019470D01*
X036331Y019630D01*
X036270Y019777D01*
X036157Y019889D01*
X036010Y019950D01*
X035851Y019950D01*
X035704Y019889D01*
X035592Y019777D01*
X035531Y019630D01*
X035531Y019470D01*
X035592Y019323D01*
X035704Y019211D01*
X035851Y019150D01*
X036010Y019150D01*
X036157Y019211D01*
X036287Y019364D02*
X037521Y019364D01*
X037489Y019462D02*
X036327Y019462D01*
X036331Y019561D02*
X037881Y019561D01*
X037881Y019659D02*
X037981Y019659D01*
X037981Y019561D02*
X038881Y019561D01*
X038881Y019600D02*
X038881Y019500D01*
X038981Y019500D01*
X038981Y019600D01*
X039379Y019600D01*
X039370Y019655D01*
X039348Y019723D01*
X039316Y019786D01*
X039274Y019843D01*
X039224Y019893D01*
X039167Y019935D01*
X039104Y019967D01*
X039036Y019989D01*
X038981Y019998D01*
X038981Y019600D01*
X038881Y019600D01*
X038881Y019998D01*
X038826Y019989D01*
X038758Y019967D01*
X038695Y019935D01*
X038638Y019893D01*
X038588Y019843D01*
X038546Y019786D01*
X038514Y019723D01*
X038492Y019655D01*
X038483Y019600D01*
X038881Y019600D01*
X038881Y019659D02*
X038981Y019659D01*
X038981Y019561D02*
X039531Y019561D01*
X039531Y019630D02*
X039531Y019470D01*
X039592Y019323D01*
X039704Y019211D01*
X039851Y019150D01*
X040010Y019150D01*
X040157Y019211D01*
X040270Y019323D01*
X040331Y019470D01*
X040331Y019630D01*
X040270Y019777D01*
X040157Y019889D01*
X040010Y019950D01*
X039851Y019950D01*
X039704Y019889D01*
X039592Y019777D01*
X039531Y019630D01*
X039543Y019659D02*
X039369Y019659D01*
X039330Y019758D02*
X039584Y019758D01*
X039671Y019856D02*
X039261Y019856D01*
X039128Y019955D02*
X041056Y019955D01*
X041056Y020053D02*
X004806Y020053D01*
X004806Y019955D02*
X009419Y019955D01*
X009447Y019969D02*
X009383Y019937D01*
X009326Y019895D01*
X009276Y019845D01*
X009234Y019788D01*
X009202Y019724D01*
X009180Y019657D01*
X009172Y019602D01*
X009569Y019602D01*
X009569Y019999D01*
X009514Y019991D01*
X009447Y019969D01*
X009569Y019955D02*
X009669Y019955D01*
X009669Y019999D02*
X009725Y019991D01*
X009792Y019969D01*
X009855Y019937D01*
X009912Y019895D01*
X009963Y019845D01*
X010004Y019788D01*
X010036Y019724D01*
X010058Y019657D01*
X010067Y019602D01*
X009669Y019602D01*
X009569Y019602D01*
X009569Y019502D01*
X009172Y019502D01*
X009180Y019446D01*
X009202Y019379D01*
X009234Y019316D01*
X009276Y019259D01*
X009326Y019208D01*
X009383Y019167D01*
X009447Y019135D01*
X009514Y019113D01*
X009569Y019104D01*
X009569Y019502D01*
X009669Y019502D01*
X009669Y019104D01*
X009725Y019113D01*
X009792Y019135D01*
X009855Y019167D01*
X009912Y019208D01*
X009963Y019259D01*
X010004Y019316D01*
X010036Y019379D01*
X010058Y019446D01*
X010067Y019502D01*
X009669Y019502D01*
X009669Y019602D01*
X009669Y019999D01*
X009669Y019856D02*
X009569Y019856D01*
X009569Y019758D02*
X009669Y019758D01*
X009669Y019659D02*
X009569Y019659D01*
X009569Y019561D02*
X009019Y019561D01*
X009019Y019631D02*
X008958Y019778D01*
X008846Y019891D01*
X008699Y019952D01*
X008540Y019952D01*
X008393Y019891D01*
X008280Y019778D01*
X008219Y019631D01*
X008219Y019472D01*
X008280Y019325D01*
X008393Y019213D01*
X008540Y019152D01*
X008699Y019152D01*
X008846Y019213D01*
X008958Y019325D01*
X009019Y019472D01*
X009019Y019631D01*
X009008Y019659D02*
X009181Y019659D01*
X009219Y019758D02*
X008967Y019758D01*
X008881Y019856D02*
X009287Y019856D01*
X009178Y019462D02*
X009015Y019462D01*
X008974Y019364D02*
X009210Y019364D01*
X009271Y019265D02*
X008898Y019265D01*
X008735Y019167D02*
X009384Y019167D01*
X009569Y019167D02*
X009669Y019167D01*
X009669Y019265D02*
X009569Y019265D01*
X009569Y019364D02*
X009669Y019364D01*
X009669Y019462D02*
X009569Y019462D01*
X009669Y019561D02*
X010219Y019561D01*
X010219Y019631D02*
X010219Y019472D01*
X010280Y019325D01*
X010393Y019213D01*
X010540Y019152D01*
X010699Y019152D01*
X010846Y019213D01*
X010958Y019325D01*
X011019Y019472D01*
X011019Y019631D01*
X010958Y019778D01*
X010846Y019891D01*
X010699Y019952D01*
X010540Y019952D01*
X010393Y019891D01*
X010280Y019778D01*
X010219Y019631D01*
X010231Y019659D02*
X010058Y019659D01*
X010019Y019758D02*
X010272Y019758D01*
X010358Y019856D02*
X009951Y019856D01*
X009820Y019955D02*
X012419Y019955D01*
X012447Y019969D02*
X012383Y019937D01*
X012326Y019895D01*
X012276Y019845D01*
X012234Y019788D01*
X012202Y019724D01*
X012180Y019657D01*
X012172Y019602D01*
X012569Y019602D01*
X012569Y019999D01*
X012514Y019991D01*
X012447Y019969D01*
X012569Y019955D02*
X012669Y019955D01*
X012669Y019999D02*
X012725Y019991D01*
X012792Y019969D01*
X012855Y019937D01*
X012912Y019895D01*
X012963Y019845D01*
X013004Y019788D01*
X013036Y019724D01*
X013058Y019657D01*
X013067Y019602D01*
X012669Y019602D01*
X012569Y019602D01*
X012569Y019502D01*
X012172Y019502D01*
X012180Y019446D01*
X012202Y019379D01*
X012234Y019316D01*
X012276Y019259D01*
X012326Y019208D01*
X012383Y019167D01*
X012447Y019135D01*
X012514Y019113D01*
X012569Y019104D01*
X012569Y019502D01*
X012669Y019502D01*
X012669Y019104D01*
X012725Y019113D01*
X012792Y019135D01*
X012855Y019167D01*
X012912Y019208D01*
X012963Y019259D01*
X013004Y019316D01*
X013036Y019379D01*
X013058Y019446D01*
X013067Y019502D01*
X012669Y019502D01*
X012669Y019602D01*
X012669Y019999D01*
X012669Y019856D02*
X012569Y019856D01*
X012569Y019758D02*
X012669Y019758D01*
X012669Y019659D02*
X012569Y019659D01*
X012569Y019561D02*
X012019Y019561D01*
X012019Y019631D02*
X011958Y019778D01*
X011846Y019891D01*
X011699Y019952D01*
X011540Y019952D01*
X011393Y019891D01*
X011280Y019778D01*
X011219Y019631D01*
X011219Y019472D01*
X011280Y019325D01*
X011393Y019213D01*
X011540Y019152D01*
X011699Y019152D01*
X011846Y019213D01*
X011958Y019325D01*
X012019Y019472D01*
X012019Y019631D01*
X012008Y019659D02*
X012181Y019659D01*
X012219Y019758D02*
X011967Y019758D01*
X011881Y019856D02*
X012287Y019856D01*
X012178Y019462D02*
X012015Y019462D01*
X011974Y019364D02*
X012210Y019364D01*
X012271Y019265D02*
X011898Y019265D01*
X011735Y019167D02*
X012384Y019167D01*
X012569Y019167D02*
X012669Y019167D01*
X012669Y019265D02*
X012569Y019265D01*
X012569Y019364D02*
X012669Y019364D01*
X012669Y019462D02*
X012569Y019462D01*
X012669Y019561D02*
X013219Y019561D01*
X013219Y019631D02*
X013219Y019472D01*
X013280Y019325D01*
X013393Y019213D01*
X013540Y019152D01*
X013699Y019152D01*
X013846Y019213D01*
X013958Y019325D01*
X014019Y019472D01*
X014019Y019631D01*
X013958Y019778D01*
X013846Y019891D01*
X013699Y019952D01*
X013540Y019952D01*
X013393Y019891D01*
X013280Y019778D01*
X013219Y019631D01*
X013231Y019659D02*
X013058Y019659D01*
X013019Y019758D02*
X013272Y019758D01*
X013358Y019856D02*
X012951Y019856D01*
X012820Y019955D02*
X017419Y019955D01*
X017447Y019969D02*
X017383Y019937D01*
X017326Y019895D01*
X017276Y019845D01*
X017234Y019788D01*
X017202Y019724D01*
X017180Y019657D01*
X017172Y019602D01*
X017569Y019602D01*
X017569Y019999D01*
X017514Y019991D01*
X017447Y019969D01*
X017569Y019955D02*
X017669Y019955D01*
X017669Y019999D02*
X017725Y019991D01*
X017792Y019969D01*
X017855Y019937D01*
X017912Y019895D01*
X017963Y019845D01*
X018004Y019788D01*
X018036Y019724D01*
X018058Y019657D01*
X018067Y019602D01*
X017669Y019602D01*
X017569Y019602D01*
X017569Y019502D01*
X017172Y019502D01*
X017180Y019446D01*
X017202Y019379D01*
X017234Y019316D01*
X017276Y019259D01*
X017326Y019208D01*
X017383Y019167D01*
X017447Y019135D01*
X017514Y019113D01*
X017569Y019104D01*
X017569Y019502D01*
X017669Y019502D01*
X017669Y019104D01*
X017725Y019113D01*
X017792Y019135D01*
X017855Y019167D01*
X017912Y019208D01*
X017963Y019259D01*
X018004Y019316D01*
X018036Y019379D01*
X018058Y019446D01*
X018067Y019502D01*
X017669Y019502D01*
X017669Y019602D01*
X017669Y019999D01*
X017669Y019856D02*
X017569Y019856D01*
X017569Y019758D02*
X017669Y019758D01*
X017669Y019659D02*
X017569Y019659D01*
X017569Y019561D02*
X017019Y019561D01*
X017019Y019631D02*
X016958Y019778D01*
X016846Y019891D01*
X016699Y019952D01*
X016540Y019952D01*
X016393Y019891D01*
X016280Y019778D01*
X016219Y019631D01*
X016219Y019472D01*
X016280Y019325D01*
X016393Y019213D01*
X016540Y019152D01*
X016699Y019152D01*
X016846Y019213D01*
X016958Y019325D01*
X017019Y019472D01*
X017019Y019631D01*
X017008Y019659D02*
X017181Y019659D01*
X017219Y019758D02*
X016967Y019758D01*
X016881Y019856D02*
X017287Y019856D01*
X017178Y019462D02*
X017015Y019462D01*
X016974Y019364D02*
X017210Y019364D01*
X017271Y019265D02*
X016898Y019265D01*
X016735Y019167D02*
X017384Y019167D01*
X017569Y019167D02*
X017669Y019167D01*
X017669Y019265D02*
X017569Y019265D01*
X017569Y019364D02*
X017669Y019364D01*
X017669Y019462D02*
X017569Y019462D01*
X017669Y019561D02*
X018219Y019561D01*
X018219Y019631D02*
X018219Y019472D01*
X018280Y019325D01*
X018393Y019213D01*
X018540Y019152D01*
X018699Y019152D01*
X018846Y019213D01*
X018958Y019325D01*
X019019Y019472D01*
X019019Y019631D01*
X018958Y019778D01*
X018846Y019891D01*
X018699Y019952D01*
X018540Y019952D01*
X018393Y019891D01*
X018280Y019778D01*
X018219Y019631D01*
X018231Y019659D02*
X018058Y019659D01*
X018019Y019758D02*
X018272Y019758D01*
X018358Y019856D02*
X017951Y019856D01*
X017820Y019955D02*
X022419Y019955D01*
X022447Y019969D02*
X022383Y019937D01*
X022326Y019895D01*
X022276Y019845D01*
X022234Y019788D01*
X022202Y019724D01*
X022180Y019657D01*
X022172Y019602D01*
X022569Y019602D01*
X022569Y019999D01*
X022514Y019991D01*
X022447Y019969D01*
X022569Y019955D02*
X022669Y019955D01*
X022669Y019999D02*
X022725Y019991D01*
X022792Y019969D01*
X022855Y019937D01*
X022912Y019895D01*
X022963Y019845D01*
X023004Y019788D01*
X023036Y019724D01*
X023058Y019657D01*
X023067Y019602D01*
X022669Y019602D01*
X022569Y019602D01*
X022569Y019502D01*
X022172Y019502D01*
X022180Y019446D01*
X022202Y019379D01*
X022234Y019316D01*
X022276Y019259D01*
X022326Y019208D01*
X022383Y019167D01*
X022447Y019135D01*
X022514Y019113D01*
X022569Y019104D01*
X022569Y019502D01*
X022669Y019502D01*
X022669Y019104D01*
X022725Y019113D01*
X022792Y019135D01*
X022855Y019167D01*
X022912Y019208D01*
X022963Y019259D01*
X023004Y019316D01*
X023036Y019379D01*
X023058Y019446D01*
X023067Y019502D01*
X022669Y019502D01*
X022669Y019602D01*
X022669Y019999D01*
X022669Y019856D02*
X022569Y019856D01*
X022569Y019758D02*
X022669Y019758D01*
X022669Y019659D02*
X022569Y019659D01*
X022569Y019561D02*
X022019Y019561D01*
X022019Y019631D02*
X021958Y019778D01*
X021846Y019891D01*
X021699Y019952D01*
X021540Y019952D01*
X021393Y019891D01*
X021280Y019778D01*
X021219Y019631D01*
X021219Y019472D01*
X021280Y019325D01*
X021393Y019213D01*
X021540Y019152D01*
X021699Y019152D01*
X021846Y019213D01*
X021958Y019325D01*
X022019Y019472D01*
X022019Y019631D01*
X022008Y019659D02*
X022181Y019659D01*
X022219Y019758D02*
X021967Y019758D01*
X021881Y019856D02*
X022287Y019856D01*
X022178Y019462D02*
X022015Y019462D01*
X021974Y019364D02*
X022210Y019364D01*
X022271Y019265D02*
X021898Y019265D01*
X021735Y019167D02*
X022384Y019167D01*
X022569Y019167D02*
X022669Y019167D01*
X022669Y019265D02*
X022569Y019265D01*
X022569Y019364D02*
X022669Y019364D01*
X022669Y019462D02*
X022569Y019462D01*
X022669Y019561D02*
X026881Y019561D01*
X026881Y019600D02*
X026881Y019500D01*
X026981Y019500D01*
X026981Y019600D01*
X027379Y019600D01*
X027370Y019655D01*
X027348Y019723D01*
X027316Y019786D01*
X027274Y019843D01*
X027224Y019893D01*
X027167Y019935D01*
X027104Y019967D01*
X027036Y019989D01*
X026981Y019998D01*
X026981Y019600D01*
X026881Y019600D01*
X026881Y019998D01*
X026826Y019989D01*
X026758Y019967D01*
X026695Y019935D01*
X026638Y019893D01*
X026588Y019843D01*
X026546Y019786D01*
X026514Y019723D01*
X026492Y019655D01*
X026483Y019600D01*
X026881Y019600D01*
X026881Y019659D02*
X026981Y019659D01*
X026981Y019561D02*
X027531Y019561D01*
X027531Y019630D02*
X027531Y019470D01*
X027592Y019323D01*
X027704Y019211D01*
X027851Y019150D01*
X028010Y019150D01*
X028157Y019211D01*
X028270Y019323D01*
X028331Y019470D01*
X028331Y019630D01*
X028270Y019777D01*
X028157Y019889D01*
X028010Y019950D01*
X027851Y019950D01*
X027704Y019889D01*
X027592Y019777D01*
X027531Y019630D01*
X027543Y019659D02*
X027369Y019659D01*
X027330Y019758D02*
X027584Y019758D01*
X027671Y019856D02*
X027261Y019856D01*
X027128Y019955D02*
X037734Y019955D01*
X037881Y019955D02*
X037981Y019955D01*
X037981Y019856D02*
X037881Y019856D01*
X037881Y019758D02*
X037981Y019758D01*
X038128Y019955D02*
X038734Y019955D01*
X038881Y019955D02*
X038981Y019955D01*
X038981Y019856D02*
X038881Y019856D01*
X038881Y019758D02*
X038981Y019758D01*
X038981Y019500D02*
X039379Y019500D01*
X039370Y019445D01*
X039348Y019377D01*
X039316Y019314D01*
X039274Y019257D01*
X039224Y019207D01*
X039167Y019165D01*
X039104Y019133D01*
X039036Y019111D01*
X038981Y019102D01*
X038981Y019500D01*
X038981Y019462D02*
X038881Y019462D01*
X038881Y019500D02*
X038881Y019102D01*
X038826Y019111D01*
X038758Y019133D01*
X038695Y019165D01*
X038638Y019207D01*
X038588Y019257D01*
X038546Y019314D01*
X038514Y019377D01*
X038492Y019445D01*
X038483Y019500D01*
X038881Y019500D01*
X038881Y019364D02*
X038981Y019364D01*
X038981Y019265D02*
X038881Y019265D01*
X038881Y019167D02*
X038981Y019167D01*
X039169Y019167D02*
X039811Y019167D01*
X039650Y019265D02*
X039280Y019265D01*
X039341Y019364D02*
X039575Y019364D01*
X039534Y019462D02*
X039373Y019462D01*
X040050Y019167D02*
X041056Y019167D01*
X041056Y019265D02*
X040212Y019265D01*
X040287Y019364D02*
X041056Y019364D01*
X041056Y019462D02*
X040327Y019462D01*
X040331Y019561D02*
X041056Y019561D01*
X041056Y019659D02*
X040319Y019659D01*
X040278Y019758D02*
X041056Y019758D01*
X041056Y019856D02*
X040191Y019856D01*
X041056Y020152D02*
X004806Y020152D01*
X004806Y019856D02*
X008358Y019856D01*
X008272Y019758D02*
X004806Y019758D01*
X004806Y019659D02*
X008231Y019659D01*
X008219Y019561D02*
X004806Y019561D01*
X004806Y019462D02*
X005655Y019462D01*
X005659Y019464D02*
X005597Y019432D01*
X005540Y019391D01*
X005490Y019341D01*
X005449Y019284D01*
X005417Y019222D01*
X005395Y019155D01*
X005386Y019098D01*
X005782Y019098D01*
X005782Y019002D01*
X005386Y019002D01*
X005395Y018945D01*
X005417Y018878D01*
X005449Y018816D01*
X005490Y018759D01*
X005540Y018709D01*
X005597Y018668D01*
X005659Y018636D01*
X005726Y018614D01*
X005782Y018605D01*
X005782Y019002D01*
X005879Y019002D01*
X005879Y019098D01*
X006276Y019098D01*
X006267Y019155D01*
X006245Y019222D01*
X006213Y019284D01*
X006172Y019341D01*
X006122Y019391D01*
X006065Y019432D01*
X006002Y019464D01*
X005936Y019486D01*
X005879Y019495D01*
X005879Y019098D01*
X005782Y019098D01*
X005782Y019495D01*
X005726Y019486D01*
X005659Y019464D01*
X005782Y019462D02*
X005879Y019462D01*
X005879Y019364D02*
X005782Y019364D01*
X005782Y019265D02*
X005879Y019265D01*
X005879Y019167D02*
X005782Y019167D01*
X005782Y019068D02*
X004806Y019068D01*
X004806Y018970D02*
X005391Y018970D01*
X005421Y018871D02*
X004806Y018871D01*
X004806Y018773D02*
X005480Y018773D01*
X005588Y018674D02*
X004806Y018674D01*
X004806Y018576D02*
X008219Y018576D01*
X008219Y018631D02*
X008219Y018472D01*
X008280Y018325D01*
X008393Y018213D01*
X008540Y018152D01*
X008699Y018152D01*
X008846Y018213D01*
X008958Y018325D01*
X009019Y018472D01*
X009019Y018631D01*
X008958Y018778D01*
X008846Y018891D01*
X008699Y018952D01*
X008540Y018952D01*
X008393Y018891D01*
X008280Y018778D01*
X008219Y018631D01*
X008237Y018674D02*
X006074Y018674D01*
X006065Y018668D02*
X006122Y018709D01*
X006172Y018759D01*
X006213Y018816D01*
X006245Y018878D01*
X006267Y018945D01*
X006276Y019002D01*
X005879Y019002D01*
X005879Y018605D01*
X005936Y018614D01*
X006002Y018636D01*
X006065Y018668D01*
X006182Y018773D02*
X008278Y018773D01*
X008373Y018871D02*
X006241Y018871D01*
X006271Y018970D02*
X009449Y018970D01*
X009447Y018969D02*
X009383Y018937D01*
X009326Y018895D01*
X009276Y018845D01*
X009234Y018788D01*
X009202Y018724D01*
X009180Y018657D01*
X009172Y018602D01*
X009569Y018602D01*
X009569Y018999D01*
X009514Y018991D01*
X009447Y018969D01*
X009569Y018970D02*
X009669Y018970D01*
X009669Y018999D02*
X009725Y018991D01*
X009792Y018969D01*
X009855Y018937D01*
X009912Y018895D01*
X009963Y018845D01*
X010004Y018788D01*
X010036Y018724D01*
X010058Y018657D01*
X010067Y018602D01*
X009669Y018602D01*
X009569Y018602D01*
X009569Y018502D01*
X009172Y018502D01*
X009180Y018446D01*
X009202Y018379D01*
X009234Y018316D01*
X009276Y018259D01*
X009326Y018208D01*
X009383Y018167D01*
X009447Y018135D01*
X009514Y018113D01*
X009569Y018104D01*
X009569Y018502D01*
X009669Y018502D01*
X009669Y018104D01*
X009725Y018113D01*
X009792Y018135D01*
X009855Y018167D01*
X009912Y018208D01*
X009963Y018259D01*
X010004Y018316D01*
X010036Y018379D01*
X010058Y018446D01*
X010067Y018502D01*
X009669Y018502D01*
X009669Y018602D01*
X009669Y018999D01*
X009790Y018970D02*
X012449Y018970D01*
X012447Y018969D02*
X012383Y018937D01*
X012326Y018895D01*
X012276Y018845D01*
X012234Y018788D01*
X012202Y018724D01*
X012180Y018657D01*
X012172Y018602D01*
X012569Y018602D01*
X012569Y018999D01*
X012514Y018991D01*
X012447Y018969D01*
X012569Y018970D02*
X012669Y018970D01*
X012669Y018999D02*
X012725Y018991D01*
X012792Y018969D01*
X012855Y018937D01*
X012912Y018895D01*
X012963Y018845D01*
X013004Y018788D01*
X013036Y018724D01*
X013058Y018657D01*
X013067Y018602D01*
X012669Y018602D01*
X012569Y018602D01*
X012569Y018502D01*
X012172Y018502D01*
X012180Y018446D01*
X012202Y018379D01*
X012234Y018316D01*
X012276Y018259D01*
X012326Y018208D01*
X012383Y018167D01*
X012447Y018135D01*
X012514Y018113D01*
X012569Y018104D01*
X012569Y018502D01*
X012669Y018502D01*
X012669Y018104D01*
X012725Y018113D01*
X012792Y018135D01*
X012855Y018167D01*
X012912Y018208D01*
X012963Y018259D01*
X013004Y018316D01*
X013036Y018379D01*
X013058Y018446D01*
X013067Y018502D01*
X012669Y018502D01*
X012669Y018602D01*
X012669Y018999D01*
X012790Y018970D02*
X017449Y018970D01*
X017447Y018969D02*
X017383Y018937D01*
X017326Y018895D01*
X017276Y018845D01*
X017234Y018788D01*
X017202Y018724D01*
X017180Y018657D01*
X017172Y018602D01*
X017569Y018602D01*
X017569Y018999D01*
X017514Y018991D01*
X017447Y018969D01*
X017569Y018970D02*
X017669Y018970D01*
X017669Y018999D02*
X017725Y018991D01*
X017792Y018969D01*
X017855Y018937D01*
X017912Y018895D01*
X017963Y018845D01*
X018004Y018788D01*
X018036Y018724D01*
X018058Y018657D01*
X018067Y018602D01*
X017669Y018602D01*
X017569Y018602D01*
X017569Y018502D01*
X017172Y018502D01*
X017180Y018446D01*
X017202Y018379D01*
X017234Y018316D01*
X017276Y018259D01*
X017326Y018208D01*
X017383Y018167D01*
X017447Y018135D01*
X017514Y018113D01*
X017569Y018104D01*
X017569Y018502D01*
X017669Y018502D01*
X017669Y018104D01*
X017725Y018113D01*
X017792Y018135D01*
X017855Y018167D01*
X017912Y018208D01*
X017963Y018259D01*
X018004Y018316D01*
X018036Y018379D01*
X018058Y018446D01*
X018067Y018502D01*
X017669Y018502D01*
X017669Y018602D01*
X017669Y018999D01*
X017790Y018970D02*
X022449Y018970D01*
X022447Y018969D02*
X022383Y018937D01*
X022326Y018895D01*
X022276Y018845D01*
X022234Y018788D01*
X022202Y018724D01*
X022180Y018657D01*
X022172Y018602D01*
X022569Y018602D01*
X022569Y018999D01*
X022514Y018991D01*
X022447Y018969D01*
X022569Y018970D02*
X022669Y018970D01*
X022669Y018999D02*
X022725Y018991D01*
X022792Y018969D01*
X022855Y018937D01*
X022912Y018895D01*
X022963Y018845D01*
X023004Y018788D01*
X023036Y018724D01*
X023058Y018657D01*
X023067Y018602D01*
X022669Y018602D01*
X022569Y018602D01*
X022569Y018502D01*
X022172Y018502D01*
X022180Y018446D01*
X022202Y018379D01*
X022234Y018316D01*
X022276Y018259D01*
X022326Y018208D01*
X022383Y018167D01*
X022447Y018135D01*
X022514Y018113D01*
X022569Y018104D01*
X022569Y018502D01*
X022669Y018502D01*
X022669Y018104D01*
X022725Y018113D01*
X022792Y018135D01*
X022855Y018167D01*
X022912Y018208D01*
X022963Y018259D01*
X023004Y018316D01*
X023036Y018379D01*
X023058Y018446D01*
X023067Y018502D01*
X022669Y018502D01*
X022669Y018602D01*
X022669Y018999D01*
X022790Y018970D02*
X039841Y018970D01*
X039840Y018969D02*
X039776Y018948D01*
X039716Y018918D01*
X039661Y018878D01*
X039613Y018830D01*
X039573Y018775D01*
X039542Y018715D01*
X039521Y018651D01*
X039512Y018590D01*
X039901Y018590D01*
X039901Y018979D01*
X039840Y018969D01*
X039901Y018970D02*
X039981Y018970D01*
X039981Y018979D02*
X039981Y018590D01*
X040370Y018590D01*
X040360Y018651D01*
X040339Y018715D01*
X040309Y018775D01*
X040269Y018830D01*
X040221Y018878D01*
X040166Y018918D01*
X040106Y018948D01*
X040042Y018969D01*
X039981Y018979D01*
X040041Y018970D02*
X041056Y018970D01*
X041056Y019068D02*
X005879Y019068D01*
X005879Y018970D02*
X005782Y018970D01*
X005782Y018871D02*
X005879Y018871D01*
X005879Y018773D02*
X005782Y018773D01*
X005782Y018674D02*
X005879Y018674D01*
X006263Y019167D02*
X008504Y019167D01*
X008340Y019265D02*
X006223Y019265D01*
X006149Y019364D02*
X008264Y019364D01*
X008223Y019462D02*
X006006Y019462D01*
X005512Y019364D02*
X004806Y019364D01*
X004806Y019265D02*
X005439Y019265D01*
X005399Y019167D02*
X004806Y019167D01*
X004806Y018477D02*
X008219Y018477D01*
X008258Y018379D02*
X004806Y018379D01*
X004806Y018280D02*
X008325Y018280D01*
X008468Y018182D02*
X004806Y018182D01*
X004806Y018083D02*
X030595Y018083D01*
X030497Y017985D02*
X004806Y017985D01*
X004806Y016901D02*
X006561Y016901D01*
X006561Y016803D02*
X004806Y016803D01*
X004806Y016704D02*
X006628Y016704D01*
X006561Y016606D02*
X004806Y016606D01*
X004806Y016507D02*
X006561Y016507D01*
X006604Y016409D02*
X004806Y016409D01*
X004806Y015916D02*
X005211Y015916D01*
X005211Y015818D02*
X004806Y015818D01*
X004806Y015719D02*
X005253Y015719D01*
X004806Y015621D02*
X013710Y015621D01*
X014192Y015621D02*
X014992Y015621D01*
X014911Y015719D02*
X010101Y015719D01*
X010032Y015128D02*
X013593Y015128D01*
X013660Y015030D02*
X010130Y015030D01*
X010171Y016803D02*
X032645Y016803D01*
X033241Y017000D02*
X027891Y017000D01*
X027891Y016971D02*
X027780Y016860D01*
X027622Y016860D01*
X027511Y016971D01*
X027511Y017129D01*
X027622Y017240D01*
X027780Y017240D01*
X027891Y017129D01*
X027891Y016971D01*
X027821Y016901D02*
X033291Y016901D01*
X033241Y017098D02*
X027891Y017098D01*
X027823Y017197D02*
X033329Y017197D01*
X033010Y018150D02*
X033157Y018211D01*
X033270Y018323D01*
X033331Y018470D01*
X033331Y018630D01*
X033270Y018777D01*
X033157Y018889D01*
X033010Y018950D01*
X032851Y018950D01*
X032704Y018889D01*
X032592Y018777D01*
X032531Y018630D01*
X032531Y018470D01*
X032592Y018323D01*
X032704Y018211D01*
X032851Y018150D01*
X033010Y018150D01*
X033087Y018182D02*
X033775Y018182D01*
X033704Y018211D02*
X033851Y018150D01*
X034010Y018150D01*
X034157Y018211D01*
X034270Y018323D01*
X034331Y018470D01*
X034331Y018630D01*
X034270Y018777D01*
X034157Y018889D01*
X034010Y018950D01*
X033851Y018950D01*
X033704Y018889D01*
X033592Y018777D01*
X033531Y018630D01*
X033531Y018470D01*
X033592Y018323D01*
X033704Y018211D01*
X033635Y018280D02*
X033227Y018280D01*
X033293Y018379D02*
X033569Y018379D01*
X033531Y018477D02*
X033331Y018477D01*
X033331Y018576D02*
X033531Y018576D01*
X033549Y018674D02*
X033312Y018674D01*
X033272Y018773D02*
X033590Y018773D01*
X033686Y018871D02*
X033176Y018871D01*
X033050Y019167D02*
X033811Y019167D01*
X033851Y019150D02*
X034010Y019150D01*
X034157Y019211D01*
X034270Y019323D01*
X034331Y019470D01*
X034331Y019630D01*
X034270Y019777D01*
X034157Y019889D01*
X034010Y019950D01*
X033851Y019950D01*
X033704Y019889D01*
X033592Y019777D01*
X033531Y019630D01*
X033531Y019470D01*
X033592Y019323D01*
X033704Y019211D01*
X033851Y019150D01*
X034050Y019167D02*
X034811Y019167D01*
X034851Y019150D02*
X034704Y019211D01*
X034592Y019323D01*
X034531Y019470D01*
X034531Y019630D01*
X034592Y019777D01*
X034704Y019889D01*
X034851Y019950D01*
X035010Y019950D01*
X035157Y019889D01*
X035270Y019777D01*
X035331Y019630D01*
X035331Y019470D01*
X035270Y019323D01*
X035157Y019211D01*
X035010Y019150D01*
X034851Y019150D01*
X034851Y018950D02*
X034704Y018889D01*
X034592Y018777D01*
X034531Y018630D01*
X034531Y018470D01*
X034592Y018323D01*
X034704Y018211D01*
X034851Y018150D01*
X035010Y018150D01*
X035157Y018211D01*
X035270Y018323D01*
X035331Y018470D01*
X035331Y018630D01*
X035270Y018777D01*
X035157Y018889D01*
X035010Y018950D01*
X034851Y018950D01*
X034686Y018871D02*
X034176Y018871D01*
X034272Y018773D02*
X034590Y018773D01*
X034549Y018674D02*
X034312Y018674D01*
X034331Y018576D02*
X034531Y018576D01*
X034531Y018477D02*
X034331Y018477D01*
X034293Y018379D02*
X034569Y018379D01*
X034635Y018280D02*
X034227Y018280D01*
X034087Y018182D02*
X034775Y018182D01*
X035087Y018182D02*
X035775Y018182D01*
X035635Y018280D02*
X035227Y018280D01*
X035293Y018379D02*
X035569Y018379D01*
X035531Y018477D02*
X035331Y018477D01*
X035331Y018576D02*
X035531Y018576D01*
X035549Y018674D02*
X035312Y018674D01*
X035272Y018773D02*
X035590Y018773D01*
X035686Y018871D02*
X035176Y018871D01*
X035050Y019167D02*
X035811Y019167D01*
X035650Y019265D02*
X035212Y019265D01*
X035287Y019364D02*
X035575Y019364D01*
X035534Y019462D02*
X035327Y019462D01*
X035331Y019561D02*
X035531Y019561D01*
X035543Y019659D02*
X035319Y019659D01*
X035278Y019758D02*
X035584Y019758D01*
X035671Y019856D02*
X035191Y019856D01*
X034671Y019856D02*
X034191Y019856D01*
X034278Y019758D02*
X034584Y019758D01*
X034543Y019659D02*
X034319Y019659D01*
X034331Y019561D02*
X034531Y019561D01*
X034534Y019462D02*
X034327Y019462D01*
X034287Y019364D02*
X034575Y019364D01*
X034650Y019265D02*
X034212Y019265D01*
X033650Y019265D02*
X033212Y019265D01*
X033157Y019211D02*
X033270Y019323D01*
X033331Y019470D01*
X033331Y019630D01*
X033270Y019777D01*
X033157Y019889D01*
X033010Y019950D01*
X032851Y019950D01*
X032704Y019889D01*
X032592Y019777D01*
X032531Y019630D01*
X032531Y019470D01*
X032592Y019323D01*
X032704Y019211D01*
X032851Y019150D01*
X033010Y019150D01*
X033157Y019211D01*
X033287Y019364D02*
X033575Y019364D01*
X033534Y019462D02*
X033327Y019462D01*
X033331Y019561D02*
X033531Y019561D01*
X033543Y019659D02*
X033319Y019659D01*
X033278Y019758D02*
X033584Y019758D01*
X033671Y019856D02*
X033191Y019856D01*
X032671Y019856D02*
X032191Y019856D01*
X032157Y019889D02*
X032010Y019950D01*
X031851Y019950D01*
X031704Y019889D01*
X031592Y019777D01*
X031531Y019630D01*
X031531Y019470D01*
X031592Y019323D01*
X031704Y019211D01*
X031851Y019150D01*
X032010Y019150D01*
X032157Y019211D01*
X032270Y019323D01*
X032331Y019470D01*
X032331Y019630D01*
X032270Y019777D01*
X032157Y019889D01*
X032278Y019758D02*
X032584Y019758D01*
X032543Y019659D02*
X032319Y019659D01*
X032331Y019561D02*
X032531Y019561D01*
X032534Y019462D02*
X032327Y019462D01*
X032287Y019364D02*
X032575Y019364D01*
X032650Y019265D02*
X032212Y019265D01*
X032050Y019167D02*
X032811Y019167D01*
X032686Y018871D02*
X032176Y018871D01*
X032157Y018889D02*
X032010Y018950D01*
X031851Y018950D01*
X031704Y018889D01*
X031592Y018777D01*
X031531Y018630D01*
X031531Y018470D01*
X031592Y018323D01*
X031704Y018211D01*
X031851Y018150D01*
X032010Y018150D01*
X032157Y018211D01*
X032270Y018323D01*
X032331Y018470D01*
X032331Y018630D01*
X032270Y018777D01*
X032157Y018889D01*
X032272Y018773D02*
X032590Y018773D01*
X032549Y018674D02*
X032312Y018674D01*
X032331Y018576D02*
X032531Y018576D01*
X032531Y018477D02*
X032331Y018477D01*
X032293Y018379D02*
X032569Y018379D01*
X032635Y018280D02*
X032227Y018280D01*
X032087Y018182D02*
X032775Y018182D01*
X031775Y018182D02*
X031087Y018182D01*
X031157Y018211D02*
X031270Y018323D01*
X031331Y018470D01*
X031331Y018630D01*
X031270Y018777D01*
X031157Y018889D01*
X031010Y018950D01*
X030851Y018950D01*
X030704Y018889D01*
X030592Y018777D01*
X030531Y018630D01*
X030531Y018470D01*
X030592Y018323D01*
X030704Y018211D01*
X030851Y018150D01*
X031010Y018150D01*
X031157Y018211D01*
X031227Y018280D02*
X031635Y018280D01*
X031569Y018379D02*
X031293Y018379D01*
X031331Y018477D02*
X031531Y018477D01*
X031531Y018576D02*
X031331Y018576D01*
X031312Y018674D02*
X031549Y018674D01*
X031590Y018773D02*
X031272Y018773D01*
X031176Y018871D02*
X031686Y018871D01*
X031811Y019167D02*
X031050Y019167D01*
X031010Y019150D02*
X031157Y019211D01*
X031270Y019323D01*
X031331Y019470D01*
X031331Y019630D01*
X031270Y019777D01*
X031157Y019889D01*
X031010Y019950D01*
X030851Y019950D01*
X030704Y019889D01*
X030592Y019777D01*
X030531Y019630D01*
X030531Y019470D01*
X030592Y019323D01*
X030704Y019211D01*
X030851Y019150D01*
X031010Y019150D01*
X030811Y019167D02*
X030050Y019167D01*
X030010Y019150D02*
X030157Y019211D01*
X030270Y019323D01*
X030331Y019470D01*
X030331Y019630D01*
X030270Y019777D01*
X030157Y019889D01*
X030010Y019950D01*
X029851Y019950D01*
X029704Y019889D01*
X029592Y019777D01*
X029531Y019630D01*
X029531Y019470D01*
X029592Y019323D01*
X029704Y019211D01*
X029851Y019150D01*
X030010Y019150D01*
X029811Y019167D02*
X029050Y019167D01*
X029010Y019150D02*
X029157Y019211D01*
X029270Y019323D01*
X029331Y019470D01*
X029331Y019630D01*
X029270Y019777D01*
X029157Y019889D01*
X029010Y019950D01*
X028851Y019950D01*
X028704Y019889D01*
X028592Y019777D01*
X028531Y019630D01*
X028531Y019470D01*
X028592Y019323D01*
X028704Y019211D01*
X028851Y019150D01*
X029010Y019150D01*
X028811Y019167D02*
X028050Y019167D01*
X028212Y019265D02*
X028650Y019265D01*
X028575Y019364D02*
X028287Y019364D01*
X028327Y019462D02*
X028534Y019462D01*
X028531Y019561D02*
X028331Y019561D01*
X028319Y019659D02*
X028543Y019659D01*
X028584Y019758D02*
X028278Y019758D01*
X028191Y019856D02*
X028671Y019856D01*
X029191Y019856D02*
X029671Y019856D01*
X029584Y019758D02*
X029278Y019758D01*
X029319Y019659D02*
X029543Y019659D01*
X029531Y019561D02*
X029331Y019561D01*
X029327Y019462D02*
X029534Y019462D01*
X029575Y019364D02*
X029287Y019364D01*
X029212Y019265D02*
X029650Y019265D01*
X029851Y018950D02*
X029704Y018889D01*
X029592Y018777D01*
X029531Y018630D01*
X029531Y018470D01*
X029592Y018323D01*
X029704Y018211D01*
X029851Y018150D01*
X030010Y018150D01*
X030157Y018211D01*
X030270Y018323D01*
X030331Y018470D01*
X030331Y018630D01*
X030270Y018777D01*
X030157Y018889D01*
X030010Y018950D01*
X029851Y018950D01*
X029686Y018871D02*
X029176Y018871D01*
X029157Y018889D02*
X029010Y018950D01*
X028851Y018950D01*
X028704Y018889D01*
X028592Y018777D01*
X028531Y018630D01*
X028531Y018470D01*
X028592Y018323D01*
X028704Y018211D01*
X028851Y018150D01*
X029010Y018150D01*
X029157Y018211D01*
X029270Y018323D01*
X029331Y018470D01*
X029331Y018630D01*
X029270Y018777D01*
X029157Y018889D01*
X029272Y018773D02*
X029590Y018773D01*
X029549Y018674D02*
X029312Y018674D01*
X029331Y018576D02*
X029531Y018576D01*
X029531Y018477D02*
X029331Y018477D01*
X029293Y018379D02*
X029569Y018379D01*
X029635Y018280D02*
X029227Y018280D01*
X029087Y018182D02*
X029775Y018182D01*
X030087Y018182D02*
X030775Y018182D01*
X030635Y018280D02*
X030227Y018280D01*
X030293Y018379D02*
X030569Y018379D01*
X030531Y018477D02*
X030331Y018477D01*
X030331Y018576D02*
X030531Y018576D01*
X030549Y018674D02*
X030312Y018674D01*
X030272Y018773D02*
X030590Y018773D01*
X030686Y018871D02*
X030176Y018871D01*
X030212Y019265D02*
X030650Y019265D01*
X030575Y019364D02*
X030287Y019364D01*
X030327Y019462D02*
X030534Y019462D01*
X030531Y019561D02*
X030331Y019561D01*
X030319Y019659D02*
X030543Y019659D01*
X030584Y019758D02*
X030278Y019758D01*
X030191Y019856D02*
X030671Y019856D01*
X031191Y019856D02*
X031671Y019856D01*
X031584Y019758D02*
X031278Y019758D01*
X031319Y019659D02*
X031543Y019659D01*
X031531Y019561D02*
X031331Y019561D01*
X031327Y019462D02*
X031534Y019462D01*
X031575Y019364D02*
X031287Y019364D01*
X031212Y019265D02*
X031650Y019265D01*
X028686Y018871D02*
X028176Y018871D01*
X028157Y018889D02*
X028010Y018950D01*
X027851Y018950D01*
X027704Y018889D01*
X027592Y018777D01*
X027531Y018630D01*
X027531Y018470D01*
X027592Y018323D01*
X027704Y018211D01*
X027851Y018150D01*
X028010Y018150D01*
X028157Y018211D01*
X028270Y018323D01*
X028331Y018470D01*
X028331Y018630D01*
X028270Y018777D01*
X028157Y018889D01*
X028272Y018773D02*
X028590Y018773D01*
X028549Y018674D02*
X028312Y018674D01*
X028331Y018576D02*
X028531Y018576D01*
X028531Y018477D02*
X028331Y018477D01*
X028293Y018379D02*
X028569Y018379D01*
X028635Y018280D02*
X028227Y018280D01*
X028087Y018182D02*
X028775Y018182D01*
X027775Y018182D02*
X027087Y018182D01*
X027157Y018211D02*
X027270Y018323D01*
X027331Y018470D01*
X027331Y018630D01*
X027270Y018777D01*
X027157Y018889D01*
X027010Y018950D01*
X026851Y018950D01*
X026704Y018889D01*
X026592Y018777D01*
X026531Y018630D01*
X026531Y018470D01*
X026592Y018323D01*
X026704Y018211D01*
X026851Y018150D01*
X027010Y018150D01*
X027157Y018211D01*
X027227Y018280D02*
X027635Y018280D01*
X027569Y018379D02*
X027293Y018379D01*
X027331Y018477D02*
X027531Y018477D01*
X027531Y018576D02*
X027331Y018576D01*
X027312Y018674D02*
X027549Y018674D01*
X027590Y018773D02*
X027272Y018773D01*
X027176Y018871D02*
X027686Y018871D01*
X027811Y019167D02*
X027169Y019167D01*
X027167Y019165D02*
X027224Y019207D01*
X027274Y019257D01*
X027316Y019314D01*
X027348Y019377D01*
X027370Y019445D01*
X027379Y019500D01*
X026981Y019500D01*
X026981Y019102D01*
X027036Y019111D01*
X027104Y019133D01*
X027167Y019165D01*
X027280Y019265D02*
X027650Y019265D01*
X027575Y019364D02*
X027341Y019364D01*
X027373Y019462D02*
X027534Y019462D01*
X026981Y019462D02*
X026881Y019462D01*
X026881Y019500D02*
X026881Y019102D01*
X026826Y019111D01*
X026758Y019133D01*
X026695Y019165D01*
X026638Y019207D01*
X026588Y019257D01*
X026546Y019314D01*
X026514Y019377D01*
X026492Y019445D01*
X026483Y019500D01*
X026881Y019500D01*
X026881Y019364D02*
X026981Y019364D01*
X026981Y019265D02*
X026881Y019265D01*
X026881Y019167D02*
X026981Y019167D01*
X026693Y019167D02*
X022855Y019167D01*
X022967Y019265D02*
X026582Y019265D01*
X026521Y019364D02*
X023028Y019364D01*
X023061Y019462D02*
X026489Y019462D01*
X026493Y019659D02*
X023058Y019659D01*
X023019Y019758D02*
X026532Y019758D01*
X026601Y019856D02*
X022951Y019856D01*
X022820Y019955D02*
X026734Y019955D01*
X026881Y019955D02*
X026981Y019955D01*
X026981Y019856D02*
X026881Y019856D01*
X026881Y019758D02*
X026981Y019758D01*
X026686Y018871D02*
X022936Y018871D01*
X023012Y018773D02*
X026590Y018773D01*
X026549Y018674D02*
X023053Y018674D01*
X023063Y018477D02*
X026531Y018477D01*
X026531Y018576D02*
X022669Y018576D01*
X022669Y018674D02*
X022569Y018674D01*
X022569Y018576D02*
X022019Y018576D01*
X022019Y018631D02*
X022019Y018472D01*
X021958Y018325D01*
X021846Y018213D01*
X021699Y018152D01*
X021540Y018152D01*
X021393Y018213D01*
X021280Y018325D01*
X021219Y018472D01*
X021219Y018631D01*
X021280Y018778D01*
X021393Y018891D01*
X021540Y018952D01*
X021699Y018952D01*
X021846Y018891D01*
X021958Y018778D01*
X022019Y018631D01*
X022002Y018674D02*
X022186Y018674D01*
X022227Y018773D02*
X021961Y018773D01*
X021866Y018871D02*
X022302Y018871D01*
X022569Y018871D02*
X022669Y018871D01*
X022669Y018773D02*
X022569Y018773D01*
X022569Y018477D02*
X022669Y018477D01*
X022669Y018379D02*
X022569Y018379D01*
X022569Y018280D02*
X022669Y018280D01*
X022669Y018182D02*
X022569Y018182D01*
X022363Y018182D02*
X021771Y018182D01*
X021913Y018280D02*
X022260Y018280D01*
X022202Y018379D02*
X021981Y018379D01*
X022019Y018477D02*
X022175Y018477D01*
X021468Y018182D02*
X020771Y018182D01*
X020699Y018152D02*
X020846Y018213D01*
X020958Y018325D01*
X021019Y018472D01*
X021019Y018631D01*
X020958Y018778D01*
X020846Y018891D01*
X020699Y018952D01*
X020540Y018952D01*
X020393Y018891D01*
X020280Y018778D01*
X020219Y018631D01*
X020219Y018472D01*
X020280Y018325D01*
X020393Y018213D01*
X020540Y018152D01*
X020699Y018152D01*
X020468Y018182D02*
X019771Y018182D01*
X019699Y018152D02*
X019846Y018213D01*
X019958Y018325D01*
X020019Y018472D01*
X020019Y018631D01*
X019958Y018778D01*
X019846Y018891D01*
X019699Y018952D01*
X019540Y018952D01*
X019393Y018891D01*
X019280Y018778D01*
X019219Y018631D01*
X019219Y018472D01*
X019280Y018325D01*
X019393Y018213D01*
X019540Y018152D01*
X019699Y018152D01*
X019468Y018182D02*
X018771Y018182D01*
X018699Y018152D02*
X018846Y018213D01*
X018958Y018325D01*
X019019Y018472D01*
X019019Y018631D01*
X018958Y018778D01*
X018846Y018891D01*
X018699Y018952D01*
X018540Y018952D01*
X018393Y018891D01*
X018280Y018778D01*
X018219Y018631D01*
X018219Y018472D01*
X018280Y018325D01*
X018393Y018213D01*
X018540Y018152D01*
X018699Y018152D01*
X018468Y018182D02*
X017875Y018182D01*
X017978Y018280D02*
X018325Y018280D01*
X018258Y018379D02*
X018036Y018379D01*
X018063Y018477D02*
X018219Y018477D01*
X018219Y018576D02*
X017669Y018576D01*
X017669Y018674D02*
X017569Y018674D01*
X017569Y018576D02*
X017019Y018576D01*
X017019Y018631D02*
X017019Y018472D01*
X016958Y018325D01*
X016846Y018213D01*
X016699Y018152D01*
X016540Y018152D01*
X016393Y018213D01*
X016280Y018325D01*
X016219Y018472D01*
X016219Y018631D01*
X016280Y018778D01*
X016393Y018891D01*
X016540Y018952D01*
X016699Y018952D01*
X016846Y018891D01*
X016958Y018778D01*
X017019Y018631D01*
X017002Y018674D02*
X017186Y018674D01*
X017227Y018773D02*
X016961Y018773D01*
X016866Y018871D02*
X017302Y018871D01*
X017569Y018871D02*
X017669Y018871D01*
X017669Y018773D02*
X017569Y018773D01*
X017569Y018477D02*
X017669Y018477D01*
X017669Y018379D02*
X017569Y018379D01*
X017569Y018280D02*
X017669Y018280D01*
X017669Y018182D02*
X017569Y018182D01*
X017363Y018182D02*
X016771Y018182D01*
X016913Y018280D02*
X017260Y018280D01*
X017202Y018379D02*
X016981Y018379D01*
X017019Y018477D02*
X017175Y018477D01*
X016468Y018182D02*
X015771Y018182D01*
X015699Y018152D02*
X015846Y018213D01*
X015958Y018325D01*
X016019Y018472D01*
X016019Y018631D01*
X015958Y018778D01*
X015846Y018891D01*
X015699Y018952D01*
X015540Y018952D01*
X015393Y018891D01*
X015280Y018778D01*
X015219Y018631D01*
X015219Y018472D01*
X015280Y018325D01*
X015393Y018213D01*
X015540Y018152D01*
X015699Y018152D01*
X015468Y018182D02*
X014771Y018182D01*
X014699Y018152D02*
X014846Y018213D01*
X014958Y018325D01*
X015019Y018472D01*
X015019Y018631D01*
X014958Y018778D01*
X014846Y018891D01*
X014699Y018952D01*
X014540Y018952D01*
X014393Y018891D01*
X014280Y018778D01*
X014219Y018631D01*
X014219Y018472D01*
X014280Y018325D01*
X014393Y018213D01*
X014540Y018152D01*
X014699Y018152D01*
X014468Y018182D02*
X013771Y018182D01*
X013699Y018152D02*
X013846Y018213D01*
X013958Y018325D01*
X014019Y018472D01*
X014019Y018631D01*
X013958Y018778D01*
X013846Y018891D01*
X013699Y018952D01*
X013540Y018952D01*
X013393Y018891D01*
X013280Y018778D01*
X013219Y018631D01*
X013219Y018472D01*
X013280Y018325D01*
X013393Y018213D01*
X013540Y018152D01*
X013699Y018152D01*
X013468Y018182D02*
X012875Y018182D01*
X012978Y018280D02*
X013325Y018280D01*
X013258Y018379D02*
X013036Y018379D01*
X013063Y018477D02*
X013219Y018477D01*
X013219Y018576D02*
X012669Y018576D01*
X012669Y018674D02*
X012569Y018674D01*
X012569Y018576D02*
X012019Y018576D01*
X012019Y018631D02*
X012019Y018472D01*
X011958Y018325D01*
X011846Y018213D01*
X011699Y018152D01*
X011540Y018152D01*
X011393Y018213D01*
X011280Y018325D01*
X011219Y018472D01*
X011219Y018631D01*
X011280Y018778D01*
X011393Y018891D01*
X011540Y018952D01*
X011699Y018952D01*
X011846Y018891D01*
X011958Y018778D01*
X012019Y018631D01*
X012002Y018674D02*
X012186Y018674D01*
X012227Y018773D02*
X011961Y018773D01*
X011866Y018871D02*
X012302Y018871D01*
X012569Y018871D02*
X012669Y018871D01*
X012669Y018773D02*
X012569Y018773D01*
X012569Y018477D02*
X012669Y018477D01*
X012669Y018379D02*
X012569Y018379D01*
X012569Y018280D02*
X012669Y018280D01*
X012669Y018182D02*
X012569Y018182D01*
X012363Y018182D02*
X011771Y018182D01*
X011913Y018280D02*
X012260Y018280D01*
X012202Y018379D02*
X011981Y018379D01*
X012019Y018477D02*
X012175Y018477D01*
X011468Y018182D02*
X010771Y018182D01*
X010699Y018152D02*
X010846Y018213D01*
X010958Y018325D01*
X011019Y018472D01*
X011019Y018631D01*
X010958Y018778D01*
X010846Y018891D01*
X010699Y018952D01*
X010540Y018952D01*
X010393Y018891D01*
X010280Y018778D01*
X010219Y018631D01*
X010219Y018472D01*
X010280Y018325D01*
X010393Y018213D01*
X010540Y018152D01*
X010699Y018152D01*
X010468Y018182D02*
X009875Y018182D01*
X009978Y018280D02*
X010325Y018280D01*
X010258Y018379D02*
X010036Y018379D01*
X010063Y018477D02*
X010219Y018477D01*
X010219Y018576D02*
X009669Y018576D01*
X009669Y018674D02*
X009569Y018674D01*
X009569Y018576D02*
X009019Y018576D01*
X009019Y018477D02*
X009175Y018477D01*
X009202Y018379D02*
X008981Y018379D01*
X008913Y018280D02*
X009260Y018280D01*
X009363Y018182D02*
X008771Y018182D01*
X009002Y018674D02*
X009186Y018674D01*
X009227Y018773D02*
X008961Y018773D01*
X008866Y018871D02*
X009302Y018871D01*
X009569Y018871D02*
X009669Y018871D01*
X009669Y018773D02*
X009569Y018773D01*
X009569Y018477D02*
X009669Y018477D01*
X009669Y018379D02*
X009569Y018379D01*
X009569Y018280D02*
X009669Y018280D01*
X009669Y018182D02*
X009569Y018182D01*
X010053Y018674D02*
X010237Y018674D01*
X010278Y018773D02*
X010012Y018773D01*
X009936Y018871D02*
X010373Y018871D01*
X010504Y019167D02*
X009855Y019167D01*
X009967Y019265D02*
X010340Y019265D01*
X010264Y019364D02*
X010028Y019364D01*
X010061Y019462D02*
X010223Y019462D01*
X010735Y019167D02*
X011504Y019167D01*
X011340Y019265D02*
X010898Y019265D01*
X010974Y019364D02*
X011264Y019364D01*
X011223Y019462D02*
X011015Y019462D01*
X011019Y019561D02*
X011219Y019561D01*
X011231Y019659D02*
X011008Y019659D01*
X010967Y019758D02*
X011272Y019758D01*
X011358Y019856D02*
X010881Y019856D01*
X010866Y018871D02*
X011373Y018871D01*
X011278Y018773D02*
X010961Y018773D01*
X011002Y018674D02*
X011237Y018674D01*
X011219Y018576D02*
X011019Y018576D01*
X011019Y018477D02*
X011219Y018477D01*
X011258Y018379D02*
X010981Y018379D01*
X010913Y018280D02*
X011325Y018280D01*
X012936Y018871D02*
X013373Y018871D01*
X013278Y018773D02*
X013012Y018773D01*
X013053Y018674D02*
X013237Y018674D01*
X013504Y019167D02*
X012855Y019167D01*
X012967Y019265D02*
X013340Y019265D01*
X013264Y019364D02*
X013028Y019364D01*
X013061Y019462D02*
X013223Y019462D01*
X013735Y019167D02*
X014504Y019167D01*
X014540Y019152D02*
X014699Y019152D01*
X014846Y019213D01*
X014958Y019325D01*
X015019Y019472D01*
X015019Y019631D01*
X014958Y019778D01*
X014846Y019891D01*
X014699Y019952D01*
X014540Y019952D01*
X014393Y019891D01*
X014280Y019778D01*
X014219Y019631D01*
X014219Y019472D01*
X014280Y019325D01*
X014393Y019213D01*
X014540Y019152D01*
X014735Y019167D02*
X015504Y019167D01*
X015540Y019152D02*
X015699Y019152D01*
X015846Y019213D01*
X015958Y019325D01*
X016019Y019472D01*
X016019Y019631D01*
X015958Y019778D01*
X015846Y019891D01*
X015699Y019952D01*
X015540Y019952D01*
X015393Y019891D01*
X015280Y019778D01*
X015219Y019631D01*
X015219Y019472D01*
X015280Y019325D01*
X015393Y019213D01*
X015540Y019152D01*
X015735Y019167D02*
X016504Y019167D01*
X016340Y019265D02*
X015898Y019265D01*
X015974Y019364D02*
X016264Y019364D01*
X016223Y019462D02*
X016015Y019462D01*
X016019Y019561D02*
X016219Y019561D01*
X016231Y019659D02*
X016008Y019659D01*
X015967Y019758D02*
X016272Y019758D01*
X016358Y019856D02*
X015881Y019856D01*
X015358Y019856D02*
X014881Y019856D01*
X014967Y019758D02*
X015272Y019758D01*
X015231Y019659D02*
X015008Y019659D01*
X015019Y019561D02*
X015219Y019561D01*
X015223Y019462D02*
X015015Y019462D01*
X014974Y019364D02*
X015264Y019364D01*
X015340Y019265D02*
X014898Y019265D01*
X014866Y018871D02*
X015373Y018871D01*
X015278Y018773D02*
X014961Y018773D01*
X015002Y018674D02*
X015237Y018674D01*
X015219Y018576D02*
X015019Y018576D01*
X015019Y018477D02*
X015219Y018477D01*
X015258Y018379D02*
X014981Y018379D01*
X014913Y018280D02*
X015325Y018280D01*
X015913Y018280D02*
X016325Y018280D01*
X016258Y018379D02*
X015981Y018379D01*
X016019Y018477D02*
X016219Y018477D01*
X016219Y018576D02*
X016019Y018576D01*
X016002Y018674D02*
X016237Y018674D01*
X016278Y018773D02*
X015961Y018773D01*
X015866Y018871D02*
X016373Y018871D01*
X017855Y019167D02*
X018504Y019167D01*
X018340Y019265D02*
X017967Y019265D01*
X018028Y019364D02*
X018264Y019364D01*
X018223Y019462D02*
X018061Y019462D01*
X018735Y019167D02*
X019504Y019167D01*
X019540Y019152D02*
X019699Y019152D01*
X019846Y019213D01*
X019958Y019325D01*
X020019Y019472D01*
X020019Y019631D01*
X019958Y019778D01*
X019846Y019891D01*
X019699Y019952D01*
X019540Y019952D01*
X019393Y019891D01*
X019280Y019778D01*
X019219Y019631D01*
X019219Y019472D01*
X019280Y019325D01*
X019393Y019213D01*
X019540Y019152D01*
X019735Y019167D02*
X020504Y019167D01*
X020540Y019152D02*
X020393Y019213D01*
X020280Y019325D01*
X020219Y019472D01*
X020219Y019631D01*
X020280Y019778D01*
X020393Y019891D01*
X020540Y019952D01*
X020699Y019952D01*
X020846Y019891D01*
X020958Y019778D01*
X021019Y019631D01*
X021019Y019472D01*
X020958Y019325D01*
X020846Y019213D01*
X020699Y019152D01*
X020540Y019152D01*
X020735Y019167D02*
X021504Y019167D01*
X021340Y019265D02*
X020898Y019265D01*
X020974Y019364D02*
X021264Y019364D01*
X021223Y019462D02*
X021015Y019462D01*
X021019Y019561D02*
X021219Y019561D01*
X021231Y019659D02*
X021008Y019659D01*
X020967Y019758D02*
X021272Y019758D01*
X021358Y019856D02*
X020881Y019856D01*
X020358Y019856D02*
X019881Y019856D01*
X019967Y019758D02*
X020272Y019758D01*
X020231Y019659D02*
X020008Y019659D01*
X020019Y019561D02*
X020219Y019561D01*
X020223Y019462D02*
X020015Y019462D01*
X019974Y019364D02*
X020264Y019364D01*
X020340Y019265D02*
X019898Y019265D01*
X019866Y018871D02*
X020373Y018871D01*
X020278Y018773D02*
X019961Y018773D01*
X020002Y018674D02*
X020237Y018674D01*
X020219Y018576D02*
X020019Y018576D01*
X020019Y018477D02*
X020219Y018477D01*
X020258Y018379D02*
X019981Y018379D01*
X019913Y018280D02*
X020325Y018280D01*
X020913Y018280D02*
X021325Y018280D01*
X021258Y018379D02*
X020981Y018379D01*
X021019Y018477D02*
X021219Y018477D01*
X021219Y018576D02*
X021019Y018576D01*
X021002Y018674D02*
X021237Y018674D01*
X021278Y018773D02*
X020961Y018773D01*
X020866Y018871D02*
X021373Y018871D01*
X022875Y018182D02*
X026775Y018182D01*
X026635Y018280D02*
X022978Y018280D01*
X023036Y018379D02*
X026569Y018379D01*
X027579Y017197D02*
X020761Y017197D01*
X020738Y017098D02*
X027511Y017098D01*
X027511Y017000D02*
X010130Y017000D01*
X010171Y016901D02*
X027581Y016901D01*
X019325Y018280D02*
X018913Y018280D01*
X018981Y018379D02*
X019258Y018379D01*
X019219Y018477D02*
X019019Y018477D01*
X019019Y018576D02*
X019219Y018576D01*
X019237Y018674D02*
X019002Y018674D01*
X018961Y018773D02*
X019278Y018773D01*
X019373Y018871D02*
X018866Y018871D01*
X018898Y019265D02*
X019340Y019265D01*
X019264Y019364D02*
X018974Y019364D01*
X019015Y019462D02*
X019223Y019462D01*
X019219Y019561D02*
X019019Y019561D01*
X019008Y019659D02*
X019231Y019659D01*
X019272Y019758D02*
X018967Y019758D01*
X018881Y019856D02*
X019358Y019856D01*
X018373Y018871D02*
X017936Y018871D01*
X018012Y018773D02*
X018278Y018773D01*
X018237Y018674D02*
X018053Y018674D01*
X014373Y018871D02*
X013866Y018871D01*
X013961Y018773D02*
X014278Y018773D01*
X014237Y018674D02*
X014002Y018674D01*
X014019Y018576D02*
X014219Y018576D01*
X014219Y018477D02*
X014019Y018477D01*
X013981Y018379D02*
X014258Y018379D01*
X014325Y018280D02*
X013913Y018280D01*
X013898Y019265D02*
X014340Y019265D01*
X014264Y019364D02*
X013974Y019364D01*
X014015Y019462D02*
X014223Y019462D01*
X014219Y019561D02*
X014019Y019561D01*
X014008Y019659D02*
X014231Y019659D01*
X014272Y019758D02*
X013967Y019758D01*
X013881Y019856D02*
X014358Y019856D01*
X014258Y016606D02*
X014227Y016606D01*
X014288Y015522D02*
X041056Y015522D01*
X041056Y018182D02*
X040165Y018182D01*
X040166Y018182D02*
X040221Y018222D01*
X040269Y018270D01*
X040309Y018325D01*
X040339Y018385D01*
X040360Y018449D01*
X040370Y018510D01*
X039981Y018510D01*
X039981Y018590D01*
X039901Y018590D01*
X039901Y018510D01*
X039981Y018510D01*
X039981Y018121D01*
X040042Y018131D01*
X040106Y018152D01*
X040166Y018182D01*
X040276Y018280D02*
X041056Y018280D01*
X041056Y018379D02*
X040336Y018379D01*
X040365Y018477D02*
X041056Y018477D01*
X041056Y018576D02*
X039981Y018576D01*
X039901Y018576D02*
X039321Y018576D01*
X039321Y018477D02*
X039517Y018477D01*
X039521Y018449D02*
X039542Y018385D01*
X039573Y018325D01*
X039613Y018270D01*
X039661Y018222D01*
X039716Y018182D01*
X039776Y018152D01*
X039840Y018131D01*
X039901Y018121D01*
X039901Y018510D01*
X039512Y018510D01*
X039521Y018449D01*
X039546Y018379D02*
X039281Y018379D01*
X039208Y018280D02*
X039606Y018280D01*
X039717Y018182D02*
X039044Y018182D01*
X038837Y018182D02*
X036087Y018182D01*
X037881Y019167D02*
X037981Y019167D01*
X037981Y019102D02*
X038036Y019111D01*
X038104Y019133D01*
X038167Y019165D01*
X038224Y019207D01*
X038274Y019257D01*
X038316Y019314D01*
X038348Y019377D01*
X038370Y019445D01*
X038379Y019500D01*
X037981Y019500D01*
X037981Y019102D01*
X037981Y019265D02*
X037881Y019265D01*
X037881Y019364D02*
X037981Y019364D01*
X037981Y019462D02*
X037881Y019462D01*
X038169Y019167D02*
X038693Y019167D01*
X038582Y019265D02*
X038280Y019265D01*
X038341Y019364D02*
X038521Y019364D01*
X038489Y019462D02*
X038373Y019462D01*
X038369Y019659D02*
X038493Y019659D01*
X038532Y019758D02*
X038330Y019758D01*
X038261Y019856D02*
X038601Y019856D01*
X037601Y019856D02*
X036191Y019856D01*
X036278Y019758D02*
X037532Y019758D01*
X037493Y019659D02*
X036319Y019659D01*
X039157Y018871D02*
X039654Y018871D01*
X039572Y018773D02*
X039256Y018773D01*
X039301Y018674D02*
X039529Y018674D01*
X039901Y018674D02*
X039981Y018674D01*
X039981Y018773D02*
X039901Y018773D01*
X039901Y018871D02*
X039981Y018871D01*
X040228Y018871D02*
X041056Y018871D01*
X041056Y018773D02*
X040310Y018773D01*
X040353Y018674D02*
X041056Y018674D01*
X039981Y018477D02*
X039901Y018477D01*
X039901Y018379D02*
X039981Y018379D01*
X039981Y018280D02*
X039901Y018280D01*
X039901Y018182D02*
X039981Y018182D01*
X018187Y012666D02*
X018115Y012666D01*
X013989Y013946D02*
X013892Y013946D01*
X013892Y014045D02*
X013989Y014045D01*
X013989Y014143D02*
X013892Y014143D01*
X013892Y014340D02*
X013989Y014340D01*
X013989Y014439D02*
X013892Y014439D01*
X013892Y014537D02*
X013989Y014537D01*
X013516Y014143D02*
X004806Y014143D01*
X004806Y014045D02*
X013560Y014045D01*
X013643Y013946D02*
X004806Y013946D01*
M02*
