G75*
G70*
%OFA0B0*%
%FSLAX24Y24*%
%IPPOS*%
%LPD*%
%AMOC8*
5,1,8,0,0,1.08239X$1,22.5*
%
%ADD10R,0.0450X0.0180*%
%ADD11R,0.1084X0.1635*%
%ADD12R,0.0611X0.0217*%
%ADD13C,0.0614*%
%ADD14R,0.0847X0.0651*%
%ADD15C,0.0575*%
%ADD16R,0.0532X0.0178*%
%ADD17R,0.0178X0.0532*%
%ADD18R,0.0860X0.0320*%
%ADD19C,0.0198*%
%ADD20R,0.0157X0.0630*%
%ADD21R,0.0630X0.0157*%
%ADD22R,0.0493X0.0454*%
%ADD23R,0.0493X0.0375*%
%ADD24C,0.0654*%
%ADD25OC8,0.0660*%
%ADD26R,0.0316X0.0277*%
%ADD27R,0.0651X0.0454*%
%ADD28R,0.0454X0.0611*%
%ADD29R,0.0847X0.0887*%
%ADD30R,0.0454X0.0532*%
%ADD31R,0.0296X0.0296*%
%ADD32R,0.0572X0.0532*%
%ADD33R,0.0532X0.0572*%
%ADD34R,0.0620X0.0620*%
%ADD35C,0.0620*%
%ADD36R,0.0660X0.0660*%
%ADD37C,0.0660*%
%ADD38R,0.0277X0.0316*%
%ADD39R,0.0375X0.0414*%
%ADD40R,0.0414X0.0375*%
%ADD41R,0.0370X0.0410*%
%ADD42C,0.0455*%
D10*
X007212Y014283D03*
X007212Y014538D03*
X007212Y014794D03*
X007212Y015050D03*
X007212Y015306D03*
X007212Y015562D03*
X007212Y015818D03*
X007212Y016074D03*
X007212Y016330D03*
X007212Y016586D03*
X007212Y016842D03*
X007212Y017097D03*
X009510Y017097D03*
X009510Y016842D03*
X009510Y016586D03*
X009510Y016330D03*
X009510Y016074D03*
X009510Y015818D03*
X009510Y015562D03*
X009510Y015306D03*
X009510Y015050D03*
X009510Y014794D03*
X009510Y014538D03*
X009510Y014283D03*
D11*
X008370Y015699D03*
D12*
X006381Y010619D03*
X006381Y010363D03*
X006381Y010107D03*
X006381Y009851D03*
X006381Y009595D03*
D13*
X006381Y009123D03*
X006381Y011091D03*
D14*
X005318Y010501D03*
X005318Y009713D03*
D15*
X005060Y008729D02*
X005575Y008729D01*
X005575Y011485D02*
X005060Y011485D01*
D16*
X013957Y011486D03*
X013957Y011683D03*
X013957Y011880D03*
X013957Y012076D03*
X013957Y011289D03*
X013957Y011092D03*
X013957Y010895D03*
X013957Y010698D03*
X013957Y010502D03*
X013957Y010305D03*
X013957Y010108D03*
X013957Y009911D03*
X013957Y009714D03*
X013957Y009517D03*
X013957Y009320D03*
X013957Y009124D03*
X018445Y009124D03*
X018445Y009320D03*
X018445Y009517D03*
X018445Y009714D03*
X018445Y009911D03*
X018445Y010108D03*
X018445Y010305D03*
X018445Y010502D03*
X018445Y010698D03*
X018445Y010895D03*
X018445Y011092D03*
X018445Y011289D03*
X018445Y011486D03*
X018445Y011683D03*
X018445Y011880D03*
X018445Y012076D03*
D17*
X017677Y012844D03*
X017480Y012844D03*
X017284Y012844D03*
X017087Y012844D03*
X016890Y012844D03*
X016693Y012844D03*
X016496Y012844D03*
X016299Y012844D03*
X016102Y012844D03*
X015906Y012844D03*
X015709Y012844D03*
X015512Y012844D03*
X015315Y012844D03*
X015118Y012844D03*
X014921Y012844D03*
X014725Y012844D03*
X014725Y008356D03*
X014921Y008356D03*
X015118Y008356D03*
X015315Y008356D03*
X015512Y008356D03*
X015709Y008356D03*
X015906Y008356D03*
X016102Y008356D03*
X016299Y008356D03*
X016496Y008356D03*
X016693Y008356D03*
X016890Y008356D03*
X017087Y008356D03*
X017284Y008356D03*
X017480Y008356D03*
X017677Y008356D03*
D18*
X018711Y015470D03*
X018711Y015970D03*
X018711Y016470D03*
X018711Y016970D03*
X016291Y016970D03*
X016291Y016470D03*
X016291Y015970D03*
X016291Y015470D03*
D19*
X016220Y006712D03*
X016023Y006712D03*
X015827Y006712D03*
X015630Y006712D03*
X015433Y006712D03*
X015236Y006712D03*
X015039Y006712D03*
X015039Y006515D03*
X015039Y006318D03*
X015039Y006121D03*
X015039Y005924D03*
X015039Y005727D03*
X015039Y005531D03*
X015039Y005334D03*
X015039Y005137D03*
X015039Y004940D03*
X015236Y004940D03*
X015433Y004940D03*
X015630Y004940D03*
X015827Y004940D03*
X016023Y004940D03*
X016220Y004940D03*
X016417Y004940D03*
X016614Y004940D03*
X016811Y004940D03*
X016811Y005137D03*
X016811Y005334D03*
X016811Y005531D03*
X016811Y005727D03*
X016811Y005924D03*
X016811Y006121D03*
X016811Y006318D03*
X016811Y006515D03*
X016811Y006712D03*
X016614Y006712D03*
X016417Y006712D03*
X016417Y006318D03*
X016220Y006318D03*
X016023Y006318D03*
X015827Y006318D03*
X015630Y006318D03*
X015433Y006318D03*
X015433Y006121D03*
X015433Y005924D03*
X015433Y005727D03*
X015433Y005531D03*
X015433Y005334D03*
X015630Y005334D03*
X015827Y005334D03*
X016023Y005334D03*
X016220Y005334D03*
X016417Y005334D03*
X016417Y005531D03*
X016417Y005727D03*
X016417Y005924D03*
X016417Y006121D03*
D20*
X028549Y007280D03*
X028746Y007280D03*
X028942Y007280D03*
X029139Y007280D03*
X029336Y007280D03*
X029533Y007280D03*
X029730Y007280D03*
X029927Y007280D03*
X030123Y007280D03*
X030320Y007280D03*
X030517Y007280D03*
X030714Y007280D03*
X030911Y007280D03*
X031108Y007280D03*
X031305Y007280D03*
X031501Y007280D03*
X031698Y007280D03*
X031895Y007280D03*
X032092Y007280D03*
X032289Y007280D03*
X032486Y007280D03*
X032683Y007280D03*
X032879Y007280D03*
X033076Y007280D03*
X033273Y007280D03*
X033273Y013480D03*
X033076Y013480D03*
X032879Y013480D03*
X032683Y013480D03*
X032486Y013480D03*
X032289Y013480D03*
X032092Y013480D03*
X031895Y013480D03*
X031698Y013480D03*
X031501Y013480D03*
X031305Y013480D03*
X031108Y013480D03*
X030911Y013480D03*
X030714Y013480D03*
X030517Y013480D03*
X030320Y013480D03*
X030123Y013480D03*
X029927Y013480D03*
X029730Y013480D03*
X029533Y013480D03*
X029336Y013480D03*
X029139Y013480D03*
X028942Y013480D03*
X028746Y013480D03*
X028549Y013480D03*
D21*
X027810Y012742D03*
X027810Y012545D03*
X027810Y012349D03*
X027810Y012152D03*
X027810Y011955D03*
X027810Y011758D03*
X027810Y011561D03*
X027810Y011364D03*
X027810Y011167D03*
X027810Y010971D03*
X027810Y010774D03*
X027810Y010577D03*
X027810Y010380D03*
X027810Y010183D03*
X027810Y009986D03*
X027810Y009789D03*
X027810Y009593D03*
X027810Y009396D03*
X027810Y009199D03*
X027810Y009002D03*
X027810Y008805D03*
X027810Y008608D03*
X027810Y008411D03*
X027810Y008215D03*
X027810Y008018D03*
X034011Y008018D03*
X034011Y008215D03*
X034011Y008411D03*
X034011Y008608D03*
X034011Y008805D03*
X034011Y009002D03*
X034011Y009199D03*
X034011Y009396D03*
X034011Y009593D03*
X034011Y009789D03*
X034011Y009986D03*
X034011Y010183D03*
X034011Y010380D03*
X034011Y010577D03*
X034011Y010774D03*
X034011Y010971D03*
X034011Y011167D03*
X034011Y011364D03*
X034011Y011561D03*
X034011Y011758D03*
X034011Y011955D03*
X034011Y012152D03*
X034011Y012349D03*
X034011Y012545D03*
X034011Y012742D03*
D22*
X039921Y002800D03*
D23*
X038543Y002583D03*
X038543Y003017D03*
D24*
X005531Y001300D03*
X008301Y004630D03*
X008311Y005650D03*
X008311Y006590D03*
X013941Y014280D03*
X013951Y015300D03*
X013961Y016310D03*
X005831Y019050D03*
X023501Y004590D03*
X039981Y001300D03*
X037031Y016000D03*
D25*
X022619Y018552D03*
X021619Y018552D03*
X020619Y018552D03*
X019619Y018552D03*
X018619Y018552D03*
X017619Y018552D03*
X016619Y018552D03*
X015619Y018552D03*
X014619Y018552D03*
X013619Y018552D03*
X012619Y018552D03*
X011619Y018552D03*
X010619Y018552D03*
X009619Y018552D03*
X008619Y018552D03*
X008619Y019552D03*
X009619Y019552D03*
X010619Y019552D03*
X011619Y019552D03*
X012619Y019552D03*
X013619Y019552D03*
X014619Y019552D03*
X015619Y019552D03*
X016619Y019552D03*
X017619Y019552D03*
X018619Y019552D03*
X019619Y019552D03*
X020619Y019552D03*
X021619Y019552D03*
X022619Y019552D03*
D26*
X028781Y015017D03*
X028781Y014583D03*
X029231Y014583D03*
X029231Y015017D03*
X030131Y015433D03*
X030581Y015433D03*
X031041Y015443D03*
X031041Y015877D03*
X030581Y015867D03*
X030131Y015867D03*
X031531Y015017D03*
X031531Y014583D03*
X032481Y014583D03*
X032481Y015017D03*
X030881Y006317D03*
X030431Y006317D03*
X030431Y005883D03*
X030881Y005883D03*
X029521Y003837D03*
X029521Y003403D03*
X029011Y003403D03*
X029011Y003837D03*
X020331Y003247D03*
X020331Y002813D03*
X019871Y002813D03*
X019871Y003247D03*
X019401Y003247D03*
X019401Y002813D03*
X013131Y002883D03*
X012681Y002883D03*
X012681Y003317D03*
X013131Y003317D03*
X006581Y003417D03*
X006131Y003417D03*
X006131Y002983D03*
X006581Y002983D03*
X007861Y009573D03*
X007861Y010007D03*
X007861Y010423D03*
X007861Y010857D03*
X012031Y011933D03*
X012031Y012367D03*
X012031Y012883D03*
X012031Y013317D03*
X014781Y013783D03*
X014781Y014217D03*
X015931Y014217D03*
X016381Y014217D03*
X016831Y014217D03*
X017281Y014217D03*
X017281Y013783D03*
X016831Y013783D03*
X016381Y013783D03*
X015931Y013783D03*
D27*
X014588Y003506D03*
X014588Y001694D03*
X017974Y001694D03*
X017974Y003506D03*
X021488Y003506D03*
X021488Y001694D03*
X024874Y001694D03*
X024874Y003506D03*
X010924Y003506D03*
X010924Y001694D03*
X007538Y001694D03*
X007538Y003506D03*
D28*
X012887Y007550D03*
X013675Y007550D03*
X011575Y008450D03*
X010787Y008450D03*
X010787Y009200D03*
X011575Y009200D03*
X011575Y010500D03*
X010787Y010500D03*
X010787Y011260D03*
X011575Y011260D03*
X008585Y012010D03*
X007797Y012010D03*
X019587Y012350D03*
X019587Y013100D03*
X020375Y013100D03*
X020375Y012350D03*
X025737Y010400D03*
X026525Y010400D03*
X026525Y009670D03*
X025737Y009670D03*
X035387Y011400D03*
X036175Y011400D03*
X036175Y012150D03*
X035387Y012150D03*
D29*
X011832Y014340D03*
X010690Y014340D03*
X009082Y013190D03*
X007940Y013190D03*
X010680Y016510D03*
X011822Y016510D03*
D30*
X006055Y013800D03*
X005307Y013800D03*
X005307Y013090D03*
X006055Y013090D03*
X006185Y007260D03*
X005437Y007260D03*
X005447Y006360D03*
X006195Y006360D03*
X006195Y005440D03*
X005447Y005440D03*
X039027Y009280D03*
X039775Y009280D03*
X039765Y011050D03*
X039017Y011050D03*
X039427Y016610D03*
X040175Y016610D03*
D31*
X006434Y016400D03*
X005568Y016400D03*
D32*
X029957Y016445D03*
X030745Y016445D03*
X030745Y017075D03*
X029957Y017075D03*
D33*
X011456Y012874D03*
X010826Y012874D03*
X010826Y012086D03*
X011456Y012086D03*
D34*
X037981Y013300D03*
X037981Y014300D03*
X039941Y018550D03*
X038031Y007150D03*
X038031Y006050D03*
D35*
X039031Y006050D03*
X040031Y006050D03*
X040031Y007150D03*
X039031Y007150D03*
X038981Y013300D03*
X039981Y013300D03*
X039981Y014300D03*
X038981Y014300D03*
X038941Y018550D03*
D36*
X039931Y019550D03*
X026931Y019550D03*
X026931Y018550D03*
X023881Y007950D03*
X026931Y002550D03*
X026931Y001550D03*
D37*
X027931Y001550D03*
X028931Y001550D03*
X029931Y001550D03*
X030931Y001550D03*
X031931Y001550D03*
X032931Y001550D03*
X033931Y001550D03*
X034931Y001550D03*
X035931Y001550D03*
X035931Y002550D03*
X034931Y002550D03*
X033931Y002550D03*
X032931Y002550D03*
X031931Y002550D03*
X030931Y002550D03*
X029931Y002550D03*
X028931Y002550D03*
X027931Y002550D03*
X022881Y007950D03*
X022881Y008950D03*
X023881Y008950D03*
X023881Y009950D03*
X022881Y009950D03*
X022881Y010950D03*
X023881Y010950D03*
X023881Y011950D03*
X022881Y011950D03*
X022881Y012950D03*
X023881Y012950D03*
X023881Y013950D03*
X022881Y013950D03*
X027931Y018550D03*
X028931Y018550D03*
X029931Y018550D03*
X030931Y018550D03*
X031931Y018550D03*
X032931Y018550D03*
X033931Y018550D03*
X034931Y018550D03*
X035931Y018550D03*
X035931Y019550D03*
X034931Y019550D03*
X033931Y019550D03*
X032931Y019550D03*
X031931Y019550D03*
X030931Y019550D03*
X029931Y019550D03*
X028931Y019550D03*
X027931Y019550D03*
X037931Y019550D03*
X038931Y019550D03*
D38*
X038597Y016600D03*
X038164Y016600D03*
X035797Y012750D03*
X035364Y012750D03*
X037814Y011050D03*
X038247Y011050D03*
X035747Y010800D03*
X035314Y010800D03*
X035314Y010350D03*
X035747Y010350D03*
X035747Y009900D03*
X035314Y009900D03*
X035314Y009150D03*
X035747Y009150D03*
X035747Y008700D03*
X035314Y008700D03*
X035314Y008250D03*
X035747Y008250D03*
X035747Y007800D03*
X035314Y007800D03*
X035314Y007350D03*
X035747Y007350D03*
X037814Y009300D03*
X038247Y009300D03*
X039064Y004400D03*
X039497Y004400D03*
X039497Y003950D03*
X039064Y003950D03*
X039064Y003500D03*
X039497Y003500D03*
X026427Y009080D03*
X025994Y009080D03*
X026014Y011400D03*
X026447Y011400D03*
X026447Y012250D03*
X026014Y012250D03*
X026014Y012700D03*
X026447Y012700D03*
X020297Y015550D03*
X019864Y015550D03*
X019864Y016000D03*
X020297Y016000D03*
X020297Y016450D03*
X019864Y016450D03*
X019864Y016900D03*
X020297Y016900D03*
X019997Y014200D03*
X019564Y014200D03*
X019564Y013750D03*
X019997Y013750D03*
X019997Y011740D03*
X019564Y011740D03*
X019564Y011290D03*
X019997Y011290D03*
X019997Y010800D03*
X019564Y010800D03*
X019564Y010350D03*
X019997Y010350D03*
X019997Y009900D03*
X019564Y009900D03*
X019564Y009350D03*
X019997Y009350D03*
X019997Y008900D03*
X019564Y008900D03*
X019564Y008450D03*
X019997Y008450D03*
X019997Y008000D03*
X019564Y008000D03*
X019147Y008000D03*
X018714Y008000D03*
X018714Y007550D03*
X019147Y007550D03*
X019147Y007100D03*
X018714Y007100D03*
X018714Y006650D03*
X019147Y006650D03*
X019147Y006200D03*
X018714Y006200D03*
X018714Y005750D03*
X019147Y005750D03*
X019147Y005300D03*
X018714Y005300D03*
X018714Y004800D03*
X019147Y004800D03*
X019864Y005050D03*
X020297Y005050D03*
X020297Y007020D03*
X019864Y007020D03*
X019864Y007490D03*
X020297Y007490D03*
X013797Y006950D03*
X013364Y006950D03*
X013364Y006500D03*
X013797Y006500D03*
X013797Y006050D03*
X013364Y006050D03*
X013364Y005600D03*
X013797Y005600D03*
X013797Y005000D03*
X013364Y005000D03*
X013364Y004550D03*
X013797Y004550D03*
X011197Y004500D03*
X010764Y004500D03*
X010764Y006300D03*
X011197Y006300D03*
X013264Y008150D03*
X013697Y008150D03*
X013047Y009050D03*
X012614Y009050D03*
X012614Y009500D03*
X013047Y009500D03*
X013047Y009950D03*
X012614Y009950D03*
X012614Y010400D03*
X013047Y010400D03*
X013047Y010850D03*
X012614Y010850D03*
X012614Y011300D03*
X013047Y011300D03*
X013047Y011750D03*
X012614Y011750D03*
X008287Y011360D03*
X007854Y011360D03*
X006047Y012500D03*
X005614Y012500D03*
X005614Y014400D03*
X006047Y014400D03*
X006197Y015850D03*
X005764Y015850D03*
X010314Y015650D03*
X010747Y015650D03*
X010747Y015200D03*
X010314Y015200D03*
X014884Y015490D03*
X015317Y015490D03*
D39*
X006306Y016970D03*
X005755Y016970D03*
X005655Y015320D03*
X006206Y015320D03*
X006176Y007920D03*
X005625Y007920D03*
D40*
X005611Y003476D03*
X005611Y002924D03*
X012161Y002824D03*
X012161Y003376D03*
D41*
X010991Y005000D03*
X011371Y005800D03*
X010611Y005800D03*
X019661Y006350D03*
X020421Y006350D03*
X020041Y005550D03*
D42*
X005461Y008730D03*
X005211Y008730D03*
X005221Y011490D03*
X005451Y011490D03*
M02*
