%
M48
M72
T01C0.0100
T02C0.0315
T03C0.0315
T04C0.0354
T05C0.0360
T06C0.0394
T07C0.0400
%
T01
X5031Y1950
X5611Y2620
X6121Y2650
X7641Y2770
X8151Y1690
X7681Y1200
X8931Y1300
X11511Y1730
X12481Y2350
X11731Y2800
X10841Y2770
X13031Y1150
X15231Y1710
X15681Y1200
X18031Y1150
X18571Y1710
X19871Y2100
X20091Y1250
X17941Y2860
X19011Y3260
X16031Y2900
X13031Y4550
X14481Y4800
X15521Y5130
X15751Y5140
X15931Y4750
X16321Y5130
X16611Y5420
X16611Y5650
X16131Y5800
X16131Y6100
X15681Y6100
X15681Y5800
X15241Y6020
X15531Y6510
X15931Y6510
X16321Y6510
X16621Y6220
X17081Y6150
X18091Y5420
X19581Y5650
X20001Y6360
X19551Y7010
X19551Y7490
X20291Y8010
X20291Y8450
X21281Y7950
X21831Y7350
X20671Y7050
X20811Y6390
X21381Y6200
X21381Y5350
X22031Y4500
X22831Y6150
X23831Y6150
X24631Y6150
X25581Y6150
X25031Y7250
X25381Y7600
X27481Y6850
X27931Y6100
X28131Y5900
X28931Y6250
X29931Y6650
X30031Y6300
X30321Y6690
X30641Y6730
X31311Y6700
X31291Y6260
X32181Y6650
X32681Y6850
X33231Y6450
X32581Y5850
X32381Y6050
X33481Y5650
X33331Y5400
X33331Y5100
X33781Y5650
X34091Y5640
X34081Y7250
X33531Y7150
X33131Y7800
X32931Y8000
X33141Y8200
X32931Y8410
X33121Y8610
X32931Y8800
X33431Y9000
X32681Y9650
X32281Y10100
X32481Y10300
X31881Y10100
X31581Y10100
X30321Y10190
X29521Y10190
X28981Y10600
X28781Y10390
X28401Y10780
X28551Y11170
X28971Y10980
X29521Y10990
X30931Y12120
X30731Y12360
X31151Y12480
X31631Y12950
X32081Y12850
X32681Y12850
X34031Y12950
X34931Y12750
X35131Y12950
X36281Y12750
X36631Y12400
X36631Y11900
X36581Y11400
X36081Y10800
X36081Y10350
X36081Y9900
X36281Y9600
X36101Y8960
X36031Y8700
X36021Y8250
X36031Y7800
X36021Y7350
X36631Y6850
X37331Y6850
X36741Y5640
X36751Y5130
X36831Y3750
X36901Y3080
X37651Y3080
X37651Y2380
X36901Y2180
X36831Y1150
X37631Y1150
X40831Y1150
X40831Y3550
X39781Y3500
X39801Y4430
X39441Y4940
X40531Y4950
X40831Y7650
X40551Y9250
X40411Y11070
X38081Y11350
X40831Y12950
X40831Y14750
X38431Y15950
X37831Y16600
X37031Y16900
X36121Y15820
X37281Y14800
X36731Y14150
X35631Y14150
X34431Y14150
X33931Y14900
X33731Y15150
X33531Y14900
X34441Y15490
X32771Y16660
X32331Y16250
X32331Y15800
X32481Y15350
X31171Y15010
X30131Y14510
X31131Y14200
X32281Y14050
X32881Y14050
X32531Y11840
X33481Y11350
X34521Y11950
X34741Y11750
X34981Y11550
X34971Y11070
X34731Y10950
X34981Y10800
X34731Y10350
X34911Y9790
X33341Y9980
X33341Y10220
X30321Y9190
X29521Y9190
X28331Y9000
X27311Y9090
X27061Y9090
X27211Y9340
X27031Y9800
X27261Y10000
X26671Y9090
X25671Y9080
X25401Y9670
X25681Y10850
X25681Y11400
X25181Y11850
X25701Y12300
X25701Y12700
X27071Y12350
X27331Y12150
X27181Y11950
X26731Y11250
X27051Y10940
X28931Y12750
X29431Y12800
X29221Y15420
X28781Y15800
X27701Y17050
X29281Y17400
X29211Y17700
X29531Y17800
X30681Y17900
X33431Y17030
X34431Y17650
X35181Y17850
X34431Y19950
X37031Y19950
X40831Y18950
X40831Y16750
X31431Y19950
X26021Y19150
X25431Y19950
X23831Y19950
X23831Y18230
X21891Y17960
X20881Y17950
X20351Y17950
X20571Y17200
X17921Y16970
X17631Y17950
X15891Y17960
X15431Y17960
X13831Y17960
X12631Y17960
X12531Y16700
X12511Y16250
X14401Y16480
X15101Y15780
X14541Y15490
X14781Y14530
X15931Y14500
X16181Y14700
X16381Y14500
X17601Y14220
X17281Y13510
X17191Y13270
X17481Y13300
X18021Y12840
X18281Y12840
X19141Y13060
X19141Y13740
X19141Y14200
X20751Y13100
X20751Y12350
X21431Y11950
X20291Y11740
X19021Y11280
X17831Y11150
X17831Y11880
X16081Y12000
X15881Y11500
X15931Y11000
X16231Y10150
X17031Y10150
X17831Y10150
X17831Y9700
X18006Y9075
X17731Y8950
X17031Y8950
X16231Y8950
X15131Y8900
X15131Y9250
X14481Y9410
X14721Y9720
X14501Y10280
X13481Y10350
X13311Y9500
X12281Y9500
X12291Y9050
X11581Y9650
X10431Y9200
X10411Y8450
X11531Y7650
X11981Y7850
X12541Y7550
X12951Y8160
X13691Y8430
X14731Y7850
X14931Y7600
X15131Y7850
X15731Y7850
X16281Y7850
X17081Y7850
X17481Y7900
X17681Y7750
X18341Y8000
X18331Y8300
X19131Y8550
X19181Y8900
X18881Y9500
X19021Y9920
X20291Y9900
X20291Y9360
X21281Y9600
X21831Y9950
X18461Y7550
X14131Y6800
X14081Y6500
X13031Y6500
X13021Y6030
X13031Y5600
X14231Y5540
X13031Y6900
X12041Y6320
X11681Y6300
X10431Y6290
X10311Y5810
X9541Y5620
X9541Y6670
X6581Y6400
X6531Y7250
X6551Y7810
X6551Y8070
X6651Y8610
X6171Y8610
X5851Y9230
X5311Y9210
X4871Y9190
X5891Y10110
X7031Y9950
X6971Y9590
X6971Y9350
X7861Y9270
X7031Y10500
X5871Y11010
X5311Y11010
X4871Y11010
X6031Y11830
X6431Y11830
X6851Y11760
X7511Y11350
X8261Y10940
X9281Y10550
X10421Y10500
X10361Y11040
X10361Y11340
X9881Y11500
X9431Y11950
X11171Y11650
X12331Y11500
X12331Y11150
X13531Y11490
X14481Y11300
X14481Y12000
X15381Y12200
X14781Y13280
X15981Y13400
X13681Y13280
X12531Y14350
X12531Y14830
X12051Y13630
X10811Y13350
X9751Y13190
X8951Y14350
X8391Y14330
X7811Y14330
X6731Y14530
X6711Y14790
X6551Y15310
X6731Y16050
X6751Y16530
X6751Y16850
X7651Y17110
X8351Y17110
X8971Y17090
X9981Y16880
X9981Y16580
X9981Y16280
X9931Y15818
X9101Y15700
X9951Y14940
X9951Y14660
X7651Y15800
X5401Y15840
X5361Y15310
X5631Y14770
X4881Y13800
X5341Y12500
X7131Y12950
X7131Y13470
X5731Y17380
X5031Y18150
X5031Y19950
X7631Y19950
X7631Y18160
X14031Y19950
X19131Y20000
X21131Y20000
X26051Y18170
X21431Y14150
X21881Y13150
X28921Y7790
X30121Y7790
X31331Y7800
X31631Y7800
X29131Y5100
X28381Y4300
X28631Y3850
X29831Y4000
X30031Y3750
X30531Y3400
X31231Y3150
X32831Y3150
X33831Y3050
X34731Y3050
X32431Y1150
X29431Y1150
X26231Y1150
X24181Y1000
X23241Y2910
X25581Y3300
X26231Y2890
X26751Y3450
X26681Y4290
X31331Y4500
X5031Y3750
X4891Y5440
X4881Y7300
X5011Y7770
X5011Y8110
T02
X5318Y8729
X5318Y11485
T03
X5221Y11490
X5451Y11490
X5461Y8730
X5211Y8730
T04
X6381Y9123
X6381Y11091
T05
X37981Y13300
X38981Y13300
X39981Y13300
X39981Y14300
X38981Y14300
X37981Y14300
X38941Y18550
X39941Y18550
X40031Y7150
X39031Y7150
X38031Y7150
X38031Y6050
X39031Y6050
X40031Y6050
T06
X39981Y1300
X23501Y4590
X8301Y4630
X8311Y5650
X8311Y6590
X5531Y1300
X13941Y14280
X13951Y15300
X13961Y16310
X5831Y19050
X37031Y16000
T07
X35931Y18550
X34931Y18550
X33931Y18550
X32931Y18550
X31931Y18550
X30931Y18550
X29931Y18550
X28931Y18550
X27931Y18550
X26931Y18550
X26931Y19550
X27931Y19550
X28931Y19550
X29931Y19550
X30931Y19550
X31931Y19550
X32931Y19550
X33931Y19550
X34931Y19550
X35931Y19550
X37931Y19550
X38931Y19550
X39931Y19550
X23881Y13950
X22881Y13950
X22881Y12950
X23881Y12950
X23881Y11950
X22881Y11950
X22881Y10950
X23881Y10950
X23881Y9950
X22881Y9950
X22881Y8950
X23881Y8950
X23881Y7950
X22881Y7950
X26931Y2550
X27931Y2550
X28931Y2550
X29931Y2550
X30931Y2550
X31931Y2550
X32931Y2550
X33931Y2550
X34931Y2550
X35931Y2550
X35931Y1550
X34931Y1550
X33931Y1550
X32931Y1550
X31931Y1550
X30931Y1550
X29931Y1550
X28931Y1550
X27931Y1550
X26931Y1550
X22619Y18552
X21619Y18552
X20619Y18552
X19619Y18552
X18619Y18552
X17619Y18552
X16619Y18552
X15619Y18552
X14619Y18552
X13619Y18552
X12619Y18552
X11619Y18552
X10619Y18552
X9619Y18552
X8619Y18552
X8619Y19552
X9619Y19552
X10619Y19552
X11619Y19552
X12619Y19552
X13619Y19552
X14619Y19552
X15619Y19552
X16619Y19552
X17619Y19552
X18619Y19552
X19619Y19552
X20619Y19552
X21619Y19552
X22619Y19552
M30
