G75*
G70*
%OFA0B0*%
%FSLAX24Y24*%
%IPPOS*%
%LPD*%
%AMOC8*
5,1,8,0,0,1.08239X$1,22.5*
%
%ADD10C,0.0050*%
%ADD11C,0.0030*%
%ADD12C,0.0060*%
D10*
X004431Y000833D02*
X004431Y020267D01*
X004433Y020299D01*
X004438Y020330D01*
X004447Y020360D01*
X004459Y020390D01*
X004474Y020418D01*
X004493Y020443D01*
X004514Y020467D01*
X004538Y020488D01*
X004563Y020507D01*
X004591Y020522D01*
X004621Y020534D01*
X004651Y020543D01*
X004682Y020548D01*
X004714Y020550D01*
X041148Y020550D01*
X041180Y020548D01*
X041211Y020543D01*
X041241Y020534D01*
X041271Y020522D01*
X041299Y020507D01*
X041324Y020488D01*
X041348Y020467D01*
X041369Y020443D01*
X041388Y020418D01*
X041403Y020390D01*
X041415Y020360D01*
X041424Y020330D01*
X041429Y020299D01*
X041431Y020267D01*
X041431Y000833D01*
X041429Y000801D01*
X041424Y000770D01*
X041415Y000740D01*
X041403Y000710D01*
X041388Y000682D01*
X041369Y000657D01*
X041348Y000633D01*
X041324Y000612D01*
X041299Y000593D01*
X041271Y000578D01*
X041241Y000566D01*
X041211Y000557D01*
X041180Y000552D01*
X041148Y000550D01*
X004714Y000550D01*
X004682Y000552D01*
X004651Y000557D01*
X004621Y000566D01*
X004591Y000578D01*
X004563Y000593D01*
X004538Y000612D01*
X004514Y000633D01*
X004493Y000657D01*
X004474Y000682D01*
X004459Y000710D01*
X004447Y000740D01*
X004438Y000770D01*
X004433Y000801D01*
X004431Y000833D01*
D11*
X018506Y013440D02*
X018554Y013392D01*
X018748Y013585D01*
X018796Y013537D01*
X018796Y013440D01*
X018748Y013392D01*
X018554Y013392D01*
X018506Y013440D02*
X018506Y013537D01*
X018554Y013585D01*
X018748Y013585D01*
X018748Y013686D02*
X018796Y013735D01*
X018796Y013832D01*
X018748Y013880D01*
X018748Y013981D02*
X018796Y014029D01*
X018796Y014126D01*
X018748Y014175D01*
X018554Y014175D01*
X018506Y014126D01*
X018506Y014029D01*
X018554Y013981D01*
X018554Y013880D02*
X018602Y013880D01*
X018651Y013832D01*
X018651Y013735D01*
X018699Y013686D01*
X018748Y013686D01*
X018554Y013686D02*
X018506Y013735D01*
X018506Y013832D01*
X018554Y013880D01*
X018554Y014276D02*
X018506Y014324D01*
X018506Y014421D01*
X018554Y014469D01*
X018506Y014569D02*
X018506Y014666D01*
X018506Y014617D02*
X018796Y014617D01*
X018796Y014569D02*
X018796Y014666D01*
X018651Y014767D02*
X018699Y014815D01*
X018699Y014960D01*
X018796Y014960D02*
X018506Y014960D01*
X018506Y014815D01*
X018554Y014767D01*
X018651Y014767D01*
X018699Y015062D02*
X018748Y015062D01*
X018796Y015110D01*
X018796Y015207D01*
X018748Y015255D01*
X018651Y015207D02*
X018651Y015110D01*
X018699Y015062D01*
X018554Y015062D02*
X018506Y015110D01*
X018506Y015207D01*
X018554Y015255D01*
X018602Y015255D01*
X018651Y015207D01*
X018796Y015714D02*
X018796Y015811D01*
X018796Y015762D02*
X018506Y015762D01*
X018506Y015714D02*
X018506Y015811D01*
X018506Y015912D02*
X018796Y015912D01*
X018796Y016105D02*
X018506Y016105D01*
X018602Y016009D01*
X018506Y015912D01*
X018554Y016206D02*
X018506Y016255D01*
X018506Y016352D01*
X018554Y016400D01*
X018748Y016400D01*
X018796Y016352D01*
X018796Y016255D01*
X018748Y016206D01*
X018554Y016206D01*
X018554Y016501D02*
X018506Y016549D01*
X018506Y016646D01*
X018554Y016695D01*
X018602Y016695D01*
X018651Y016646D01*
X018651Y016549D01*
X018699Y016501D01*
X018748Y016501D01*
X018796Y016549D01*
X018796Y016646D01*
X018748Y016695D01*
X018796Y016796D02*
X018796Y016989D01*
X018602Y016796D01*
X018554Y016796D01*
X018506Y016844D01*
X018506Y016941D01*
X018554Y016989D01*
X018506Y017089D02*
X018506Y017186D01*
X018506Y017137D02*
X018796Y017137D01*
X018796Y017089D02*
X018796Y017186D01*
X018651Y017287D02*
X018699Y017335D01*
X018699Y017480D01*
X018796Y017480D02*
X018506Y017480D01*
X018506Y017335D01*
X018554Y017287D01*
X018651Y017287D01*
X018699Y017582D02*
X018748Y017582D01*
X018796Y017630D01*
X018796Y017727D01*
X018748Y017775D01*
X018651Y017727D02*
X018602Y017775D01*
X018554Y017775D01*
X018506Y017727D01*
X018506Y017630D01*
X018554Y017582D01*
X018651Y017630D02*
X018699Y017582D01*
X018651Y017630D02*
X018651Y017727D01*
X019386Y017727D02*
X019434Y017775D01*
X019482Y017775D01*
X019531Y017727D01*
X019531Y017630D01*
X019579Y017582D01*
X019628Y017582D01*
X019676Y017630D01*
X019676Y017727D01*
X019628Y017775D01*
X019386Y017727D02*
X019386Y017630D01*
X019434Y017582D01*
X019386Y017480D02*
X019386Y017335D01*
X019434Y017287D01*
X019531Y017287D01*
X019579Y017335D01*
X019579Y017480D01*
X019676Y017480D02*
X019386Y017480D01*
X019386Y017186D02*
X019386Y017089D01*
X019386Y017137D02*
X019676Y017137D01*
X019676Y017089D02*
X019676Y017186D01*
X019676Y016989D02*
X019482Y016796D01*
X019434Y016796D01*
X019386Y016844D01*
X019386Y016941D01*
X019434Y016989D01*
X019676Y016989D02*
X019676Y016796D01*
X019628Y016695D02*
X019676Y016646D01*
X019676Y016549D01*
X019628Y016501D01*
X019676Y016400D02*
X019386Y016400D01*
X019434Y016501D02*
X019386Y016549D01*
X019386Y016646D01*
X019434Y016695D01*
X019628Y016695D01*
X019676Y016400D02*
X019676Y016206D01*
X019676Y016105D02*
X019386Y016105D01*
X019531Y016057D02*
X019676Y015912D01*
X019579Y016105D02*
X019386Y015912D01*
X019434Y015255D02*
X019482Y015255D01*
X019531Y015207D01*
X019531Y015110D01*
X019579Y015062D01*
X019628Y015062D01*
X019676Y015110D01*
X019676Y015207D01*
X019628Y015255D01*
X019434Y015255D02*
X019386Y015207D01*
X019386Y015110D01*
X019434Y015062D01*
X019386Y014960D02*
X019386Y014815D01*
X019434Y014767D01*
X019531Y014767D01*
X019579Y014815D01*
X019579Y014960D01*
X019676Y014960D02*
X019386Y014960D01*
X019386Y014666D02*
X019386Y014569D01*
X019386Y014617D02*
X019676Y014617D01*
X019676Y014569D02*
X019676Y014666D01*
X019676Y014469D02*
X019482Y014276D01*
X019434Y014276D01*
X019386Y014324D01*
X019386Y014421D01*
X019434Y014469D01*
X019676Y014469D02*
X019676Y014276D01*
X019628Y014175D02*
X019676Y014126D01*
X019676Y014029D01*
X019628Y013981D01*
X019579Y013981D01*
X019531Y014029D01*
X019531Y014126D01*
X019482Y014175D01*
X019434Y014175D01*
X019386Y014126D01*
X019386Y014029D01*
X019434Y013981D01*
X019386Y013880D02*
X019386Y013783D01*
X019386Y013832D02*
X019676Y013832D01*
X019676Y013880D02*
X019676Y013783D01*
X019676Y013684D02*
X019386Y013684D01*
X019482Y013587D01*
X019386Y013490D01*
X019676Y013490D01*
X019628Y013389D02*
X019676Y013340D01*
X019676Y013244D01*
X019628Y013195D01*
X019434Y013195D01*
X019386Y013244D01*
X019386Y013340D01*
X019434Y013389D01*
X019628Y013389D01*
X020566Y013588D02*
X020856Y013782D01*
X020856Y013588D02*
X020566Y013782D01*
X020566Y013883D02*
X020566Y014076D01*
X020566Y013980D02*
X020856Y013980D01*
X020856Y014178D02*
X020856Y014371D01*
X020856Y014274D02*
X020566Y014274D01*
X020662Y014371D01*
X020566Y014472D02*
X020856Y014472D01*
X020566Y014666D01*
X020856Y014666D01*
X020856Y014767D02*
X020662Y014767D01*
X020566Y014864D01*
X020662Y014960D01*
X020856Y014960D01*
X020808Y015062D02*
X020856Y015110D01*
X020856Y015207D01*
X020808Y015255D01*
X020614Y015255D01*
X020566Y015207D01*
X020566Y015110D01*
X020614Y015062D01*
X020711Y014960D02*
X020711Y014767D01*
X021546Y014864D02*
X021642Y014767D01*
X021836Y014767D01*
X021836Y014666D02*
X021546Y014666D01*
X021836Y014472D01*
X021546Y014472D01*
X021594Y014371D02*
X021546Y014323D01*
X021546Y014226D01*
X021594Y014178D01*
X021642Y014178D01*
X021836Y014371D01*
X021836Y014178D01*
X021836Y013980D02*
X021546Y013980D01*
X021546Y014076D02*
X021546Y013883D01*
X021546Y013782D02*
X021836Y013588D01*
X021836Y013782D02*
X021546Y013588D01*
X022474Y014472D02*
X022426Y014521D01*
X022426Y014666D01*
X022716Y014666D01*
X022716Y014521D01*
X022668Y014472D01*
X022474Y014472D01*
X022426Y014767D02*
X022716Y014767D01*
X022426Y014960D01*
X022716Y014960D01*
X022668Y015062D02*
X022571Y015062D01*
X022571Y015158D01*
X022668Y015062D02*
X022716Y015110D01*
X022716Y015207D01*
X022668Y015255D01*
X022474Y015255D01*
X022426Y015207D01*
X022426Y015110D01*
X022474Y015062D01*
X021836Y015110D02*
X021788Y015062D01*
X021836Y015110D02*
X021836Y015207D01*
X021788Y015255D01*
X021594Y015255D01*
X021546Y015207D01*
X021546Y015110D01*
X021594Y015062D01*
X021642Y014960D02*
X021546Y014864D01*
X021642Y014960D02*
X021836Y014960D01*
X021691Y014960D02*
X021691Y014767D01*
X021836Y016108D02*
X021546Y016302D01*
X021594Y016403D02*
X021691Y016403D01*
X021739Y016451D01*
X021739Y016596D01*
X021739Y016500D02*
X021836Y016403D01*
X021836Y016302D02*
X021546Y016108D01*
X021594Y016403D02*
X021546Y016451D01*
X021546Y016596D01*
X021836Y016596D01*
X021836Y016698D02*
X021836Y016891D01*
X021642Y016698D01*
X021594Y016698D01*
X021546Y016746D01*
X021546Y016843D01*
X021594Y016891D01*
X021546Y016992D02*
X021836Y016992D01*
X021546Y017186D01*
X021836Y017186D01*
X021836Y017287D02*
X021642Y017287D01*
X021546Y017384D01*
X021642Y017480D01*
X021836Y017480D01*
X021788Y017582D02*
X021836Y017630D01*
X021836Y017727D01*
X021788Y017775D01*
X021594Y017775D01*
X021546Y017727D01*
X021546Y017630D01*
X021594Y017582D01*
X021691Y017480D02*
X021691Y017287D01*
X022426Y017287D02*
X022716Y017287D01*
X022426Y017480D01*
X022716Y017480D01*
X022668Y017582D02*
X022571Y017582D01*
X022571Y017678D01*
X022668Y017582D02*
X022716Y017630D01*
X022716Y017727D01*
X022668Y017775D01*
X022474Y017775D01*
X022426Y017727D01*
X022426Y017630D01*
X022474Y017582D01*
X022426Y017186D02*
X022426Y017041D01*
X022474Y016992D01*
X022668Y016992D01*
X022716Y017041D01*
X022716Y017186D01*
X022426Y017186D01*
X020856Y017186D02*
X020566Y017186D01*
X020856Y016992D01*
X020566Y016992D01*
X020662Y016891D02*
X020566Y016794D01*
X020856Y016794D01*
X020856Y016698D02*
X020856Y016891D01*
X020856Y016596D02*
X020566Y016596D01*
X020566Y016451D01*
X020614Y016403D01*
X020711Y016403D01*
X020759Y016451D01*
X020759Y016596D01*
X020759Y016500D02*
X020856Y016403D01*
X020856Y016302D02*
X020566Y016108D01*
X020566Y016302D02*
X020856Y016108D01*
X020856Y017287D02*
X020662Y017287D01*
X020566Y017384D01*
X020662Y017480D01*
X020856Y017480D01*
X020808Y017582D02*
X020856Y017630D01*
X020856Y017727D01*
X020808Y017775D01*
X020614Y017775D01*
X020566Y017727D01*
X020566Y017630D01*
X020614Y017582D01*
X020711Y017480D02*
X020711Y017287D01*
X017716Y017287D02*
X017426Y017287D01*
X017426Y017186D02*
X017426Y017041D01*
X017474Y016992D01*
X017668Y016992D01*
X017716Y017041D01*
X017716Y017186D01*
X017426Y017186D01*
X017426Y017480D02*
X017716Y017287D01*
X017716Y017480D02*
X017426Y017480D01*
X017474Y017582D02*
X017426Y017630D01*
X017426Y017727D01*
X017474Y017775D01*
X017668Y017775D01*
X017716Y017727D01*
X017716Y017630D01*
X017668Y017582D01*
X017571Y017582D01*
X017571Y017678D01*
X016736Y017630D02*
X016688Y017582D01*
X016591Y017582D01*
X016591Y017678D01*
X016494Y017582D02*
X016446Y017630D01*
X016446Y017727D01*
X016494Y017775D01*
X016688Y017775D01*
X016736Y017727D01*
X016736Y017630D01*
X016736Y017480D02*
X016736Y017384D01*
X016736Y017432D02*
X016446Y017432D01*
X016446Y017480D02*
X016446Y017384D01*
X016494Y017284D02*
X016688Y017284D01*
X016736Y017236D01*
X016736Y017139D01*
X016688Y017090D01*
X016494Y017090D01*
X016446Y017139D01*
X016446Y017236D01*
X016494Y017284D01*
X016542Y016989D02*
X016446Y016893D01*
X016542Y016796D01*
X016736Y016796D01*
X016688Y016695D02*
X016736Y016646D01*
X016736Y016549D01*
X016688Y016501D01*
X016639Y016501D01*
X016591Y016549D01*
X016591Y016598D01*
X016591Y016549D02*
X016542Y016501D01*
X016494Y016501D01*
X016446Y016549D01*
X016446Y016646D01*
X016494Y016695D01*
X016591Y016796D02*
X016591Y016989D01*
X016542Y016989D02*
X016736Y016989D01*
X015756Y016989D02*
X015756Y016796D01*
X015756Y016893D02*
X015466Y016893D01*
X015562Y016989D01*
X015466Y017089D02*
X015466Y017186D01*
X015466Y017137D02*
X015756Y017137D01*
X015756Y017089D02*
X015756Y017186D01*
X015611Y017287D02*
X015659Y017335D01*
X015659Y017480D01*
X015756Y017480D02*
X015466Y017480D01*
X015466Y017335D01*
X015514Y017287D01*
X015611Y017287D01*
X015659Y017582D02*
X015611Y017630D01*
X015611Y017727D01*
X015562Y017775D01*
X015514Y017775D01*
X015466Y017727D01*
X015466Y017630D01*
X015514Y017582D01*
X015659Y017582D02*
X015708Y017582D01*
X015756Y017630D01*
X015756Y017727D01*
X015708Y017775D01*
X014876Y017727D02*
X014828Y017775D01*
X014876Y017727D02*
X014876Y017630D01*
X014828Y017582D01*
X014779Y017582D01*
X014731Y017630D01*
X014731Y017727D01*
X014682Y017775D01*
X014634Y017775D01*
X014586Y017727D01*
X014586Y017630D01*
X014634Y017582D01*
X014586Y017480D02*
X014586Y017335D01*
X014634Y017287D01*
X014731Y017287D01*
X014779Y017335D01*
X014779Y017480D01*
X014876Y017480D02*
X014586Y017480D01*
X014586Y017186D02*
X014586Y017089D01*
X014586Y017137D02*
X014876Y017137D01*
X014876Y017089D02*
X014876Y017186D01*
X014828Y016989D02*
X014876Y016941D01*
X014876Y016844D01*
X014828Y016796D01*
X014779Y016796D01*
X014731Y016844D01*
X014731Y016893D01*
X014731Y016844D02*
X014682Y016796D01*
X014634Y016796D01*
X014586Y016844D01*
X014586Y016941D01*
X014634Y016989D01*
X014634Y016695D02*
X014682Y016695D01*
X014731Y016646D01*
X014731Y016549D01*
X014779Y016501D01*
X014828Y016501D01*
X014876Y016549D01*
X014876Y016646D01*
X014828Y016695D01*
X014634Y016695D02*
X014586Y016646D01*
X014586Y016549D01*
X014634Y016501D01*
X014586Y016400D02*
X014586Y016303D01*
X014586Y016352D02*
X014876Y016352D01*
X014876Y016400D02*
X014876Y016303D01*
X014876Y016204D02*
X014586Y016204D01*
X014682Y016107D01*
X014586Y016010D01*
X014876Y016010D01*
X014828Y015909D02*
X014876Y015860D01*
X014876Y015764D01*
X014828Y015715D01*
X014634Y015715D01*
X014586Y015764D01*
X014586Y015860D01*
X014634Y015909D01*
X014828Y015909D01*
X015466Y015960D02*
X015514Y015912D01*
X015708Y016105D01*
X015756Y016057D01*
X015756Y015960D01*
X015708Y015912D01*
X015514Y015912D01*
X015466Y015960D02*
X015466Y016057D01*
X015514Y016105D01*
X015708Y016105D01*
X015708Y016206D02*
X015756Y016255D01*
X015756Y016352D01*
X015708Y016400D01*
X015708Y016501D02*
X015756Y016549D01*
X015756Y016646D01*
X015708Y016695D01*
X015514Y016695D01*
X015466Y016646D01*
X015466Y016549D01*
X015514Y016501D01*
X015514Y016400D02*
X015562Y016400D01*
X015611Y016352D01*
X015611Y016255D01*
X015659Y016206D01*
X015708Y016206D01*
X015514Y016206D02*
X015466Y016255D01*
X015466Y016352D01*
X015514Y016400D01*
X013396Y016352D02*
X013396Y016255D01*
X013348Y016206D01*
X013154Y016206D01*
X013106Y016255D01*
X013106Y016352D01*
X013154Y016400D01*
X013348Y016400D01*
X013396Y016352D01*
X013348Y016501D02*
X013396Y016549D01*
X013396Y016646D01*
X013348Y016695D01*
X013348Y016796D02*
X013396Y016844D01*
X013396Y016941D01*
X013348Y016989D01*
X013396Y017089D02*
X013396Y017186D01*
X013396Y017137D02*
X013106Y017137D01*
X013106Y017089D02*
X013106Y017186D01*
X013154Y017287D02*
X013251Y017287D01*
X013299Y017335D01*
X013299Y017480D01*
X013396Y017480D02*
X013106Y017480D01*
X013106Y017335D01*
X013154Y017287D01*
X013154Y017582D02*
X013106Y017630D01*
X013106Y017727D01*
X013154Y017775D01*
X013202Y017775D01*
X013251Y017727D01*
X013251Y017630D01*
X013299Y017582D01*
X013348Y017582D01*
X013396Y017630D01*
X013396Y017727D01*
X013348Y017775D01*
X012516Y017727D02*
X012516Y017630D01*
X012468Y017582D01*
X012371Y017582D01*
X012371Y017678D01*
X012274Y017582D02*
X012226Y017630D01*
X012226Y017727D01*
X012274Y017775D01*
X012468Y017775D01*
X012516Y017727D01*
X012516Y017480D02*
X012226Y017480D01*
X012516Y017287D01*
X012226Y017287D01*
X012226Y017186D02*
X012226Y017041D01*
X012274Y016992D01*
X012468Y016992D01*
X012516Y017041D01*
X012516Y017186D01*
X012226Y017186D01*
X011636Y017186D02*
X011636Y017089D01*
X011636Y017137D02*
X011346Y017137D01*
X011346Y017089D02*
X011346Y017186D01*
X011394Y017287D02*
X011346Y017335D01*
X011346Y017480D01*
X011636Y017480D01*
X011636Y017335D01*
X011588Y017287D01*
X011394Y017287D01*
X011442Y017582D02*
X011636Y017582D01*
X011491Y017582D02*
X011491Y017775D01*
X011442Y017775D02*
X011346Y017678D01*
X011442Y017582D01*
X011442Y017775D02*
X011636Y017775D01*
X011636Y016989D02*
X011346Y016989D01*
X011636Y016796D01*
X011346Y016796D01*
X011394Y016695D02*
X011346Y016646D01*
X011346Y016549D01*
X011394Y016501D01*
X011442Y016501D01*
X011636Y016695D01*
X011636Y016501D01*
X011636Y016400D02*
X011636Y016206D01*
X011636Y016303D02*
X011346Y016303D01*
X011442Y016400D01*
X010556Y016400D02*
X010508Y016400D01*
X010314Y016206D01*
X010266Y016206D01*
X010266Y016400D01*
X010266Y016598D02*
X010556Y016598D01*
X010556Y016695D02*
X010556Y016501D01*
X010362Y016695D02*
X010266Y016598D01*
X010266Y016796D02*
X010556Y016796D01*
X010266Y016989D01*
X010556Y016989D01*
X010556Y017089D02*
X010556Y017186D01*
X010556Y017137D02*
X010266Y017137D01*
X010266Y017089D02*
X010266Y017186D01*
X010314Y017287D02*
X010266Y017335D01*
X010266Y017480D01*
X010556Y017480D01*
X010556Y017335D01*
X010508Y017287D01*
X010314Y017287D01*
X010362Y017582D02*
X010266Y017678D01*
X010362Y017775D01*
X010556Y017775D01*
X010411Y017775D02*
X010411Y017582D01*
X010362Y017582D02*
X010556Y017582D01*
X009676Y017630D02*
X009628Y017582D01*
X009531Y017582D01*
X009531Y017678D01*
X009434Y017582D02*
X009386Y017630D01*
X009386Y017727D01*
X009434Y017775D01*
X009628Y017775D01*
X009676Y017727D01*
X009676Y017630D01*
X009676Y017480D02*
X009386Y017480D01*
X009676Y017287D01*
X009386Y017287D01*
X009386Y017186D02*
X009386Y017041D01*
X009434Y016992D01*
X009628Y016992D01*
X009676Y017041D01*
X009676Y017186D01*
X009386Y017186D01*
X008796Y017188D02*
X008796Y017285D01*
X008748Y017333D01*
X008748Y017432D02*
X008796Y017432D01*
X008796Y017480D01*
X008748Y017480D01*
X008748Y017432D01*
X008748Y017582D02*
X008796Y017630D01*
X008796Y017727D01*
X008748Y017775D01*
X008651Y017678D02*
X008651Y017630D01*
X008699Y017582D01*
X008748Y017582D01*
X008651Y017630D02*
X008602Y017582D01*
X008554Y017582D01*
X008506Y017630D01*
X008506Y017727D01*
X008554Y017775D01*
X008554Y017333D02*
X008506Y017285D01*
X008506Y017188D01*
X008554Y017140D01*
X008602Y017140D01*
X008651Y017188D01*
X008699Y017140D01*
X008748Y017140D01*
X008796Y017188D01*
X008651Y017188D02*
X008651Y017236D01*
X008699Y017038D02*
X008796Y016942D01*
X008699Y016845D01*
X008506Y016845D01*
X008506Y017038D02*
X008699Y017038D01*
X007706Y018405D02*
X007512Y018405D01*
X007609Y018405D02*
X007609Y018695D01*
X007706Y018598D01*
X007706Y019425D02*
X007512Y019618D01*
X007512Y019667D01*
X007561Y019715D01*
X007658Y019715D01*
X007706Y019667D01*
X007706Y019425D02*
X007512Y019425D01*
X013106Y016941D02*
X013106Y016844D01*
X013154Y016796D01*
X013202Y016796D01*
X013251Y016844D01*
X013299Y016796D01*
X013348Y016796D01*
X013251Y016844D02*
X013251Y016893D01*
X013154Y016989D02*
X013106Y016941D01*
X013154Y016695D02*
X013202Y016695D01*
X013251Y016646D01*
X013251Y016549D01*
X013299Y016501D01*
X013348Y016501D01*
X013154Y016501D02*
X013106Y016549D01*
X013106Y016646D01*
X013154Y016695D01*
X013106Y016105D02*
X013202Y016009D01*
X013106Y015912D01*
X013396Y015912D01*
X013396Y015811D02*
X013396Y015714D01*
X013396Y015762D02*
X013106Y015762D01*
X013106Y015714D02*
X013106Y015811D01*
X013106Y016105D02*
X013396Y016105D01*
X013348Y015275D02*
X013396Y015227D01*
X013396Y015130D01*
X013348Y015082D01*
X013299Y015082D01*
X013251Y015130D01*
X013251Y015227D01*
X013202Y015275D01*
X013154Y015275D01*
X013106Y015227D01*
X013106Y015130D01*
X013154Y015082D01*
X013106Y014980D02*
X013106Y014835D01*
X013154Y014787D01*
X013251Y014787D01*
X013299Y014835D01*
X013299Y014980D01*
X013396Y014980D02*
X013106Y014980D01*
X013106Y014686D02*
X013106Y014589D01*
X013106Y014637D02*
X013396Y014637D01*
X013396Y014589D02*
X013396Y014686D01*
X013348Y014489D02*
X013396Y014441D01*
X013396Y014344D01*
X013348Y014296D01*
X013299Y014296D01*
X013251Y014344D01*
X013251Y014393D01*
X013251Y014344D02*
X013202Y014296D01*
X013154Y014296D01*
X013106Y014344D01*
X013106Y014441D01*
X013154Y014489D01*
X012516Y014541D02*
X012468Y014492D01*
X012274Y014492D01*
X012226Y014541D01*
X012226Y014686D01*
X012516Y014686D01*
X012516Y014541D01*
X012516Y014787D02*
X012226Y014787D01*
X012226Y014980D02*
X012516Y014787D01*
X012516Y014980D02*
X012226Y014980D01*
X012274Y015082D02*
X012226Y015130D01*
X012226Y015227D01*
X012274Y015275D01*
X012468Y015275D01*
X012516Y015227D01*
X012516Y015130D01*
X012468Y015082D01*
X012371Y015082D01*
X012371Y015178D01*
X011636Y015082D02*
X011442Y015082D01*
X011346Y015178D01*
X011442Y015275D01*
X011636Y015275D01*
X011491Y015275D02*
X011491Y015082D01*
X011346Y014980D02*
X011636Y014980D01*
X011636Y014835D01*
X011588Y014787D01*
X011394Y014787D01*
X011346Y014835D01*
X011346Y014980D01*
X011346Y014686D02*
X011346Y014589D01*
X011346Y014637D02*
X011636Y014637D01*
X011636Y014589D02*
X011636Y014686D01*
X011636Y014489D02*
X011346Y014489D01*
X011636Y014296D01*
X011346Y014296D01*
X011394Y014195D02*
X011346Y014146D01*
X011346Y014049D01*
X011394Y014001D01*
X011442Y014001D01*
X011636Y014195D01*
X011636Y014001D01*
X011588Y013900D02*
X011394Y013706D01*
X011588Y013706D01*
X011636Y013755D01*
X011636Y013852D01*
X011588Y013900D01*
X011394Y013900D01*
X011346Y013852D01*
X011346Y013755D01*
X011394Y013706D01*
X010556Y013755D02*
X010508Y013706D01*
X010459Y013706D01*
X010411Y013755D01*
X010411Y013900D01*
X010508Y013900D01*
X010556Y013852D01*
X010556Y013755D01*
X010411Y013900D02*
X010314Y013803D01*
X010266Y013706D01*
X010266Y014098D02*
X010556Y014098D01*
X010556Y014195D02*
X010556Y014001D01*
X010362Y014195D02*
X010266Y014098D01*
X010266Y014296D02*
X010556Y014296D01*
X010266Y014489D01*
X010556Y014489D01*
X010556Y014589D02*
X010556Y014686D01*
X010556Y014637D02*
X010266Y014637D01*
X010266Y014589D02*
X010266Y014686D01*
X010314Y014787D02*
X010266Y014835D01*
X010266Y014980D01*
X010556Y014980D01*
X010556Y014835D01*
X010508Y014787D01*
X010314Y014787D01*
X010362Y015082D02*
X010266Y015178D01*
X010362Y015275D01*
X010556Y015275D01*
X010411Y015275D02*
X010411Y015082D01*
X010362Y015082D02*
X010556Y015082D01*
X009676Y015130D02*
X009628Y015082D01*
X009531Y015082D01*
X009531Y015178D01*
X009434Y015082D02*
X009386Y015130D01*
X009386Y015227D01*
X009434Y015275D01*
X009628Y015275D01*
X009676Y015227D01*
X009676Y015130D01*
X009676Y014980D02*
X009386Y014980D01*
X009676Y014787D01*
X009386Y014787D01*
X009386Y014686D02*
X009386Y014541D01*
X009434Y014492D01*
X009628Y014492D01*
X009676Y014541D01*
X009676Y014686D01*
X009386Y014686D01*
X008796Y014884D02*
X008699Y014787D01*
X008506Y014787D01*
X008506Y014980D02*
X008699Y014980D01*
X008796Y014884D01*
X008748Y015082D02*
X008796Y015130D01*
X008796Y015227D01*
X008748Y015275D01*
X008651Y015275D02*
X008602Y015178D01*
X008602Y015130D01*
X008651Y015082D01*
X008748Y015082D01*
X008651Y015275D02*
X008506Y015275D01*
X008506Y015082D01*
X013106Y014146D02*
X013154Y014195D01*
X013348Y014195D01*
X013396Y014146D01*
X013396Y014049D01*
X013348Y014001D01*
X013396Y013900D02*
X013106Y013900D01*
X013154Y014001D02*
X013106Y014049D01*
X013106Y014146D01*
X013396Y013900D02*
X013396Y013706D01*
X013396Y013605D02*
X013106Y013605D01*
X013251Y013557D02*
X013396Y013412D01*
X013299Y013605D02*
X013106Y013412D01*
X014586Y013460D02*
X014634Y013412D01*
X014828Y013605D01*
X014876Y013557D01*
X014876Y013460D01*
X014828Y013412D01*
X014634Y013412D01*
X014586Y013460D02*
X014586Y013557D01*
X014634Y013605D01*
X014828Y013605D01*
X014828Y013706D02*
X014876Y013755D01*
X014876Y013852D01*
X014828Y013900D01*
X014828Y014001D02*
X014876Y014049D01*
X014876Y014146D01*
X014828Y014195D01*
X014634Y014195D01*
X014586Y014146D01*
X014586Y014049D01*
X014634Y014001D01*
X014634Y013900D02*
X014682Y013900D01*
X014731Y013852D01*
X014731Y013755D01*
X014779Y013706D01*
X014828Y013706D01*
X014634Y013706D02*
X014586Y013755D01*
X014586Y013852D01*
X014634Y013900D01*
X014634Y014296D02*
X014682Y014296D01*
X014731Y014344D01*
X014779Y014296D01*
X014828Y014296D01*
X014876Y014344D01*
X014876Y014441D01*
X014828Y014489D01*
X014876Y014589D02*
X014876Y014686D01*
X014876Y014637D02*
X014586Y014637D01*
X014586Y014589D02*
X014586Y014686D01*
X014634Y014787D02*
X014731Y014787D01*
X014779Y014835D01*
X014779Y014980D01*
X014876Y014980D02*
X014586Y014980D01*
X014586Y014835D01*
X014634Y014787D01*
X014634Y015082D02*
X014586Y015130D01*
X014586Y015227D01*
X014634Y015275D01*
X014682Y015275D01*
X014731Y015227D01*
X014731Y015130D01*
X014779Y015082D01*
X014828Y015082D01*
X014876Y015130D01*
X014876Y015227D01*
X014828Y015275D01*
X015466Y015227D02*
X015514Y015275D01*
X015562Y015275D01*
X015611Y015227D01*
X015611Y015130D01*
X015659Y015082D01*
X015708Y015082D01*
X015756Y015130D01*
X015756Y015227D01*
X015708Y015275D01*
X015466Y015227D02*
X015466Y015130D01*
X015514Y015082D01*
X015466Y014980D02*
X015466Y014835D01*
X015514Y014787D01*
X015611Y014787D01*
X015659Y014835D01*
X015659Y014980D01*
X015756Y014980D02*
X015466Y014980D01*
X015466Y014686D02*
X015466Y014589D01*
X015466Y014637D02*
X015756Y014637D01*
X015756Y014589D02*
X015756Y014686D01*
X015708Y014489D02*
X015756Y014441D01*
X015756Y014344D01*
X015708Y014296D01*
X015659Y014296D01*
X015611Y014344D01*
X015611Y014393D01*
X015611Y014344D02*
X015562Y014296D01*
X015514Y014296D01*
X015466Y014344D01*
X015466Y014441D01*
X015514Y014489D01*
X015466Y014195D02*
X015756Y014195D01*
X015756Y014001D01*
X015756Y013900D02*
X015466Y013900D01*
X015756Y013706D01*
X015466Y013706D01*
X015562Y013605D02*
X015466Y013509D01*
X015562Y013412D01*
X015756Y013412D01*
X015611Y013412D02*
X015611Y013605D01*
X015562Y013605D02*
X015756Y013605D01*
X016446Y013509D02*
X016736Y013509D01*
X016736Y013605D02*
X016736Y013412D01*
X016542Y013605D02*
X016446Y013509D01*
X016494Y013706D02*
X016446Y013755D01*
X016446Y013852D01*
X016494Y013900D01*
X016542Y013900D01*
X016591Y013852D01*
X016591Y013755D01*
X016639Y013706D01*
X016688Y013706D01*
X016736Y013755D01*
X016736Y013852D01*
X016688Y013900D01*
X016688Y014001D02*
X016736Y014049D01*
X016736Y014146D01*
X016688Y014195D01*
X016494Y014195D01*
X016446Y014146D01*
X016446Y014049D01*
X016494Y014001D01*
X016736Y014296D02*
X016736Y014489D01*
X016736Y014393D02*
X016446Y014393D01*
X016542Y014489D01*
X016446Y014589D02*
X016446Y014686D01*
X016446Y014637D02*
X016736Y014637D01*
X016736Y014589D02*
X016736Y014686D01*
X016591Y014787D02*
X016494Y014787D01*
X016446Y014835D01*
X016446Y014980D01*
X016736Y014980D01*
X016639Y014980D02*
X016639Y014835D01*
X016591Y014787D01*
X016639Y015082D02*
X016688Y015082D01*
X016736Y015130D01*
X016736Y015227D01*
X016688Y015275D01*
X016591Y015227D02*
X016591Y015130D01*
X016639Y015082D01*
X016494Y015082D02*
X016446Y015130D01*
X016446Y015227D01*
X016494Y015275D01*
X016542Y015275D01*
X016591Y015227D01*
X017426Y015227D02*
X017474Y015275D01*
X017668Y015275D01*
X017716Y015227D01*
X017716Y015130D01*
X017668Y015082D01*
X017571Y015082D01*
X017571Y015178D01*
X017474Y015082D02*
X017426Y015130D01*
X017426Y015227D01*
X017426Y014980D02*
X017716Y014787D01*
X017426Y014787D01*
X017426Y014686D02*
X017426Y014541D01*
X017474Y014492D01*
X017668Y014492D01*
X017716Y014541D01*
X017716Y014686D01*
X017426Y014686D01*
X017426Y014980D02*
X017716Y014980D01*
X018554Y014276D02*
X018602Y014276D01*
X018796Y014469D01*
X018796Y014276D01*
X015611Y014195D02*
X015611Y014098D01*
X015466Y014001D02*
X015466Y014195D01*
X014731Y014344D02*
X014731Y014393D01*
X014634Y014489D02*
X014586Y014441D01*
X014586Y014344D01*
X014634Y014296D01*
X023718Y018453D02*
X023718Y018647D01*
X023766Y018695D01*
X023863Y018695D01*
X023911Y018647D01*
X023911Y018598D01*
X023863Y018550D01*
X023718Y018550D01*
X023718Y018453D02*
X023766Y018405D01*
X023863Y018405D01*
X023911Y018453D01*
X024012Y018405D02*
X024206Y018405D01*
X024012Y018598D01*
X024012Y018647D01*
X024061Y018695D01*
X024158Y018695D01*
X024206Y018647D01*
X024198Y019465D02*
X024101Y019465D01*
X024052Y019513D01*
X024052Y019562D01*
X024101Y019610D01*
X024149Y019610D01*
X024101Y019610D02*
X024052Y019658D01*
X024052Y019707D01*
X024101Y019755D01*
X024198Y019755D01*
X024246Y019707D01*
X024246Y019513D02*
X024198Y019465D01*
X023951Y019513D02*
X023758Y019707D01*
X023758Y019513D01*
X023806Y019465D01*
X023903Y019465D01*
X023951Y019513D01*
X023951Y019707D01*
X023903Y019755D01*
X023806Y019755D01*
X023758Y019707D01*
X026766Y017727D02*
X026814Y017775D01*
X027008Y017775D01*
X027056Y017727D01*
X027056Y017630D01*
X027008Y017582D01*
X026911Y017582D01*
X026911Y017678D01*
X026814Y017582D02*
X026766Y017630D01*
X026766Y017727D01*
X026766Y017480D02*
X027056Y017287D01*
X026766Y017287D01*
X026766Y017186D02*
X026766Y017041D01*
X026814Y016992D01*
X027008Y016992D01*
X027056Y017041D01*
X027056Y017186D01*
X026766Y017186D01*
X026766Y017480D02*
X027056Y017480D01*
X027766Y017480D02*
X028056Y017480D01*
X028056Y017582D02*
X027766Y017582D01*
X027911Y017480D02*
X027911Y017287D01*
X027911Y017186D02*
X027911Y017089D01*
X028056Y017186D02*
X028056Y016992D01*
X028056Y017186D02*
X027766Y017186D01*
X027766Y016992D01*
X027766Y016891D02*
X027766Y016698D01*
X027766Y016794D02*
X028056Y016794D01*
X028056Y016596D02*
X027862Y016403D01*
X027814Y016403D01*
X027766Y016451D01*
X027766Y016548D01*
X027814Y016596D01*
X028056Y016596D02*
X028056Y016403D01*
X027911Y016302D02*
X027911Y016108D01*
X028056Y016157D02*
X027766Y016157D01*
X027911Y016302D01*
X028766Y016549D02*
X028814Y016501D01*
X029008Y016695D01*
X029056Y016646D01*
X029056Y016549D01*
X029008Y016501D01*
X028814Y016501D01*
X028766Y016549D02*
X028766Y016646D01*
X028814Y016695D01*
X029008Y016695D01*
X029056Y016796D02*
X028862Y016796D01*
X028766Y016893D01*
X028862Y016989D01*
X029056Y016989D01*
X029008Y017090D02*
X029056Y017139D01*
X029056Y017236D01*
X029008Y017284D01*
X028814Y017284D01*
X028766Y017236D01*
X028766Y017139D01*
X028814Y017090D01*
X029008Y017090D01*
X028911Y016989D02*
X028911Y016796D01*
X029056Y017384D02*
X029056Y017480D01*
X029056Y017432D02*
X028766Y017432D01*
X028766Y017480D02*
X028766Y017384D01*
X028814Y017582D02*
X028766Y017630D01*
X028766Y017727D01*
X028814Y017775D01*
X029008Y017775D01*
X029056Y017727D01*
X029056Y017630D01*
X029008Y017582D01*
X028911Y017582D01*
X028911Y017678D01*
X029746Y017630D02*
X029746Y017727D01*
X029794Y017775D01*
X029988Y017775D01*
X030036Y017727D01*
X030036Y017630D01*
X029988Y017582D01*
X029891Y017582D01*
X029891Y017678D01*
X029794Y017582D02*
X029746Y017630D01*
X029746Y017480D02*
X029746Y017384D01*
X029746Y017432D02*
X030036Y017432D01*
X030036Y017480D02*
X030036Y017384D01*
X029988Y017284D02*
X030036Y017236D01*
X030036Y017139D01*
X029988Y017090D01*
X029794Y017090D01*
X029746Y017139D01*
X029746Y017236D01*
X029794Y017284D01*
X029988Y017284D01*
X030036Y016989D02*
X029842Y016989D01*
X029746Y016893D01*
X029842Y016796D01*
X030036Y016796D01*
X030036Y016695D02*
X030036Y016501D01*
X030036Y016598D02*
X029746Y016598D01*
X029842Y016695D01*
X029891Y016796D02*
X029891Y016989D01*
X030826Y017041D02*
X030826Y017137D01*
X030874Y017186D01*
X030922Y017186D01*
X030971Y017137D01*
X030971Y017041D01*
X031019Y016992D01*
X031068Y016992D01*
X031116Y017041D01*
X031116Y017137D01*
X031068Y017186D01*
X031116Y017287D02*
X031116Y017480D01*
X030826Y017480D01*
X030826Y017287D01*
X030971Y017384D02*
X030971Y017480D01*
X030971Y017582D02*
X031019Y017630D01*
X031019Y017775D01*
X031019Y017678D02*
X031116Y017582D01*
X030971Y017582D02*
X030874Y017582D01*
X030826Y017630D01*
X030826Y017775D01*
X031116Y017775D01*
X031806Y017658D02*
X031806Y017562D01*
X031806Y017610D02*
X032048Y017610D01*
X032096Y017658D01*
X032096Y017707D01*
X032048Y017755D01*
X032048Y017460D02*
X032096Y017412D01*
X032096Y017315D01*
X032048Y017267D01*
X031854Y017267D01*
X031806Y017315D01*
X031806Y017412D01*
X031854Y017460D01*
X031902Y017460D01*
X031951Y017412D01*
X031951Y017267D01*
X031951Y017166D02*
X031951Y016972D01*
X031854Y016871D02*
X031806Y016823D01*
X031806Y016726D01*
X031854Y016678D01*
X031902Y016678D01*
X032096Y016871D01*
X032096Y016678D01*
X032886Y016726D02*
X032886Y016823D01*
X032934Y016871D01*
X033031Y016972D02*
X033031Y017166D01*
X033079Y017267D02*
X033031Y017315D01*
X033031Y017412D01*
X032982Y017460D01*
X032934Y017460D01*
X032886Y017412D01*
X032886Y017315D01*
X032934Y017267D01*
X032982Y017267D01*
X033031Y017315D01*
X033079Y017267D02*
X033128Y017267D01*
X033176Y017315D01*
X033176Y017412D01*
X033128Y017460D01*
X033079Y017460D01*
X033031Y017412D01*
X032886Y017562D02*
X032886Y017658D01*
X032886Y017610D02*
X033128Y017610D01*
X033176Y017658D01*
X033176Y017707D01*
X033128Y017755D01*
X033966Y017707D02*
X034014Y017755D01*
X034208Y017755D01*
X034256Y017707D01*
X034256Y017610D01*
X034208Y017562D01*
X034111Y017562D01*
X034111Y017658D01*
X034014Y017562D02*
X033966Y017610D01*
X033966Y017707D01*
X033966Y017460D02*
X033966Y017364D01*
X033966Y017412D02*
X034256Y017412D01*
X034256Y017460D02*
X034256Y017364D01*
X034208Y017264D02*
X034256Y017216D01*
X034256Y017119D01*
X034208Y017070D01*
X034014Y017070D01*
X033966Y017119D01*
X033966Y017216D01*
X034014Y017264D01*
X034208Y017264D01*
X034256Y016969D02*
X034062Y016969D01*
X033966Y016873D01*
X034062Y016776D01*
X034256Y016776D01*
X034208Y016675D02*
X034256Y016626D01*
X034256Y016529D01*
X034208Y016481D01*
X034159Y016481D01*
X034111Y016529D01*
X034111Y016675D01*
X034208Y016675D01*
X034111Y016675D02*
X034014Y016578D01*
X033966Y016481D01*
X034111Y016776D02*
X034111Y016969D01*
X034746Y016873D02*
X034842Y016776D01*
X035036Y016776D01*
X035036Y016675D02*
X034988Y016675D01*
X034794Y016481D01*
X034746Y016481D01*
X034746Y016675D01*
X034891Y016776D02*
X034891Y016969D01*
X034842Y016969D02*
X034746Y016873D01*
X034842Y016969D02*
X035036Y016969D01*
X034988Y017070D02*
X034794Y017070D01*
X034746Y017119D01*
X034746Y017216D01*
X034794Y017264D01*
X034988Y017264D01*
X035036Y017216D01*
X035036Y017119D01*
X034988Y017070D01*
X035036Y017364D02*
X035036Y017460D01*
X035036Y017412D02*
X034746Y017412D01*
X034746Y017460D02*
X034746Y017364D01*
X034794Y017562D02*
X034746Y017610D01*
X034746Y017707D01*
X034794Y017755D01*
X034988Y017755D01*
X035036Y017707D01*
X035036Y017610D01*
X034988Y017562D01*
X034891Y017562D01*
X034891Y017658D01*
X035826Y017610D02*
X035826Y017707D01*
X035874Y017755D01*
X036068Y017755D01*
X036116Y017707D01*
X036116Y017610D01*
X036068Y017562D01*
X035971Y017562D01*
X035971Y017658D01*
X035874Y017562D02*
X035826Y017610D01*
X035826Y017460D02*
X035826Y017364D01*
X035826Y017412D02*
X036116Y017412D01*
X036116Y017460D02*
X036116Y017364D01*
X036068Y017264D02*
X036116Y017216D01*
X036116Y017119D01*
X036068Y017070D01*
X035874Y017070D01*
X035826Y017119D01*
X035826Y017216D01*
X035874Y017264D01*
X036068Y017264D01*
X036116Y016969D02*
X035922Y016969D01*
X035826Y016873D01*
X035922Y016776D01*
X036116Y016776D01*
X035971Y016776D02*
X035971Y016969D01*
X035971Y016675D02*
X035971Y016481D01*
X036116Y016529D02*
X035826Y016529D01*
X035971Y016675D01*
X037826Y016921D02*
X037826Y017066D01*
X038116Y017066D01*
X038116Y016921D01*
X038068Y016872D01*
X037874Y016872D01*
X037826Y016921D01*
X037826Y017167D02*
X038116Y017167D01*
X037826Y017360D01*
X038116Y017360D01*
X038068Y017462D02*
X037971Y017462D01*
X037971Y017558D01*
X038068Y017462D02*
X038116Y017510D01*
X038116Y017607D01*
X038068Y017655D01*
X037874Y017655D01*
X037826Y017607D01*
X037826Y017510D01*
X037874Y017462D01*
X038826Y017510D02*
X038826Y017607D01*
X038874Y017655D01*
X039068Y017655D01*
X039116Y017607D01*
X039116Y017510D01*
X039068Y017462D01*
X038971Y017462D01*
X038971Y017558D01*
X038874Y017462D02*
X038826Y017510D01*
X038826Y017360D02*
X039116Y017167D01*
X038826Y017167D01*
X038826Y017066D02*
X038826Y016921D01*
X038874Y016872D01*
X039068Y016872D01*
X039116Y016921D01*
X039116Y017066D01*
X038826Y017066D01*
X038826Y017360D02*
X039116Y017360D01*
X039926Y017510D02*
X039974Y017462D01*
X040022Y017462D01*
X040071Y017510D01*
X040119Y017462D01*
X040168Y017462D01*
X040216Y017510D01*
X040216Y017607D01*
X040168Y017655D01*
X040071Y017558D02*
X040071Y017510D01*
X039926Y017510D02*
X039926Y017607D01*
X039974Y017655D01*
X040168Y017360D02*
X040168Y017312D01*
X040216Y017312D01*
X040216Y017360D01*
X040168Y017360D01*
X040168Y017213D02*
X040216Y017165D01*
X040216Y017068D01*
X040168Y017020D01*
X040119Y017020D01*
X040071Y017068D01*
X040071Y017116D01*
X040071Y017068D02*
X040022Y017020D01*
X039974Y017020D01*
X039926Y017068D01*
X039926Y017165D01*
X039974Y017213D01*
X039926Y016918D02*
X040119Y016918D01*
X040216Y016822D01*
X040119Y016725D01*
X039926Y016725D01*
X036116Y015255D02*
X035826Y015255D01*
X036116Y015062D01*
X035826Y015062D01*
X035826Y014960D02*
X036116Y014960D01*
X035971Y014960D02*
X035971Y014767D01*
X035971Y014666D02*
X035971Y014569D01*
X036116Y014666D02*
X036116Y014472D01*
X036116Y014666D02*
X035826Y014666D01*
X035826Y014472D01*
X035826Y014371D02*
X035826Y014178D01*
X035826Y014274D02*
X036116Y014274D01*
X036116Y014076D02*
X035922Y013883D01*
X035874Y013883D01*
X035826Y013931D01*
X035826Y014028D01*
X035874Y014076D01*
X036116Y014076D02*
X036116Y013883D01*
X036116Y013782D02*
X035922Y013588D01*
X035874Y013588D01*
X035826Y013637D01*
X035826Y013733D01*
X035874Y013782D01*
X036116Y013782D02*
X036116Y013588D01*
X035036Y013637D02*
X035036Y013733D01*
X034988Y013782D01*
X034939Y013782D01*
X034891Y013733D01*
X034891Y013637D01*
X034939Y013588D01*
X034988Y013588D01*
X035036Y013637D01*
X034891Y013637D02*
X034842Y013588D01*
X034794Y013588D01*
X034746Y013637D01*
X034746Y013733D01*
X034794Y013782D01*
X034842Y013782D01*
X034891Y013733D01*
X035036Y013883D02*
X035036Y014076D01*
X035036Y013980D02*
X034746Y013980D01*
X034842Y014076D01*
X034746Y014178D02*
X034746Y014371D01*
X034746Y014274D02*
X035036Y014274D01*
X035036Y014472D02*
X035036Y014666D01*
X034746Y014666D01*
X034746Y014472D01*
X034891Y014569D02*
X034891Y014666D01*
X034891Y014767D02*
X034891Y014960D01*
X035036Y014960D02*
X034746Y014960D01*
X034746Y015062D02*
X035036Y015062D01*
X034746Y015255D01*
X035036Y015255D01*
X035036Y014767D02*
X034746Y014767D01*
X034256Y014767D02*
X033966Y014767D01*
X033966Y014666D02*
X034256Y014666D01*
X034256Y014472D01*
X034111Y014569D02*
X034111Y014666D01*
X034111Y014767D02*
X034111Y014960D01*
X034256Y014960D02*
X033966Y014960D01*
X033966Y015062D02*
X034256Y015062D01*
X033966Y015255D01*
X034256Y015255D01*
X033966Y014666D02*
X033966Y014472D01*
X033966Y014371D02*
X033966Y014178D01*
X033966Y014274D02*
X034256Y014274D01*
X034256Y014076D02*
X034256Y013883D01*
X034256Y013980D02*
X033966Y013980D01*
X034062Y014076D01*
X034111Y013782D02*
X034111Y013637D01*
X034159Y013588D01*
X034208Y013588D01*
X034256Y013637D01*
X034256Y013733D01*
X034208Y013782D01*
X034111Y013782D01*
X034014Y013685D01*
X033966Y013588D01*
X033276Y013637D02*
X032986Y013637D01*
X033131Y013782D01*
X033131Y013588D01*
X033276Y013883D02*
X033276Y014076D01*
X033276Y013980D02*
X032986Y013980D01*
X033082Y014076D01*
X032986Y014178D02*
X032986Y014371D01*
X032986Y014274D02*
X033276Y014274D01*
X033276Y014472D02*
X033276Y014666D01*
X032986Y014666D01*
X032986Y014472D01*
X033131Y014569D02*
X033131Y014666D01*
X033131Y014767D02*
X033131Y014960D01*
X033276Y014960D02*
X032986Y014960D01*
X032986Y015062D02*
X033276Y015062D01*
X032986Y015255D01*
X033276Y015255D01*
X033276Y014767D02*
X032986Y014767D01*
X032096Y014767D02*
X031806Y014767D01*
X031806Y014666D02*
X032096Y014666D01*
X032096Y014472D01*
X031951Y014569D02*
X031951Y014666D01*
X031951Y014767D02*
X031951Y014960D01*
X032096Y014960D02*
X031806Y014960D01*
X031806Y015062D02*
X032096Y015062D01*
X031806Y015255D01*
X032096Y015255D01*
X031806Y014666D02*
X031806Y014472D01*
X031806Y014371D02*
X031806Y014178D01*
X031806Y014274D02*
X032096Y014274D01*
X032096Y014076D02*
X032096Y013883D01*
X032096Y013980D02*
X031806Y013980D01*
X031902Y014076D01*
X031854Y013782D02*
X031806Y013733D01*
X031806Y013637D01*
X031854Y013588D01*
X031902Y013588D01*
X032096Y013782D01*
X032096Y013588D01*
X031116Y013657D02*
X031116Y013753D01*
X031068Y013802D01*
X030874Y013608D01*
X031068Y013608D01*
X031116Y013657D01*
X031068Y013802D02*
X030874Y013802D01*
X030826Y013753D01*
X030826Y013657D01*
X030874Y013608D01*
X031116Y013903D02*
X031116Y014096D01*
X031116Y014000D02*
X030826Y014000D01*
X030922Y014096D01*
X030826Y014198D02*
X030826Y014391D01*
X030826Y014294D02*
X031116Y014294D01*
X031116Y014492D02*
X031116Y014686D01*
X030826Y014686D01*
X030826Y014492D01*
X030971Y014589D02*
X030971Y014686D01*
X030971Y014787D02*
X030971Y014980D01*
X031116Y014980D02*
X030826Y014980D01*
X030826Y015082D02*
X031116Y015082D01*
X030826Y015275D01*
X031116Y015275D01*
X031116Y014787D02*
X030826Y014787D01*
X030036Y014787D02*
X029746Y014787D01*
X029746Y014686D02*
X030036Y014686D01*
X030036Y014492D01*
X029891Y014589D02*
X029891Y014686D01*
X029891Y014787D02*
X029891Y014980D01*
X030036Y014980D02*
X029746Y014980D01*
X029746Y015082D02*
X030036Y015082D01*
X029746Y015275D01*
X030036Y015275D01*
X029746Y014686D02*
X029746Y014492D01*
X029746Y014391D02*
X029746Y014198D01*
X029746Y014294D02*
X030036Y014294D01*
X029988Y014096D02*
X029794Y014096D01*
X029746Y014048D01*
X029746Y013951D01*
X029794Y013903D01*
X029988Y014096D01*
X030036Y014048D01*
X030036Y013951D01*
X029988Y013903D01*
X029794Y013903D01*
X029891Y013802D02*
X029891Y013657D01*
X029939Y013608D01*
X029988Y013608D01*
X030036Y013657D01*
X030036Y013753D01*
X029988Y013802D01*
X029891Y013802D01*
X029794Y013705D01*
X029746Y013608D01*
X029056Y013657D02*
X028766Y013657D01*
X028911Y013802D01*
X028911Y013608D01*
X029008Y013903D02*
X029056Y013951D01*
X029056Y014048D01*
X029008Y014096D01*
X028814Y013903D01*
X029008Y013903D01*
X029008Y014096D02*
X028814Y014096D01*
X028766Y014048D01*
X028766Y013951D01*
X028814Y013903D01*
X028766Y014198D02*
X028766Y014391D01*
X028766Y014294D02*
X029056Y014294D01*
X029056Y014492D02*
X029056Y014686D01*
X028766Y014686D01*
X028766Y014492D01*
X028911Y014589D02*
X028911Y014686D01*
X028911Y014787D02*
X028911Y014980D01*
X029056Y014980D02*
X028766Y014980D01*
X028766Y015082D02*
X029056Y015082D01*
X028766Y015275D01*
X029056Y015275D01*
X029056Y014787D02*
X028766Y014787D01*
X028056Y014787D02*
X027766Y014787D01*
X027766Y014686D02*
X028056Y014686D01*
X028056Y014492D01*
X027911Y014589D02*
X027911Y014686D01*
X027911Y014787D02*
X027911Y014980D01*
X028056Y014980D02*
X027766Y014980D01*
X027766Y015082D02*
X028056Y015082D01*
X027766Y015275D01*
X028056Y015275D01*
X027766Y014686D02*
X027766Y014492D01*
X027766Y014391D02*
X027766Y014198D01*
X027766Y014294D02*
X028056Y014294D01*
X028008Y014096D02*
X027814Y013903D01*
X028008Y013903D01*
X028056Y013951D01*
X028056Y014048D01*
X028008Y014096D01*
X027814Y014096D01*
X027766Y014048D01*
X027766Y013951D01*
X027814Y013903D01*
X027814Y013802D02*
X027766Y013753D01*
X027766Y013657D01*
X027814Y013608D01*
X027862Y013608D01*
X028056Y013802D01*
X028056Y013608D01*
X027056Y013657D02*
X027056Y013753D01*
X027008Y013802D01*
X026814Y013608D01*
X027008Y013608D01*
X027056Y013657D01*
X027008Y013802D02*
X026814Y013802D01*
X026766Y013753D01*
X026766Y013657D01*
X026814Y013608D01*
X026814Y013903D02*
X027008Y014096D01*
X027056Y014048D01*
X027056Y013951D01*
X027008Y013903D01*
X026814Y013903D01*
X026766Y013951D01*
X026766Y014048D01*
X026814Y014096D01*
X027008Y014096D01*
X027056Y014294D02*
X026766Y014294D01*
X026766Y014198D02*
X026766Y014391D01*
X026766Y014492D02*
X026766Y014686D01*
X027056Y014686D01*
X027056Y014492D01*
X026911Y014589D02*
X026911Y014686D01*
X026911Y014787D02*
X026911Y014980D01*
X027056Y014980D02*
X026766Y014980D01*
X026766Y015082D02*
X027056Y015082D01*
X026766Y015275D01*
X027056Y015275D01*
X027056Y014787D02*
X026766Y014787D01*
X027766Y017287D02*
X028056Y017287D01*
X028056Y017582D02*
X027766Y017775D01*
X028056Y017775D01*
X030826Y017041D02*
X030874Y016992D01*
X030826Y016891D02*
X031116Y016891D01*
X031116Y016698D01*
X030971Y016794D02*
X030971Y016891D01*
X030826Y016891D02*
X030826Y016698D01*
X030826Y016596D02*
X030826Y016403D01*
X030826Y016500D02*
X031116Y016500D01*
X032886Y016726D02*
X032934Y016678D01*
X032982Y016678D01*
X033176Y016871D01*
X033176Y016678D01*
X035826Y014767D02*
X036116Y014767D01*
X036116Y007755D02*
X035922Y007755D01*
X035826Y007658D01*
X035922Y007562D01*
X036116Y007562D01*
X036116Y007460D02*
X036116Y007315D01*
X036068Y007267D01*
X035874Y007267D01*
X035826Y007315D01*
X035826Y007460D01*
X036116Y007460D01*
X035971Y007562D02*
X035971Y007755D01*
X036116Y007166D02*
X036116Y007069D01*
X036116Y007117D02*
X035826Y007117D01*
X035826Y007069D02*
X035826Y007166D01*
X035826Y006969D02*
X036116Y006776D01*
X035826Y006776D01*
X035826Y006675D02*
X035826Y006481D01*
X035874Y006481D01*
X036068Y006675D01*
X036116Y006675D01*
X036116Y006969D02*
X035826Y006969D01*
X035036Y006969D02*
X034746Y006969D01*
X035036Y006776D01*
X034746Y006776D01*
X034891Y006675D02*
X034794Y006578D01*
X034746Y006481D01*
X034891Y006529D02*
X034891Y006675D01*
X034988Y006675D01*
X035036Y006626D01*
X035036Y006529D01*
X034988Y006481D01*
X034939Y006481D01*
X034891Y006529D01*
X035036Y007069D02*
X035036Y007166D01*
X035036Y007117D02*
X034746Y007117D01*
X034746Y007069D02*
X034746Y007166D01*
X034794Y007267D02*
X034746Y007315D01*
X034746Y007460D01*
X035036Y007460D01*
X035036Y007315D01*
X034988Y007267D01*
X034794Y007267D01*
X034842Y007562D02*
X035036Y007562D01*
X034891Y007562D02*
X034891Y007755D01*
X034842Y007755D02*
X034746Y007658D01*
X034842Y007562D01*
X034842Y007755D02*
X035036Y007755D01*
X034056Y007755D02*
X033862Y007755D01*
X033766Y007658D01*
X033862Y007562D01*
X034056Y007562D01*
X034056Y007460D02*
X034056Y007315D01*
X034008Y007267D01*
X033814Y007267D01*
X033766Y007315D01*
X033766Y007460D01*
X034056Y007460D01*
X033911Y007562D02*
X033911Y007755D01*
X033076Y007755D02*
X032882Y007755D01*
X032786Y007658D01*
X032882Y007562D01*
X033076Y007562D01*
X033076Y007460D02*
X033076Y007315D01*
X033028Y007267D01*
X032834Y007267D01*
X032786Y007315D01*
X032786Y007460D01*
X033076Y007460D01*
X032931Y007562D02*
X032931Y007755D01*
X033076Y007166D02*
X033076Y007069D01*
X033076Y007117D02*
X032786Y007117D01*
X032786Y007069D02*
X032786Y007166D01*
X032786Y006969D02*
X033076Y006776D01*
X032786Y006776D01*
X032931Y006675D02*
X032931Y006481D01*
X033076Y006529D02*
X032786Y006529D01*
X032931Y006675D01*
X033076Y006969D02*
X032786Y006969D01*
X032096Y006969D02*
X031806Y006969D01*
X032096Y006776D01*
X031806Y006776D01*
X031854Y006675D02*
X031806Y006626D01*
X031806Y006529D01*
X031854Y006481D01*
X031902Y006481D01*
X031951Y006529D01*
X031999Y006481D01*
X032048Y006481D01*
X032096Y006529D01*
X032096Y006626D01*
X032048Y006675D01*
X031951Y006578D02*
X031951Y006529D01*
X032096Y007069D02*
X032096Y007166D01*
X032096Y007117D02*
X031806Y007117D01*
X031806Y007069D02*
X031806Y007166D01*
X031854Y007267D02*
X031806Y007315D01*
X031806Y007460D01*
X032096Y007460D01*
X032096Y007315D01*
X032048Y007267D01*
X031854Y007267D01*
X031902Y007562D02*
X032096Y007562D01*
X031951Y007562D02*
X031951Y007755D01*
X031902Y007755D02*
X031806Y007658D01*
X031902Y007562D01*
X031902Y007755D02*
X032096Y007755D01*
X031116Y007775D02*
X030922Y007775D01*
X030826Y007678D01*
X030922Y007582D01*
X031116Y007582D01*
X031116Y007480D02*
X031116Y007335D01*
X031068Y007287D01*
X030874Y007287D01*
X030826Y007335D01*
X030826Y007480D01*
X031116Y007480D01*
X030971Y007582D02*
X030971Y007775D01*
X031116Y007186D02*
X031116Y007089D01*
X031116Y007137D02*
X030826Y007137D01*
X030826Y007089D02*
X030826Y007186D01*
X030826Y006989D02*
X031116Y006796D01*
X030826Y006796D01*
X030874Y006695D02*
X030826Y006646D01*
X030826Y006549D01*
X030874Y006501D01*
X030922Y006501D01*
X031116Y006695D01*
X031116Y006501D01*
X031116Y006989D02*
X030826Y006989D01*
X030036Y006989D02*
X029746Y006989D01*
X030036Y006796D01*
X029746Y006796D01*
X029842Y006695D02*
X029746Y006598D01*
X030036Y006598D01*
X030036Y006695D02*
X030036Y006501D01*
X030036Y007089D02*
X030036Y007186D01*
X030036Y007137D02*
X029746Y007137D01*
X029746Y007089D02*
X029746Y007186D01*
X029794Y007287D02*
X029746Y007335D01*
X029746Y007480D01*
X030036Y007480D01*
X030036Y007335D01*
X029988Y007287D01*
X029794Y007287D01*
X029842Y007582D02*
X030036Y007582D01*
X029891Y007582D02*
X029891Y007775D01*
X029842Y007775D02*
X029746Y007678D01*
X029842Y007582D01*
X029842Y007775D02*
X030036Y007775D01*
X029056Y007775D02*
X028862Y007775D01*
X028766Y007678D01*
X028862Y007582D01*
X029056Y007582D01*
X029056Y007480D02*
X029056Y007335D01*
X029008Y007287D01*
X028814Y007287D01*
X028766Y007335D01*
X028766Y007480D01*
X029056Y007480D01*
X028911Y007582D02*
X028911Y007775D01*
X029056Y007186D02*
X029056Y007089D01*
X029056Y007137D02*
X028766Y007137D01*
X028766Y007089D02*
X028766Y007186D01*
X028766Y006989D02*
X029056Y006796D01*
X028766Y006796D01*
X028814Y006695D02*
X028766Y006646D01*
X028766Y006549D01*
X028814Y006501D01*
X029008Y006695D01*
X029056Y006646D01*
X029056Y006549D01*
X029008Y006501D01*
X028814Y006501D01*
X028814Y006695D02*
X029008Y006695D01*
X029056Y006989D02*
X028766Y006989D01*
X028056Y007041D02*
X028008Y006992D01*
X027814Y006992D01*
X027766Y007041D01*
X027766Y007186D01*
X028056Y007186D01*
X028056Y007041D01*
X028056Y007287D02*
X027766Y007287D01*
X027766Y007480D02*
X028056Y007287D01*
X028056Y007480D02*
X027766Y007480D01*
X027814Y007582D02*
X027766Y007630D01*
X027766Y007727D01*
X027814Y007775D01*
X028008Y007775D01*
X028056Y007727D01*
X028056Y007630D01*
X028008Y007582D01*
X027911Y007582D01*
X027911Y007678D01*
X027056Y007630D02*
X027056Y007727D01*
X027008Y007775D01*
X026911Y007775D02*
X026862Y007678D01*
X026862Y007630D01*
X026911Y007582D01*
X027008Y007582D01*
X027056Y007630D01*
X026959Y007480D02*
X027056Y007384D01*
X026959Y007287D01*
X026766Y007287D01*
X026766Y007480D02*
X026959Y007480D01*
X026766Y007582D02*
X026766Y007775D01*
X026911Y007775D01*
X027008Y005275D02*
X027056Y005227D01*
X027056Y005130D01*
X027008Y005082D01*
X026959Y005082D01*
X026911Y005130D01*
X026911Y005178D01*
X026911Y005130D02*
X026862Y005082D01*
X026814Y005082D01*
X026766Y005130D01*
X026766Y005227D01*
X026814Y005275D01*
X027008Y004980D02*
X027008Y004932D01*
X027056Y004932D01*
X027056Y004980D01*
X027008Y004980D01*
X027008Y004833D02*
X027056Y004785D01*
X027056Y004688D01*
X027008Y004640D01*
X026959Y004640D01*
X026911Y004688D01*
X026911Y004736D01*
X026911Y004688D02*
X026862Y004640D01*
X026814Y004640D01*
X026766Y004688D01*
X026766Y004785D01*
X026814Y004833D01*
X026766Y004538D02*
X026959Y004538D01*
X027056Y004442D01*
X026959Y004345D01*
X026766Y004345D01*
X027766Y004296D02*
X028056Y004296D01*
X027766Y004489D01*
X028056Y004489D01*
X028056Y004589D02*
X028056Y004686D01*
X028056Y004637D02*
X027766Y004637D01*
X027766Y004589D02*
X027766Y004686D01*
X027814Y004787D02*
X027766Y004835D01*
X027766Y004980D01*
X028056Y004980D01*
X028056Y004835D01*
X028008Y004787D01*
X027814Y004787D01*
X027862Y005082D02*
X028056Y005082D01*
X027911Y005082D02*
X027911Y005275D01*
X027862Y005275D02*
X027766Y005178D01*
X027862Y005082D01*
X027862Y005275D02*
X028056Y005275D01*
X028766Y005227D02*
X028766Y005130D01*
X028814Y005082D01*
X028814Y004980D02*
X029008Y004980D01*
X029056Y004932D01*
X029056Y004835D01*
X029008Y004787D01*
X029056Y004686D02*
X029056Y004589D01*
X029056Y004637D02*
X028766Y004637D01*
X028766Y004589D02*
X028766Y004686D01*
X028814Y004787D02*
X028766Y004835D01*
X028766Y004932D01*
X028814Y004980D01*
X028959Y005082D02*
X029008Y005082D01*
X029056Y005130D01*
X029056Y005227D01*
X029008Y005275D01*
X028911Y005227D02*
X028911Y005130D01*
X028959Y005082D01*
X028911Y005227D02*
X028862Y005275D01*
X028814Y005275D01*
X028766Y005227D01*
X029746Y005227D02*
X029746Y005130D01*
X029794Y005082D01*
X029794Y004980D02*
X029988Y004980D01*
X030036Y004932D01*
X030036Y004835D01*
X029988Y004787D01*
X030036Y004686D02*
X030036Y004589D01*
X030036Y004637D02*
X029746Y004637D01*
X029746Y004589D02*
X029746Y004686D01*
X029794Y004787D02*
X029746Y004835D01*
X029746Y004932D01*
X029794Y004980D01*
X029939Y005082D02*
X029891Y005130D01*
X029891Y005227D01*
X029842Y005275D01*
X029794Y005275D01*
X029746Y005227D01*
X029939Y005082D02*
X029988Y005082D01*
X030036Y005130D01*
X030036Y005227D01*
X029988Y005275D01*
X030826Y005178D02*
X030826Y005082D01*
X030826Y005130D02*
X031068Y005130D01*
X031116Y005178D01*
X031116Y005227D01*
X031068Y005275D01*
X031068Y004980D02*
X031116Y004932D01*
X031116Y004835D01*
X031068Y004787D01*
X031019Y004787D01*
X030971Y004835D01*
X030971Y004980D01*
X031068Y004980D01*
X030971Y004980D02*
X030874Y004884D01*
X030826Y004787D01*
X030971Y004686D02*
X030971Y004492D01*
X030874Y004391D02*
X030826Y004343D01*
X030826Y004246D01*
X030874Y004198D01*
X030922Y004198D01*
X031116Y004391D01*
X031116Y004198D01*
X031806Y004226D02*
X031806Y004323D01*
X031854Y004371D01*
X031951Y004472D02*
X031951Y004666D01*
X031854Y004767D02*
X032048Y004960D01*
X032096Y004960D01*
X032048Y005110D02*
X031806Y005110D01*
X031806Y005158D02*
X031806Y005062D01*
X031806Y004960D02*
X031806Y004767D01*
X031854Y004767D01*
X032048Y005110D02*
X032096Y005158D01*
X032096Y005207D01*
X032048Y005255D01*
X032786Y005207D02*
X032786Y005110D01*
X032834Y005062D01*
X032931Y005110D02*
X032979Y005062D01*
X033028Y005062D01*
X033076Y005110D01*
X033076Y005207D01*
X033028Y005255D01*
X032931Y005207D02*
X032931Y005110D01*
X032931Y005207D02*
X032882Y005255D01*
X032834Y005255D01*
X032786Y005207D01*
X032786Y004960D02*
X032786Y004815D01*
X032834Y004767D01*
X032931Y004767D01*
X032979Y004815D01*
X032979Y004960D01*
X033076Y004960D02*
X032786Y004960D01*
X032786Y004666D02*
X032786Y004569D01*
X032786Y004617D02*
X033076Y004617D01*
X033076Y004569D02*
X033076Y004666D01*
X033076Y004469D02*
X033076Y004276D01*
X033076Y004373D02*
X032786Y004373D01*
X032882Y004469D01*
X032834Y004175D02*
X033028Y004175D01*
X033076Y004126D01*
X033076Y004029D01*
X033028Y003981D01*
X033076Y003880D02*
X032786Y003880D01*
X032834Y003981D02*
X032786Y004029D01*
X032786Y004126D01*
X032834Y004175D01*
X033076Y003880D02*
X033076Y003686D01*
X033076Y003585D02*
X032786Y003585D01*
X032931Y003537D02*
X033076Y003392D01*
X032979Y003585D02*
X032786Y003392D01*
X033766Y003489D02*
X034056Y003489D01*
X034056Y003585D02*
X034056Y003392D01*
X033862Y003585D02*
X033766Y003489D01*
X033814Y003686D02*
X033766Y003735D01*
X033766Y003832D01*
X033814Y003880D01*
X033862Y003880D01*
X033911Y003832D01*
X033911Y003735D01*
X033959Y003686D01*
X034008Y003686D01*
X034056Y003735D01*
X034056Y003832D01*
X034008Y003880D01*
X034008Y003981D02*
X034056Y004029D01*
X034056Y004126D01*
X034008Y004175D01*
X033814Y004175D01*
X033766Y004126D01*
X033766Y004029D01*
X033814Y003981D01*
X034056Y004276D02*
X034056Y004469D01*
X034056Y004373D02*
X033766Y004373D01*
X033862Y004469D01*
X033766Y004569D02*
X033766Y004666D01*
X033766Y004617D02*
X034056Y004617D01*
X034056Y004569D02*
X034056Y004666D01*
X033911Y004767D02*
X033959Y004815D01*
X033959Y004960D01*
X034056Y004960D02*
X033766Y004960D01*
X033766Y004815D01*
X033814Y004767D01*
X033911Y004767D01*
X033959Y005062D02*
X033911Y005110D01*
X033911Y005207D01*
X033862Y005255D01*
X033814Y005255D01*
X033766Y005207D01*
X033766Y005110D01*
X033814Y005062D01*
X033959Y005062D02*
X034008Y005062D01*
X034056Y005110D01*
X034056Y005207D01*
X034008Y005255D01*
X034746Y005207D02*
X034746Y005110D01*
X034794Y005062D01*
X034891Y005110D02*
X034891Y005207D01*
X034842Y005255D01*
X034794Y005255D01*
X034746Y005207D01*
X034891Y005110D02*
X034939Y005062D01*
X034988Y005062D01*
X035036Y005110D01*
X035036Y005207D01*
X034988Y005255D01*
X035036Y004960D02*
X034746Y004960D01*
X034746Y004815D01*
X034794Y004767D01*
X034891Y004767D01*
X034939Y004815D01*
X034939Y004960D01*
X035036Y004666D02*
X035036Y004569D01*
X035036Y004617D02*
X034746Y004617D01*
X034746Y004569D02*
X034746Y004666D01*
X034842Y004469D02*
X034746Y004373D01*
X035036Y004373D01*
X035036Y004469D02*
X035036Y004276D01*
X034988Y004175D02*
X035036Y004126D01*
X035036Y004029D01*
X034988Y003981D01*
X034988Y003880D02*
X035036Y003832D01*
X035036Y003735D01*
X034988Y003686D01*
X034939Y003686D01*
X034891Y003735D01*
X034891Y003832D01*
X034842Y003880D01*
X034794Y003880D01*
X034746Y003832D01*
X034746Y003735D01*
X034794Y003686D01*
X034794Y003585D02*
X034746Y003537D01*
X034746Y003440D01*
X034794Y003392D01*
X034842Y003392D01*
X035036Y003585D01*
X035036Y003392D01*
X034794Y003981D02*
X034746Y004029D01*
X034746Y004126D01*
X034794Y004175D01*
X034988Y004175D01*
X035826Y004126D02*
X035826Y004029D01*
X035874Y003981D01*
X035874Y003880D02*
X035922Y003880D01*
X035971Y003832D01*
X035971Y003735D01*
X036019Y003686D01*
X036068Y003686D01*
X036116Y003735D01*
X036116Y003832D01*
X036068Y003880D01*
X036068Y003981D02*
X036116Y004029D01*
X036116Y004126D01*
X036068Y004175D01*
X035874Y004175D01*
X035826Y004126D01*
X035826Y004373D02*
X036116Y004373D01*
X036116Y004469D02*
X036116Y004276D01*
X035922Y004469D02*
X035826Y004373D01*
X035826Y004569D02*
X035826Y004666D01*
X035826Y004617D02*
X036116Y004617D01*
X036116Y004569D02*
X036116Y004666D01*
X035971Y004767D02*
X036019Y004815D01*
X036019Y004960D01*
X036116Y004960D02*
X035826Y004960D01*
X035826Y004815D01*
X035874Y004767D01*
X035971Y004767D01*
X036019Y005062D02*
X036068Y005062D01*
X036116Y005110D01*
X036116Y005207D01*
X036068Y005255D01*
X035971Y005207D02*
X035971Y005110D01*
X036019Y005062D01*
X035874Y005062D02*
X035826Y005110D01*
X035826Y005207D01*
X035874Y005255D01*
X035922Y005255D01*
X035971Y005207D01*
X034056Y006529D02*
X034056Y006626D01*
X034008Y006675D01*
X033911Y006675D02*
X033862Y006578D01*
X033862Y006529D01*
X033911Y006481D01*
X034008Y006481D01*
X034056Y006529D01*
X033911Y006675D02*
X033766Y006675D01*
X033766Y006481D01*
X033766Y006776D02*
X034056Y006776D01*
X033766Y006969D01*
X034056Y006969D01*
X034056Y007069D02*
X034056Y007166D01*
X034056Y007117D02*
X033766Y007117D01*
X033766Y007069D02*
X033766Y007166D01*
X030036Y004489D02*
X030036Y004296D01*
X030036Y004393D02*
X029746Y004393D01*
X029842Y004489D01*
X030084Y004195D02*
X030084Y004001D01*
X030036Y003803D02*
X029746Y003803D01*
X029746Y003900D02*
X029746Y003706D01*
X029746Y003605D02*
X030036Y003412D01*
X030036Y003605D02*
X029746Y003412D01*
X029056Y003412D02*
X028766Y003605D01*
X028814Y003706D02*
X028911Y003706D01*
X028959Y003755D01*
X028959Y003900D01*
X028959Y003803D02*
X029056Y003706D01*
X029056Y003605D02*
X028766Y003412D01*
X028814Y003706D02*
X028766Y003755D01*
X028766Y003900D01*
X029056Y003900D01*
X029104Y004001D02*
X029104Y004195D01*
X029056Y004296D02*
X029056Y004489D01*
X029056Y004393D02*
X028766Y004393D01*
X028862Y004489D01*
X028056Y004146D02*
X028056Y004049D01*
X028008Y004001D01*
X027959Y004001D01*
X027911Y004049D01*
X027911Y004146D01*
X027862Y004195D01*
X027814Y004195D01*
X027766Y004146D01*
X027766Y004049D01*
X027814Y004001D01*
X027862Y004001D01*
X027911Y004049D01*
X027911Y004146D02*
X027959Y004195D01*
X028008Y004195D01*
X028056Y004146D01*
X031806Y004226D02*
X031854Y004178D01*
X031902Y004178D01*
X032096Y004371D01*
X032096Y004178D01*
X035826Y003832D02*
X035826Y003735D01*
X035874Y003686D01*
X035874Y003585D02*
X035826Y003537D01*
X035826Y003440D01*
X035874Y003392D01*
X035922Y003392D01*
X035971Y003440D01*
X036019Y003392D01*
X036068Y003392D01*
X036116Y003440D01*
X036116Y003537D01*
X036068Y003585D01*
X035971Y003489D02*
X035971Y003440D01*
X035826Y003832D02*
X035874Y003880D01*
D12*
X037431Y016550D02*
X040531Y016550D01*
X040531Y017850D01*
X037431Y017850D01*
X037431Y016550D01*
X037731Y017950D02*
X037931Y018150D01*
X037731Y017950D02*
X037531Y018150D01*
X037731Y017950D02*
X037731Y019050D01*
X040531Y019050D01*
X040531Y020050D01*
X037431Y020050D01*
X037431Y019050D01*
X037731Y019050D01*
M02*
